<?xml version="1.0" encoding="UTF-8" standalone="no"?>
<svg
   viewBox="0 0 119.9 144"
   xml:space="preserve"
   version="1.1"
   id="svg1029"
   sodipodi:docname="logo.svg"
   style="enable-background:new 0 0 119.9 144"
   inkscape:version="1.3 (0e150ed6c4, 2023-07-21)"
   xmlns:inkscape="http://www.inkscape.org/namespaces/inkscape"
   xmlns:sodipodi="http://sodipodi.sourceforge.net/DTD/sodipodi-0.dtd"
   xmlns="http://www.w3.org/2000/svg"
   xmlns:svg="http://www.w3.org/2000/svg"><defs
   id="defs1033"><radialGradient
     id="Gradient_1"
     gradientUnits="userSpaceOnUse"
     cx="0"
     cy="0"
     r="775.7567556304296"
     fx="0"
     fy="0"
     gradientTransform="matrix( 0.004173344255789304, 0.9999912915609428, 0.9999912915609428, -0.004173344255789304, 506.4,625.05) "
     spreadMethod="reflect"><stop
       offset="26.274509803921568%"
       stop-color="#008E00"
       id="stop259" /><stop
       offset="77.6470588235294%"
       stop-color="#00CF00"
       id="stop261" /></radialGradient><radialGradient
     id="Gradient_2"
     gradientUnits="userSpaceOnUse"
     cx="0"
     cy="0"
     r="803.6815208969595"
     fx="0"
     fy="0"
     gradientTransform="matrix( 0.004028336991482329, 0.9999918862176249, 0.9999918862176249, -0.004028336991482329, 200.6,452.2) "
     spreadMethod="reflect"><stop
       offset="23.529411764705884%"
       stop-color="#00CF00"
       id="stop264" /><stop
       offset="72.94117647058823%"
       stop-color="#009B00"
       id="stop266" /></radialGradient><radialGradient
     id="radialGradient581"
     gradientUnits="userSpaceOnUse"
     cx="0"
     cy="0"
     r="775.7567556304296"
     fx="0"
     fy="0"
     gradientTransform="matrix( 0.004173344255789304, 0.9999912915609428, 0.9999912915609428, -0.004173344255789304, 506.4,625.05) "
     spreadMethod="reflect"><stop
       offset="26.274509803921568%"
       stop-color="#008E00"
       id="stop577" /><stop
       offset="77.6470588235294%"
       stop-color="#00CF00"
       id="stop579" /></radialGradient><radialGradient
     id="radialGradient587"
     gradientUnits="userSpaceOnUse"
     cx="0"
     cy="0"
     r="803.6815208969595"
     fx="0"
     fy="0"
     gradientTransform="matrix( 0.004028336991482329, 0.9999918862176249, 0.9999918862176249, -0.004028336991482329, 200.6,452.2) "
     spreadMethod="reflect"><stop
       offset="23.529411764705884%"
       stop-color="#00CF00"
       id="stop583" /><stop
       offset="72.94117647058823%"
       stop-color="#009B00"
       id="stop585" /></radialGradient><radialGradient
     id="Gradient_1-9"
     gradientUnits="userSpaceOnUse"
     cx="0"
     cy="0"
     r="775.75677"
     fx="0"
     fy="0"
     gradientTransform="matrix(0.00417334,0.99999129,0.99999129,-0.00417334,506.4,625.05)"
     spreadMethod="reflect"><stop
       offset="26.274509803921568%"
       stop-color="#008E00"
       id="stop259-4" /><stop
       offset="77.6470588235294%"
       stop-color="#00CF00"
       id="stop261-1" /></radialGradient><radialGradient
     id="Gradient_2-7"
     gradientUnits="userSpaceOnUse"
     cx="0"
     cy="0"
     r="803.68152"
     fx="0"
     fy="0"
     gradientTransform="matrix(0.00402834,0.99999189,0.99999189,-0.00402834,200.6,452.2)"
     spreadMethod="reflect"><stop
       offset="23.529411764705884%"
       stop-color="#00CF00"
       id="stop264-8" /><stop
       offset="72.94117647058823%"
       stop-color="#009B00"
       id="stop266-8" /></radialGradient><filter
     style="color-interpolation-filters:sRGB;"
     inkscape:label="Drop Shadow"
     id="filter2046"
     x="-0.017288575"
     y="-0.013349436"
     width="1.0417807"
     height="1.0322611"><feFlood
       flood-opacity="0.498039"
       flood-color="rgb(0,0,0)"
       result="flood"
       id="feFlood2036" /><feComposite
       in="flood"
       in2="SourceGraphic"
       operator="in"
       result="composite1"
       id="feComposite2038" /><feGaussianBlur
       in="composite1"
       stdDeviation="5"
       result="blur"
       id="feGaussianBlur2040" /><feOffset
       dx="5"
       dy="5"
       result="offset"
       id="feOffset2042" /><feComposite
       in="SourceGraphic"
       in2="offset"
       operator="over"
       result="composite2"
       id="feComposite2044" /></filter><radialGradient
     id="SVGID_1_"
     cx="0"
     cy="118.7998"
     r="819.20007"
     gradientTransform="matrix(0.0772,0,0,0.0772,22.4311,96.354)"
     gradientUnits="userSpaceOnUse">&#10;				<stop
   offset="0"
   style="stop-color:#B7CFEB"
   id="stop1" />&#10;				<stop
   offset="0.3177"
   style="stop-color:#007DC5"
   id="stop2" />&#10;				<stop
   offset="0.5686"
   style="stop-color:#5172A0"
   id="stop3" />&#10;				<stop
   offset="0.8157"
   style="stop-color:#536993"
   id="stop4" />&#10;			</radialGradient><radialGradient
     id="SVGID_2_"
     cx="0"
     cy="118.7998"
     r="819.20001"
     gradientTransform="matrix(0.1249,0,0,0.1249,66.9987,2.3402)"
     gradientUnits="userSpaceOnUse">&#10;				<stop
   offset="0"
   style="stop-color:#FFCB05"
   id="stop5" />&#10;				<stop
   offset="0.2745"
   style="stop-color:#EA3F2E"
   id="stop6" />&#10;				<stop
   offset="0.3686"
   style="stop-color:#D2442F"
   id="stop7" />&#10;				<stop
   offset="0.5333"
   style="stop-color:#A85741"
   id="stop8" />&#10;				<stop
   offset="0.7529"
   style="stop-color:#A15742"
   id="stop9" />&#10;				<stop
   offset="0.9569"
   style="stop-color:#D2442F"
   id="stop10" />&#10;			</radialGradient><radialGradient
     id="SVGID_3_"
     cx="0"
     cy="118.7998"
     r="819.20007"
     gradientTransform="matrix(0.095,0,0,0.095,11.8302,57.0841)"
     gradientUnits="userSpaceOnUse">&#10;				<stop
   offset="0"
   style="stop-color:#B7CFEB"
   id="stop11" />&#10;				<stop
   offset="0.3294"
   style="stop-color:#007DC5"
   id="stop12" />&#10;				<stop
   offset="0.4745"
   style="stop-color:#5172A0"
   id="stop13" />&#10;				<stop
   offset="0.6275"
   style="stop-color:#556A90"
   id="stop14" />&#10;				<stop
   offset="0.7373"
   style="stop-color:#536993"
   id="stop15" />&#10;				<stop
   offset="0.9569"
   style="stop-color:#138ECD"
   id="stop16" />&#10;			</radialGradient><filter
     style="color-interpolation-filters:sRGB;"
     inkscape:label="Drop Shadow"
     id="filter120"
     x="-0.023268698"
     y="-0.014141414"
     width="1.0562327"
     height="1.0341751"><feColorMatrix
       values="1.5 0 0 0 -0.25 0 1.5 0 0 -0.25 0 0 1.5 0 -0.25 0 0 0 1 0"
       id="feColorMatrix120"
       result="fbSourceGraphic" /><feColorMatrix
       result="fbSourceGraphicAlpha"
       in="fbSourceGraphic"
       values="0 0 0 -1 0 0 0 0 -1 0 0 0 0 -1 0 0 0 0 1 0"
       id="feColorMatrix9" /><feFlood
       id="feFlood9"
       result="flood"
       in="fbSourceGraphic"
       flood-opacity="0.450980"
       flood-color="rgb(0,0,0)" /><feGaussianBlur
       id="feGaussianBlur9"
       result="blur"
       in="fbSourceGraphic"
       stdDeviation="0.700000" /><feOffset
       id="feOffset9"
       result="offset"
       in="blur"
       dx="0.700000"
       dy="0.700000" /><feComposite
       id="feComposite9"
       result="comp1"
       operator="in"
       in="flood"
       in2="offset" /><feComposite
       id="feComposite10"
       result="comp2"
       operator="over"
       in="fbSourceGraphic"
       in2="comp1" /></filter><radialGradient
     id="SVGID_1_-3"
     cx="0"
     cy="119.1001"
     r="819.20007"
     gradientTransform="matrix(0.1249,0,0,0.1249,66.9987,2.353)"
     gradientUnits="userSpaceOnUse">&#10;		<stop
   offset="0"
   style="stop-color:#FFCB05"
   id="stop1-7" />&#10;		<stop
   offset="0.2745"
   style="stop-color:#EA3F2E"
   id="stop2-3" />&#10;		<stop
   offset="0.3686"
   style="stop-color:#D2442F"
   id="stop3-0" />&#10;		<stop
   offset="0.5333"
   style="stop-color:#A85741"
   id="stop4-2" />&#10;		<stop
   offset="0.7529"
   style="stop-color:#A15742"
   id="stop5-5" />&#10;		<stop
   offset="0.9569"
   style="stop-color:#D2442F"
   id="stop6-3" />&#10;	</radialGradient><filter
     style="color-interpolation-filters:sRGB"
     inkscape:label="Lightness-Contrast"
     id="filter13"
     x="0"
     y="0"
     width="1"
     height="1"><feColorMatrix
       values="1.5 0 0 0 -0.25 0 1.5 0 0 -0.25 0 0 1.5 0 -0.25 0 0 0 1 0"
       id="feColorMatrix13" /></filter><radialGradient
     id="SVGID_3_-4"
     cx="0"
     cy="119.1001"
     r="819.20001"
     gradientTransform="matrix(0.0772,0,0,0.0772,22.4311,96.3811)"
     gradientUnits="userSpaceOnUse">&#10;		<stop
   offset="0"
   style="stop-color:#B7CFEB"
   id="stop13-2" />&#10;		<stop
   offset="0.3177"
   style="stop-color:#007DC5"
   id="stop14-6" />&#10;		<stop
   offset="0.5686"
   style="stop-color:#5172A0"
   id="stop15-3" />&#10;		<stop
   offset="0.8157"
   style="stop-color:#536993"
   id="stop16-3" />&#10;	</radialGradient><filter
     style="color-interpolation-filters:sRGB"
     inkscape:label="Lightness-Contrast"
     id="filter1"
     x="0"
     y="0"
     width="1"
     height="1"><feColorMatrix
       values="1.5 0 0 0 -0.25 0 1.5 0 0 -0.25 0 0 1.5 0 -0.25 0 0 0 1 0"
       id="feColorMatrix1" /></filter><radialGradient
     id="SVGID_2_-6"
     cx="0"
     cy="119.1001"
     r="819.20001"
     gradientTransform="matrix(0.095,0,0,0.095,11.8302,57.1059)"
     gradientUnits="userSpaceOnUse">&#10;		<stop
   offset="0"
   style="stop-color:#B7CFEB"
   id="stop7-8" />&#10;		<stop
   offset="0.3294"
   style="stop-color:#007DC5"
   id="stop8-8" />&#10;		<stop
   offset="0.4745"
   style="stop-color:#5172A0"
   id="stop9-8" />&#10;		<stop
   offset="0.6275"
   style="stop-color:#556A90"
   id="stop10-7" />&#10;		<stop
   offset="0.7373"
   style="stop-color:#536993"
   id="stop11-2" />&#10;		<stop
   offset="0.9569"
   style="stop-color:#138ECD"
   id="stop12-7" />&#10;	</radialGradient><filter
     style="color-interpolation-filters:sRGB"
     inkscape:label="Lightness-Contrast"
     id="filter2"
     x="0"
     y="0"
     width="1"
     height="1"><feColorMatrix
       values="1.5 0 0 0 -0.25 0 1.5 0 0 -0.25 0 0 1.5 0 -0.25 0 0 0 1 0"
       id="feColorMatrix2" /></filter><filter
     style="color-interpolation-filters:sRGB;"
     inkscape:label="Drop Shadow"
     id="filter11"
     x="-0.017945956"
     y="-0.012023977"
     width="1.0433694"
     height="1.0290579"><feFlood
       result="flood"
       in="SourceGraphic"
       flood-opacity="0.450980"
       flood-color="rgb(0,0,0)"
       id="feFlood8" /><feGaussianBlur
       result="blur"
       in="SourceGraphic"
       stdDeviation="0.700000"
       id="feGaussianBlur8" /><feOffset
       result="offset"
       in="blur"
       dx="0.700000"
       dy="0.700000"
       id="feOffset8" /><feComposite
       result="comp1"
       operator="in"
       in="flood"
       in2="offset"
       id="feComposite8" /><feComposite
       result="comp2"
       operator="over"
       in="SourceGraphic"
       in2="comp1"
       id="feComposite11" /></filter></defs><sodipodi:namedview
   id="namedview1031"
   pagecolor="#ffffff"
   bordercolor="#000000"
   borderopacity="0.25"
   inkscape:showpageshadow="2"
   inkscape:pageopacity="0.0"
   inkscape:pagecheckerboard="0"
   inkscape:deskcolor="#d1d1d1"
   showgrid="false"
   inkscape:zoom="3.9136396"
   inkscape:cx="55.063834"
   inkscape:cy="69.117248"
   inkscape:window-width="1264"
   inkscape:window-height="921"
   inkscape:window-x="466"
   inkscape:window-y="109"
   inkscape:window-maximized="0"
   inkscape:current-layer="svg1029"
   showguides="true"><sodipodi:guide
     position="76.654988,134.03485"
     orientation="0,-1"
     id="guide1"
     inkscape:locked="false" /><sodipodi:guide
     position="117.28213,107.97216"
     orientation="1,0"
     id="guide2"
     inkscape:locked="false" /><sodipodi:guide
     position="70.522589,8.831703"
     orientation="0,-1"
     id="guide3"
     inkscape:locked="false" /></sodipodi:namedview>&#10;  <linearGradient
   id="a"
   gradientUnits="userSpaceOnUse"
   x1="-52.291"
   y1="-474.658"
   x2="23.383"
   y2="-474.658"
   gradientTransform="rotate(-68.572 440.536 -230.667) scale(.9999)">&#10;    <stop
   offset="0"
   style="stop-color:#2a255c"
   id="stop835" />&#10;    <stop
   offset=".5"
   style="stop-color:#672783"
   id="stop837" />&#10;    <stop
   offset=".647"
   style="stop-color:#652782"
   id="stop839" />&#10;    <stop
   offset=".755"
   style="stop-color:#60277d"
   id="stop841" />&#10;    <stop
   offset=".85"
   style="stop-color:#562674"
   id="stop843" />&#10;    <stop
   offset=".937"
   style="stop-color:#4a2568"
   id="stop845" />&#10;    <stop
   offset="1"
   style="stop-color:#3f245d"
   id="stop847" />&#10;  </linearGradient>&#10;  &#10;  <linearGradient
   id="b"
   gradientUnits="userSpaceOnUse"
   x1="-52.291"
   y1="-474.658"
   x2="23.383"
   y2="-474.658"
   gradientTransform="rotate(-68.572 440.536 -230.667) scale(.9999)">&#10;    <stop
   offset="0"
   style="stop-color:#20254b"
   id="stop852" />&#10;    <stop
   offset=".129"
   style="stop-color:#3c2758;stop-opacity:.8714"
   id="stop854" />&#10;    <stop
   offset=".295"
   style="stop-color:#5a2867;stop-opacity:.7045"
   id="stop856" />&#10;    <stop
   offset=".466"
   style="stop-color:#732673;stop-opacity:.5343"
   id="stop858" />&#10;    <stop
   offset=".638"
   style="stop-color:#86237b;stop-opacity:.3619"
   id="stop860" />&#10;    <stop
   offset=".814"
   style="stop-color:#922180;stop-opacity:.1857"
   id="stop862" />&#10;    <stop
   offset="1"
   style="stop-color:#952081;stop-opacity:0"
   id="stop864" />&#10;  </linearGradient>&#10;  &#10;  <linearGradient
   id="c"
   gradientUnits="userSpaceOnUse"
   x1="-52.291"
   y1="-473.336"
   x2="10.502"
   y2="-473.336"
   gradientTransform="rotate(-68.572 440.536 -230.667) scale(.9999)">&#10;    <stop
   offset="0"
   style="stop-color:#952081;stop-opacity:0"
   id="stop869" />&#10;    <stop
   offset=".013"
   style="stop-color:#962081;stop-opacity:1.289326e-02"
   id="stop871" />&#10;    <stop
   offset=".228"
   style="stop-color:#a02985;stop-opacity:.2279"
   id="stop873" />&#10;    <stop
   offset=".498"
   style="stop-color:#a52e86;stop-opacity:.4982"
   id="stop875" />&#10;    <stop
   offset="1"
   style="stop-color:#a72f87"
   id="stop877" />&#10;  </linearGradient>&#10;  &#10;  <linearGradient
   id="d"
   gradientUnits="userSpaceOnUse"
   x1="-58.722"
   y1="-507.943"
   x2="67.436"
   y2="-507.943"
   gradientTransform="rotate(-68.572 440.536 -230.667) scale(.9999)">&#10;    <stop
   offset="0"
   style="stop-color:#2271b8"
   id="stop882" />&#10;    <stop
   offset=".5"
   style="stop-color:#3aabe2"
   id="stop884" />&#10;    <stop
   offset="1"
   style="stop-color:#71c7d7"
   id="stop886" />&#10;  </linearGradient>&#10;  &#10;  <linearGradient
   id="e"
   gradientUnits="userSpaceOnUse"
   x1="-22.171"
   y1="-396.168"
   x2="-22.171"
   y2="-436.435"
   gradientTransform="rotate(-68.572 440.536 -230.667) scale(.9999)">&#10;    <stop
   offset="0"
   style="stop-color:#d70953"
   id="stop891" />&#10;    <stop
   offset=".5"
   style="stop-color:#a21a5c"
   id="stop893" />&#10;    <stop
   offset="1"
   style="stop-color:#a21a5c"
   id="stop895" />&#10;  </linearGradient>&#10;  &#10;  <linearGradient
   id="f"
   gradientUnits="userSpaceOnUse"
   x1="-21.967"
   y1="-396.168"
   x2="-21.967"
   y2="-436.435"
   gradientTransform="rotate(-68.572 440.536 -230.667) scale(.9999)">&#10;    <stop
   offset="0"
   style="stop-color:#d70953"
   id="stop900" />&#10;    <stop
   offset=".995"
   style="stop-color:#3a1e3e"
   id="stop902" />&#10;  </linearGradient>&#10;  &#10;  <linearGradient
   id="g"
   gradientUnits="userSpaceOnUse"
   x1="-38.382"
   y1="-440.96"
   x2="32.63"
   y2="-440.96"
   gradientTransform="rotate(-68.572 440.536 -230.667) scale(.9999)">&#10;    <stop
   offset="0"
   style="stop-color:#e72273"
   id="stop907" />&#10;    <stop
   offset=".5"
   style="stop-color:#d70953"
   id="stop909" />&#10;    <stop
   offset="1"
   style="stop-color:#a21a5c"
   id="stop911" />&#10;  </linearGradient>&#10;  &#10;  <linearGradient
   id="h"
   gradientUnits="userSpaceOnUse"
   x1="-38.382"
   y1="-440.96"
   x2="32.729"
   y2="-440.96"
   gradientTransform="rotate(-68.572 440.536 -230.667) scale(.9999)">&#10;    <stop
   offset="0"
   style="stop-color:#e72273;stop-opacity:0"
   id="stop916" />&#10;    <stop
   offset=".221"
   style="stop-color:#e72871;stop-opacity:.4418"
   id="stop918" />&#10;    <stop
   offset=".5"
   style="stop-color:#e72a70"
   id="stop920" />&#10;    <stop
   offset=".601"
   style="stop-color:#e42a6f;stop-opacity:.7974"
   id="stop922" />&#10;    <stop
   offset=".707"
   style="stop-color:#db276c;stop-opacity:.5856"
   id="stop924" />&#10;    <stop
   offset=".815"
   style="stop-color:#cb2367;stop-opacity:.3694"
   id="stop926" />&#10;    <stop
   offset=".924"
   style="stop-color:#b51e61;stop-opacity:.1515"
   id="stop928" />&#10;    <stop
   offset="1"
   style="stop-color:#a21a5c;stop-opacity:0"
   id="stop930" />&#10;  </linearGradient>&#10;  &#10;  <linearGradient
   id="i"
   gradientUnits="userSpaceOnUse"
   x1="-58.722"
   y1="-507.943"
   x2="65.881"
   y2="-507.943"
   gradientTransform="rotate(-68.572 440.536 -230.667) scale(.9999)">&#10;    <stop
   offset="0"
   style="stop-color:#046ab3"
   id="stop935" />&#10;    <stop
   offset=".451"
   style="stop-color:#198fcf"
   id="stop937" />&#10;    <stop
   offset="1"
   style="stop-color:#009ac6"
   id="stop939" />&#10;  </linearGradient>&#10;  &#10;  <linearGradient
   id="j"
   gradientUnits="userSpaceOnUse"
   x1="-38.382"
   y1="-440.96"
   x2="29.004"
   y2="-440.96"
   gradientTransform="rotate(-68.572 440.536 -230.667) scale(.9999)">&#10;    <stop
   offset="0"
   style="stop-color:#e72273;stop-opacity:0"
   id="stop944" />&#10;    <stop
   offset=".258"
   style="stop-color:#cf1f6a;stop-opacity:.2583"
   id="stop946" />&#10;    <stop
   offset=".566"
   style="stop-color:#b71c62;stop-opacity:.566"
   id="stop948" />&#10;    <stop
   offset=".824"
   style="stop-color:#a81b5e;stop-opacity:.8243"
   id="stop950" />&#10;    <stop
   offset="1"
   style="stop-color:#a21a5c"
   id="stop952" />&#10;  </linearGradient>&#10;  &#10;  <linearGradient
   id="k"
   gradientUnits="userSpaceOnUse"
   x1="-35.675"
   y1="-440.96"
   x2="32.729"
   y2="-440.96"
   gradientTransform="rotate(-68.572 440.536 -230.667) scale(.9999)">&#10;    <stop
   offset="0"
   style="stop-color:#e72273;stop-opacity:0"
   id="stop957" />&#10;    <stop
   offset=".018"
   style="stop-color:#e93e7d;stop-opacity:3.596431e-02"
   id="stop959" />&#10;    <stop
   offset=".069"
   style="stop-color:#ee779c;stop-opacity:.1371"
   id="stop961" />&#10;    <stop
   offset=".121"
   style="stop-color:#f3a1b8;stop-opacity:.2429"
   id="stop963" />&#10;    <stop
   offset=".176"
   style="stop-color:#f7c1d0;stop-opacity:.3515"
   id="stop965" />&#10;    <stop
   offset=".232"
   style="stop-color:#fad9e2;stop-opacity:.4634"
   id="stop967" />&#10;    <stop
   offset=".29"
   style="stop-color:#fdeaf0;stop-opacity:.5798"
   id="stop969" />&#10;    <stop
   offset=".351"
   style="stop-color:#fef6f9;stop-opacity:.7026"
   id="stop971" />&#10;    <stop
   offset=".418"
   style="stop-color:#fffdfe;stop-opacity:.8361"
   id="stop973" />&#10;    <stop
   offset=".5"
   style="stop-color:#fff"
   id="stop975" />&#10;    <stop
   offset=".56"
   style="stop-color:#fdfcfc;stop-opacity:.8808"
   id="stop977" />&#10;    <stop
   offset=".622"
   style="stop-color:#f8f1f4;stop-opacity:.7561"
   id="stop979" />&#10;    <stop
   offset=".686"
   style="stop-color:#efdfe6;stop-opacity:.6287"
   id="stop981" />&#10;    <stop
   offset=".75"
   style="stop-color:#e4c5d1;stop-opacity:.4995"
   id="stop983" />&#10;    <stop
   offset=".816"
   style="stop-color:#d5a4b6;stop-opacity:.3689"
   id="stop985" />&#10;    <stop
   offset=".881"
   style="stop-color:#c47b96;stop-opacity:.2371"
   id="stop987" />&#10;    <stop
   offset=".947"
   style="stop-color:#b24a74;stop-opacity:.1069"
   id="stop989" />&#10;    <stop
   offset="1"
   style="stop-color:#a21a5c;stop-opacity:0"
   id="stop991" />&#10;  </linearGradient>&#10;  &#10;  <linearGradient
   id="l"
   gradientUnits="userSpaceOnUse"
   x1="-25.224"
   y1="-453.727"
   x2="40.939"
   y2="-568.325"
   gradientTransform="rotate(-68.572 440.536 -230.667) scale(.9999)">&#10;    <stop
   offset="0"
   style="stop-color:#2271b8;stop-opacity:0"
   id="stop996" />&#10;    <stop
   offset=".01"
   style="stop-color:#2d75ba;stop-opacity:1.914263e-02"
   id="stop998" />&#10;    <stop
   offset=".111"
   style="stop-color:#799ace;stop-opacity:.2215"
   id="stop1000" />&#10;    <stop
   offset=".207"
   style="stop-color:#adbcdd;stop-opacity:.415"
   id="stop1002" />&#10;    <stop
   offset=".297"
   style="stop-color:#d1d8e9;stop-opacity:.5948"
   id="stop1004" />&#10;    <stop
   offset=".379"
   style="stop-color:#ebedf0;stop-opacity:.7577"
   id="stop1006" />&#10;    <stop
   offset=".449"
   style="stop-color:#fbfaf4;stop-opacity:.8981"
   id="stop1008" />&#10;    <stop
   offset=".5"
   style="stop-color:#fffef5"
   id="stop1010" />&#10;    <stop
   offset=".613"
   style="stop-color:#fefdf5;stop-opacity:.7737"
   id="stop1012" />&#10;    <stop
   offset=".696"
   style="stop-color:#f6faf3;stop-opacity:.6085"
   id="stop1014" />&#10;    <stop
   offset=".769"
   style="stop-color:#e9f4f0;stop-opacity:.4627"
   id="stop1016" />&#10;    <stop
   offset=".836"
   style="stop-color:#d6eceb;stop-opacity:.328"
   id="stop1018" />&#10;    <stop
   offset=".899"
   style="stop-color:#bbe1e5;stop-opacity:.2011"
   id="stop1020" />&#10;    <stop
   offset=".959"
   style="stop-color:#96d3de;stop-opacity:8.162302e-02"
   id="stop1022" />&#10;    <stop
   offset="1"
   style="stop-color:#71c7d7;stop-opacity:0"
   id="stop1024" />&#10;  </linearGradient>&#10;  &#10;<g
   id="g8"
   style="filter:url(#filter11)"><path
     fill="url(#SVGID_1_)"
     d="M 63.2,3.5 C 59.9,1.2 55.1,0 49,0 c 9.1,6.9 13.1,19.4 12.1,37.4 -1.1,18 -3.4,35.7 -7,52.9 -1.4,7.2 -0.3,13 3.2,17.7 4.2,5.5 11.7,8.8 22.5,10 C 73,115.7 68.5,113 66.3,109.9 64.8,107.8 64,104.9 64,101.2 64,95 64.3,88 65.2,80.5 66,73.5 67,66.6 68,60 69.2,53.4 70.2,47.2 71,41.4 71.8,35.6 72.2,30.5 72.2,26 72.2,21.4 71.5,17.1 70.1,13.1 68.8,9.1 66.5,5.9 63.2,3.5 Z"
     id="path6"
     style="fill:url(#SVGID_1_-3);filter:url(#filter13)"
     transform="matrix(1.1731128,0,0,1.1731128,9.0754466,0.87460755)" /><path
     fill="url(#SVGID_2_)"
     d="m 50.8,9.8 c 0.2,3.6 0.4,7.6 0.4,11.9 0,2.9 -0.1,6.7 -0.2,11.2 -0.1,4.6 -0.4,9.5 -0.7,14.7 -0.1,0.5 -0.1,1 -0.1,1.5 -0.7,-0.3 -1.5,-0.5 -2.2,-0.7 -2.7,-0.6 -5.2,-0.8 -7.6,-0.8 -5.9,0 -11.3,1 -16.3,3.3 C 19.3,53.1 15,56.3 11.4,60.5 7.8,64.6 5,69.3 3,74.8 1,80.1 0,86 0,92.2 c 0,6.2 0.9,11.2 2.8,15 1.9,3.8 4.3,6.6 7.3,8.2 3.1,1.7 6.3,2.6 9.6,2.6 3.4,0 6.7,-0.7 9.9,-1.9 3.1,-1.3 5.9,-3.1 8.5,-5.6 2.5,-2.4 4.7,-5.5 6.4,-9 l 0.6,0.2 c 0.2,2.6 0.8,5.3 1.9,7.9 1.3,2.7 3.3,4.8 6.1,6.6 1.9,1.1 5.2,2 9.9,2.5 5.8,0.7 11.3,0.5 16.8,-0.7 C 69,116.8 61.5,113.5 57.3,108 53.8,103.3 52.7,97.5 54.1,90.3 57.7,73.1 60,55.4 61.1,37.4 62.1,19.4 58.1,6.9 49,0 c 0.9,2.9 1.5,6.1 1.8,9.8 z M 27.9,56.6 c 1.2,-1 2.5,-1.8 3.8,-2.5 l 3.1,-1.3 c 0.3,-0.2 0.7,-0.3 1,-0.5 1.4,-0.5 2.8,-1 4.2,-1.4 1.9,-0.6 3.8,-0.8 5.8,-0.8 1.1,0 2.1,0.1 3.1,0.2 l 1.6,0.2 0.3,0.1 h -0.3 c 1.4,0.1 2.7,0.5 4,1.2 -1.7,0 -3,0.3 -4,0.6 -0.1,0.1 -0.2,0.2 -0.4,0.2 -1,11.4 -2.2,20.7 -3.6,28.1 -0.1,1 -0.1,2 -0.2,3 0,1 -0.2,2 -0.3,2.9 -0.2,1.8 -0.5,3.6 -0.9,5.3 -0.2,1.5 -0.6,3 -1.2,4.4 -0.4,1.4 -0.9,2.6 -1.5,3.8 -0.9,1.6 -1.9,3.2 -3,4.6 -1,1.4 -2.3,2.6 -3.5,3.6 -0.9,0.6 -1.8,1.2 -2.7,1.9 -1.3,1 -2.9,1.7 -4.6,2.2 -1.4,0.5 -2.8,0.7 -4.4,0.5 -1.6,-0.1 -3,-0.6 -4.3,-1.3 -1.6,-0.8 -3.1,-1.7 -4.3,-2.8 -0.9,-0.8 -1.7,-1.8 -2.4,-3 -0.9,-1.5 -1.6,-3.1 -2,-4.9 -0.2,-0.8 -0.3,-1.6 -0.4,-2.4 -0.2,-1.4 -0.3,-2.8 -0.2,-4.1 0,-1.9 0.2,-3.7 0.4,-5.6 0.3,-1.6 0.6,-3.3 0.9,-5 0.5,-1.6 0.9,-3.1 1.4,-4.7 0.4,-1.5 1,-2.9 1.5,-4.4 0.5,-1.3 1.1,-2.6 1.7,-4 0.6,-1.2 1.3,-2.4 1.9,-3.6 1,-1.8 2.2,-3.4 3.4,-4.8 0.8,-1 1.6,-1.9 2.6,-2.7 1.1,-1.1 2.2,-2.1 3.5,-3 z"
     id="path12"
     style="fill:url(#SVGID_2_-6);filter:url(#filter13)"
     transform="matrix(1.1731128,0,0,1.1731128,9.0754466,0.87460755)" /><path
     fill="url(#SVGID_3_)"
     d="m 31.7,54.1 c -1.3,0.7 -2.6,1.5 -3.8,2.5 -1.3,0.9 -2.4,1.9 -3.5,3 -1,0.8 -1.8,1.7 -2.6,2.7 -1.2,1.4 -2.4,3 -3.4,4.8 -0.6,1.2 -1.3,2.4 -1.9,3.6 -0.6,1.4 -1.2,2.7 -1.7,4 -0.5,1.5 -1.1,2.9 -1.5,4.4 -0.5,1.6 -0.9,3.1 -1.4,4.7 -0.3,1.7 -0.6,3.4 -0.9,5 -0.2,1.9 -0.4,3.7 -0.4,5.6 -0.1,1.3 0,2.7 0.2,4.1 0.1,0.8 0.2,1.6 0.4,2.4 0.4,1.8 1.1,3.4 2,4.9 0.7,1.2 1.5,2.2 2.4,3 1.2,1.1 2.7,2 4.3,2.8 1.3,0.7 2.7,1.2 4.3,1.3 1.6,0.2 3,0 4.4,-0.5 1.7,-0.5 3.3,-1.2 4.6,-2.2 0.9,-0.7 1.8,-1.3 2.7,-1.9 1.2,-1 2.5,-2.2 3.5,-3.6 1.1,-1.4 2.1,-3 3,-4.6 0.6,-1.2 1.1,-2.4 1.5,-3.8 0.6,-1.4 1,-2.9 1.2,-4.4 0.4,-1.7 0.7,-3.5 0.9,-5.3 0.1,-0.9 0.3,-1.9 0.3,-2.9 0.1,-1 0.1,-2 0.2,-3 -3.6,18.3 -8.7,27 -15.3,26.1 -2.1,-0.6 -3.6,-2 -4.6,-4.3 -1.5,-3.9 -1.5,-10.2 0,-18.9 0.3,-1.5 0.6,-3 1,-4.8 3.6,-12.8 11.1,-21.6 22.5,-26.2 0.2,0 0.3,-0.1 0.4,-0.2 1,-0.3 2.3,-0.6 4,-0.6 -1.3,-0.7 -2.6,-1.1 -4,-1.2 v -0.1 l -1.6,-0.2 c -1,-0.1 -2,-0.2 -3.1,-0.2 -2,0 -3.9,0.2 -5.8,0.8 -1.4,0.4 -2.8,0.9 -4.2,1.4 -0.3,0.2 -0.7,0.3 -1,0.5 z"
     id="path16"
     style="fill:url(#SVGID_3_-4);filter:url(#filter13)"
     transform="matrix(1.1731128,0,0,1.1731128,9.0754466,0.87460755)" /></g></svg>
