<?xml version="1.0" encoding="UTF-8" standalone="no"?>
<!-- Generator: Adobe Illustrator 24.2.1, SVG Export Plug-In . SVG Version: 6.00 Build 0)  -->

<svg
   version="1.1"
   id="Layer_1"
   x="0px"
   y="0px"
   viewBox="0 0 70.7 37.5"
   style="enable-background:new 0 0 70.7 37.5;"
   xml:space="preserve"
   sodipodi:docname="logo-header.svg"
   inkscape:version="1.3 (0e150ed6c4, 2023-07-21)"
   xmlns:inkscape="http://www.inkscape.org/namespaces/inkscape"
   xmlns:sodipodi="http://sodipodi.sourceforge.net/DTD/sodipodi-0.dtd"
   xmlns="http://www.w3.org/2000/svg"
   xmlns:svg="http://www.w3.org/2000/svg"><defs
   id="defs6155"><rect
     x="32.399437"
     y="9.8162917"
     width="34.839324"
     height="12.369662"
     id="rect11373" /><rect
     x="32.342695"
     y="10.780898"
     width="36.201122"
     height="12.596629"
     id="rect11367" /><radialGradient
     id="Gradient_1"
     gradientUnits="userSpaceOnUse"
     cx="0"
     cy="0"
     r="85.45066650559258"
     fx="0"
     fy="0"
     gradientTransform="matrix( 0.003949647367325231, 0.9999922001124177, 0.9999922001124177, -0.003949647367325231, 97.75,223.65) "
     spreadMethod="reflect"><stop
       offset="23.529411764705884%"
       stop-color="#00CF00"
       id="stop594" /><stop
       offset="72.94117647058823%"
       stop-color="#009B00"
       id="stop596" /></radialGradient><radialGradient
     id="Gradient_2"
     gradientUnits="userSpaceOnUse"
     cx="0"
     cy="0"
     r="82.5006903380208"
     fx="0"
     fy="0"
     gradientTransform="matrix( 0.004090874859558134, 0.999991632336433, 0.999991632336433, -0.004090874859558134, 130.3,242.05) "
     spreadMethod="reflect"><stop
       offset="26.274509803921568%"
       stop-color="#008E00"
       id="stop599" /><stop
       offset="77.6470588235294%"
       stop-color="#00CF00"
       id="stop601" /></radialGradient><radialGradient
     id="radialGradient762"
     gradientUnits="userSpaceOnUse"
     cx="0"
     cy="0"
     r="85.45066650559258"
     fx="0"
     fy="0"
     gradientTransform="matrix( 0.003949647367325231, 0.9999922001124177, 0.9999922001124177, -0.003949647367325231, 97.75,223.65) "
     spreadMethod="reflect"><stop
       offset="23.529411764705884%"
       stop-color="#00CF00"
       id="stop758" /><stop
       offset="72.94117647058823%"
       stop-color="#009B00"
       id="stop760" /></radialGradient><radialGradient
     id="radialGradient768"
     gradientUnits="userSpaceOnUse"
     cx="0"
     cy="0"
     r="82.5006903380208"
     fx="0"
     fy="0"
     gradientTransform="matrix( 0.004090874859558134, 0.999991632336433, 0.999991632336433, -0.004090874859558134, 130.3,242.05) "
     spreadMethod="reflect"><stop
       offset="26.274509803921568%"
       stop-color="#008E00"
       id="stop764" /><stop
       offset="77.6470588235294%"
       stop-color="#00CF00"
       id="stop766" /></radialGradient><filter
     style="color-interpolation-filters:sRGB"
     inkscape:label="Lightness-Contrast"
     id="filter25"
     x="0"
     y="0"
     width="1"
     height="1"><feColorMatrix
       values="1.5 0 0 0 -0.25 0 1.5 0 0 -0.25 0 0 1.5 0 -0.25 0 0 0 1 0"
       id="feColorMatrix25" /></filter><radialGradient
     id="SVGID_1_"
     cx="0"
     cy="120.7998"
     r="819.20001"
     gradientTransform="matrix(0.0772,0,0,0.0772,22.4311,96.1996)"
     gradientUnits="userSpaceOnUse">&#10;				<stop
   offset="0"
   style="stop-color:#B7CFEB"
   id="stop8" />&#10;				<stop
   offset="0.3177"
   style="stop-color:#007DC5"
   id="stop9" />&#10;				<stop
   offset="0.5686"
   style="stop-color:#5172A0"
   id="stop10" />&#10;				<stop
   offset="0.8157"
   style="stop-color:#536993"
   id="stop11" />&#10;			</radialGradient><radialGradient
     id="SVGID_2_"
     cx="0"
     cy="120.7998"
     r="819.20001"
     gradientTransform="matrix(0.1249,0,0,0.1249,66.9987,2.0904)"
     gradientUnits="userSpaceOnUse">&#10;				<stop
   offset="0"
   style="stop-color:#FFCB05"
   id="stop12" />&#10;				<stop
   offset="0.2745"
   style="stop-color:#EA3F2E"
   id="stop13" />&#10;				<stop
   offset="0.3686"
   style="stop-color:#D2442F"
   id="stop14" />&#10;				<stop
   offset="0.5333"
   style="stop-color:#A85741"
   id="stop15" />&#10;				<stop
   offset="0.7529"
   style="stop-color:#A15742"
   id="stop16" />&#10;				<stop
   offset="0.9569"
   style="stop-color:#D2442F"
   id="stop17" />&#10;			</radialGradient><radialGradient
     id="SVGID_3_"
     cx="0"
     cy="120.7998"
     r="819.20001"
     gradientTransform="matrix(0.095,0,0,0.095,11.8302,56.8941)"
     gradientUnits="userSpaceOnUse">&#10;				<stop
   offset="0"
   style="stop-color:#B7CFEB"
   id="stop18" />&#10;				<stop
   offset="0.3294"
   style="stop-color:#007DC5"
   id="stop19" />&#10;				<stop
   offset="0.4745"
   style="stop-color:#5172A0"
   id="stop20" />&#10;				<stop
   offset="0.6275"
   style="stop-color:#556A90"
   id="stop21" />&#10;				<stop
   offset="0.7373"
   style="stop-color:#536993"
   id="stop22" />&#10;				<stop
   offset="0.9569"
   style="stop-color:#138ECD"
   id="stop23" />&#10;			</radialGradient></defs><sodipodi:namedview
   id="namedview6153"
   pagecolor="#ffffff"
   bordercolor="#000000"
   borderopacity="0.25"
   inkscape:showpageshadow="2"
   inkscape:pageopacity="0.0"
   inkscape:pagecheckerboard="true"
   inkscape:deskcolor="#d1d1d1"
   showgrid="false"
   inkscape:zoom="17.623763"
   inkscape:cx="15.206741"
   inkscape:cy="12.823595"
   inkscape:window-width="1264"
   inkscape:window-height="828"
   inkscape:window-x="51"
   inkscape:window-y="0"
   inkscape:window-maximized="0"
   inkscape:current-layer="g617"
   showguides="true"><sodipodi:guide
     position="5.9011236,45.670786"
     orientation="1,0"
     id="guide1"
     inkscape:locked="false" /><sodipodi:guide
     position="40.967416,38.861798"
     orientation="1,0"
     id="guide2"
     inkscape:locked="false" /></sodipodi:namedview>&#10;<style
   type="text/css"
   id="style6096">&#10;	.st0{fill:#FFFFFF;}&#10;	.st1{opacity:0.3;fill:#B2B2B2;}&#10;	.st2{opacity:0.6;fill:#FFFFFF;}&#10;	.st3{opacity:0.2;fill:#878787;}&#10;	.st4{opacity:0.17;fill:#FFFFFF;}&#10;	.st5{opacity:0.3;fill:#C6C6C6;}&#10;</style>&#10;&#10;&#10;&#10;&#10;&#10;&#10;&#10;<g
   id="g617"
   transform="matrix(0.34090727,0,0,0.34090727,-20.034128,-59.670759)"><g
     id="g25"
     transform="matrix(0.57791594,0,0,0.57791594,59.949344,191.48242)"><path
       fill="#282828"
       d="m 244.1,40.1 c 0,1 0,2.2 0,3.2 0.1,1.2 0.1,2.2 0.1,3.3 0,4.7 -0.3,9.2 -0.6,13.3 -2.2,0 -4.2,0.3 -6,0.6 -2,0.4 -3.7,1.3 -4.8,2.5 -1.1,1.3 -1.7,3.3 -1.7,5.9 0,0.4 0,1 0,1.5 0.1,0.6 0.1,1.1 0.2,1.7 2.8,-1.3 5.4,-2.3 7.8,-2.8 1.1,-0.3 2.2,-0.5 3.3,-0.7 -0.5,3.2 -1,6.2 -1.6,9.2 -0.8,4.4 -1.6,8.6 -2.2,12.7 -0.7,4.2 -1,8.2 -1,12.4 0,3.2 0.3,6 1.1,8.3 0.7,2.3 2,4.3 3.9,5.8 1.8,1.6 4.4,2.9 7.7,3.8 -0.5,-1 -0.9,-2.5 -1.1,-4.7 -0.3,-2.1 -0.4,-4.5 -0.4,-7.3 0,-4.6 0.4,-9.4 1.1,-14.4 0.7,-4.9 1.5,-9.9 2.4,-14.9 0.8,-4 1.5,-7.8 2.1,-11.5 2,0 4.3,0 6.7,0 2.1,0 3.8,-0.6 5,-1.7 1.2,-1 1.8,-3.3 1.8,-6.5 0,-0.5 0,-1 -0.1,-1.5 0,-0.5 -0.1,-1 -0.2,-1.4 -1.5,1.4 -3.5,2.2 -5.9,2.6 -2,0.4 -4.1,0.7 -6.2,0.7 0.3,-2.4 0.3,-4.7 0.3,-6.9 0,-4 -0.9,-7 -2.7,-9.2 -1.9,-2.2 -4.9,-3.6 -9,-4 z"
       id="path1"
       style="fill:#ffffff;fill-opacity:1" /><path
       fill="#282828"
       d="m 221,63 c -1.1,-1.8 -2.7,-3.3 -5.1,-4.5 -2.3,-1.1 -5.6,-1.7 -9.6,-1.7 -4.2,0 -7.7,0.7 -10.8,2.1 -3.1,1.4 -5.4,3.3 -7.1,5.8 -1.7,2.4 -2.6,5.1 -2.6,8.3 0,2.8 0.6,5.2 1.7,7.2 1.1,2.1 2.6,3.9 4.3,5.6 1.8,1.6 3.6,3.1 5.5,4.4 2,1.3 3.9,2.7 5.6,4 1.8,1.4 3.2,2.8 4.3,4.3 1.1,1.4 1.6,3.2 1.6,5 0,1.6 -0.4,3 -1.2,4.1 -0.9,1 -2,1.9 -3.3,2.4 -1.2,0.6 -2.5,0.9 -4,0.8 -2.9,0.1 -5,-0.8 -6.4,-2.4 -1.3,-1.7 -2,-3.6 -2,-5.8 0,-1.2 0.2,-2.4 0.7,-3.6 0.4,-1.3 1.1,-2.4 1.8,-3.4 -0.6,-0.4 -1.3,-0.6 -2.1,-0.7 -0.7,0 -1.4,0 -2,0 -2.5,0 -4.7,0.8 -6.5,2.6 -1.9,1.9 -2.9,4.3 -2.9,7.3 0.1,3.4 1.8,6.3 5,8.7 3.3,2.4 8,3.6 14.3,3.6 4.1,0 7.7,-0.6 11,-2 3.1,-1.3 5.6,-3.2 7.5,-5.7 1.7,-2.4 2.6,-5.2 2.6,-8.5 0,-2.5 -0.5,-4.7 -1.7,-6.6 -1.2,-1.9 -2.7,-3.6 -4.4,-5.2 -1.8,-1.6 -3.6,-3.1 -5.6,-4.4 -2,-1.4 -3.9,-2.8 -5.8,-4.2 -1.7,-1.4 -3.2,-3 -4.4,-4.6 -1.1,-1.6 -1.6,-3.6 -1.6,-5.6 0,-1.6 0.4,-3 1.1,-4.1 0.8,-1 1.8,-1.9 2.9,-2.4 1.1,-0.5 2.4,-0.8 3.6,-0.8 1.9,0 3.4,0.6 4.9,1.7 1.5,1 2.1,2.6 2,4.8 0,1.2 -0.1,2.4 -0.6,3.8 -0.4,1.4 -1.3,2.6 -2.5,3.9 0.7,0.3 1.5,0.6 2.4,0.8 0.8,0.3 1.7,0.4 2.5,0.4 2.6,-0.1 4.6,-1.1 6.2,-3.1 1.5,-1.9 2.2,-4.1 2.1,-6.6 0.1,-2 -0.3,-3.9 -1.4,-5.7 z"
       id="path2"
       style="fill:#ffffff;fill-opacity:1" /><path
       fill="#282828"
       d="m 288.7,36.1 c -1.1,-0.3 -2.2,-0.4 -3.4,-0.4 -1.2,0 -2.3,0.1 -3.5,0.3 -1.2,0.1 -2.2,0.3 -3.2,0.7 -0.3,1.4 -0.7,2.8 -1.2,4.1 -0.3,1.2 -0.5,2.5 -0.5,3.9 0,1.6 0.3,2.8 1,3.7 0.7,0.9 1.6,1.4 2.7,1.7 1.1,0.4 2.2,0.5 3.3,0.5 1.2,0 2.3,-0.1 3.5,-0.3 1.1,-0.2 2.2,-0.5 3.2,-0.7 0.5,-1.3 0.8,-2.6 1.2,-4 0.4,-1.3 0.6,-2.6 0.6,-4 0,-1.6 -0.5,-2.8 -1.1,-3.6 -0.7,-1 -1.6,-1.5 -2.6,-1.9 z"
       id="path3"
       style="fill:#ffffff;fill-opacity:1" /><path
       fill="#282828"
       d="m 281.3,56.8 c -0.6,0 -1.2,0 -1.9,0 -0.8,0.1 -1.4,0.1 -2,0.2 0.4,1.7 0.5,3.3 0.6,5 0.1,1.8 0.1,3.4 0.1,5.2 0,3.4 -0.3,7 -0.8,10.7 -0.6,3.8 -1.1,7.4 -1.7,11 -0.5,3.6 -0.7,6.8 -0.7,9.8 0,3.2 0.3,6 1,8.3 0.6,2.4 1.9,4.3 3.7,5.8 1.8,1.6 4.3,2.8 7.7,3.8 -0.4,-1 -0.7,-2.3 -0.9,-4.1 -0.3,-1.7 -0.3,-3.8 -0.3,-6.2 0,-6.3 0.5,-12.1 1.3,-17.6 0.9,-5.4 1.7,-10.3 2.5,-14.3 0.7,-4.1 1.2,-7.1 1.2,-9 0,-3.1 -0.7,-5.2 -2.2,-6.6 -1.5,-1.4 -4,-2 -7.6,-2 z"
       id="path4"
       style="fill:#ffffff;fill-opacity:1" /><path
       fill="#282828"
       d="m 334.9,60 c -1.3,-0.3 -2.8,-0.5 -4.5,-0.5 -3.8,0 -7.3,1 -10.8,3 -3.5,2 -6.5,4.8 -9.1,8.2 -2.6,3.5 -4.7,7.5 -6.2,12 -1.5,4.5 -2.2,9.2 -2.2,14.2 0,6 1.2,10.6 3.8,14.1 2.5,3.5 6,5.3 10.4,5.3 3,0 6.1,-0.8 9,-2.4 3,-1.6 5.6,-3.8 8,-6.5 2.3,-2.8 4.2,-6 5.6,-9.5 l 0.5,0.2 c 0,0.3 0,0.5 0,0.6 0,0.2 0,0.5 0,1 0,5.7 1,10 3.2,12.9 2.1,2.9 5.7,4.8 10.7,5.8 -1.2,-2.6 -2,-4.9 -2.4,-6.9 -0.5,-2.1 -0.8,-4.6 -0.8,-7.5 0,-3.6 0.3,-7.3 0.8,-11.1 0.5,-3.7 1,-7.3 1.7,-10.7 0.7,-3.4 1.2,-6.4 1.7,-9.2 0.4,-2.7 0.6,-5 0.6,-6.7 0,-2.8 -0.8,-4.9 -2.3,-6.2 -1.5,-1.3 -4,-2 -7.3,-2 -1.1,0 -1.9,0 -2.4,0 -0.6,0 -1.1,0.1 -1.8,0.2 0.3,1.2 0.4,2.8 0.5,4.6 0.2,1.8 0.3,3.7 0.3,5.7 0,4.9 -0.5,9.7 -1.6,14.3 -1,4.6 -2.4,8.7 -4.2,12.3 -1.8,3.7 -3.8,6.5 -6.1,8.7 -2.2,2 -4.6,3.1 -7.1,3.1 -2.2,0 -4,-1 -5.2,-3 -1.3,-1.9 -1.8,-4.6 -1.8,-8.2 0,-3.8 0.5,-7.5 1.7,-11.1 1.2,-3.7 2.8,-7 4.8,-10.2 2.1,-3.2 4.5,-5.8 7.3,-8.2 2.7,-2.3 5.7,-3.9 8.9,-4.9 -1.1,-0.6 -2.3,-1.1 -3.7,-1.4 z"
       id="path5"
       style="fill:#ffffff;fill-opacity:1" /><path
       fill="#282828"
       d="m 128.4,59.1 c 1.8,2.7 3.2,6.3 4.4,10.7 1.1,4.5 2.1,9.4 3,14.6 0.9,5.3 1.8,10.5 2.7,15.8 0.9,5.3 1.9,10.2 3.1,14.8 0.1,0.5 0.5,0.9 1.1,1.1 0.6,0.3 1.4,0.4 2.1,0.4 1.4,0 2.8,-0.2 4.1,-0.5 1.4,-0.4 2.4,-0.7 2.9,-0.9 1.5,-4 3.4,-7.9 5.5,-11.9 2,-3.9 4.1,-7.8 6.3,-11.7 2.2,-3.8 4.2,-7.4 6,-10.8 1.8,-3.5 3.3,-6.6 4.5,-9.4 1.1,-2.8 1.7,-5.1 1.7,-7 0,-1.8 -0.6,-3.3 -1.9,-4.8 -1.1,-1.4 -3.1,-2.9 -6,-4.3 0,2.1 -0.3,4.7 -1.2,7.8 -0.9,3.2 -1.9,6.5 -3.4,10.1 -1.4,3.6 -3,7.3 -4.7,11.1 -1.8,3.7 -3.5,7.5 -5.3,11.1 -1.2,2.4 -2.4,4.7 -3.5,6.9 -0.6,-3.6 -1.2,-7 -1.6,-10.4 -0.7,-5.1 -1.3,-9.9 -1.7,-14.1 -0.4,-4.3 -0.9,-8 -1.5,-11.2 -0.6,-3.2 -1.4,-5.7 -2.5,-7.4 -1.1,-1.8 -2.7,-2.6 -4.7,-2.6 -1.9,0 -3.5,0.2 -4.9,0.7 -1.5,0.4 -2.9,1.1 -4.5,1.9 z"
       id="path6"
       style="fill:#ffffff;fill-opacity:1" /><path
       fill="#282828"
       d="m 118.1,61 c -2.8,-2.6 -6.6,-3.8 -11.6,-3.8 -4.3,0 -8.3,0.9 -12,2.6 -3.7,1.8 -6.8,4.2 -9.6,7.4 C 82.2,70.3 80,74 78.5,78.3 77,82.5 76.3,87 76.3,92 c 0,4.9 0.8,9.2 2.4,12.9 1.5,3.6 3.8,6.5 6.7,8.5 2.9,2 6.4,3 10.2,3 4.9,0 9.2,-1.1 13.2,-3.4 3.9,-2.4 7.2,-5.7 10,-10.1 0,-1.7 -1.2,-2.9 -3.7,-3.5 -4.3,6.5 -9.5,9.8 -15.5,9.8 -3.1,0 -5.6,-1.5 -7.2,-4.3 -1.6,-2.9 -2.5,-7 -2.5,-12.6 0,-1 0.1,-2 0.1,-3.1 1.3,0.3 2.8,0.5 4.2,0.7 1.8,0.3 3.6,0.4 5.5,0.4 4.5,0 8.4,-0.8 11.8,-2.4 3.3,-1.5 6,-3.7 7.8,-6.5 2,-2.8 2.9,-6.1 2.9,-9.7 0,-4.6 -1.4,-8.2 -4.1,-10.7 z m -16.9,2.7 c 4,-1.2 6.7,-0.4 8.1,2.5 1.4,2.8 0.9,6.6 -1.5,11.3 -1.5,2.5 -3.5,4.4 -6,5.6 -2.6,1.2 -6.5,1.9 -11.5,2.2 2,-11.7 5.6,-18.9 10.9,-21.6 z"
       id="path7"
       style="fill:#ffffff;fill-opacity:1" /><g
       id="g24"
       style="filter:url(#filter25)">&#10;		<path
   fill="#007dc5"
   d="m 50.5,50.5 h 0.3 z"
   id="path8" />&#10;		<g
   id="g11">&#10;			&#10;				<radialGradient
   id="radialGradient4"
   cx="0"
   cy="120.7998"
   r="819.20001"
   gradientTransform="matrix(0.0772,0,0,0.0772,22.4311,96.1996)"
   gradientUnits="userSpaceOnUse">&#10;				<stop
   offset="0"
   style="stop-color:#B7CFEB"
   id="stop1" />&#10;				<stop
   offset="0.3177"
   style="stop-color:#007DC5"
   id="stop2" />&#10;				<stop
   offset="0.5686"
   style="stop-color:#5172A0"
   id="stop3" />&#10;				<stop
   offset="0.8157"
   style="stop-color:#536993"
   id="stop4" />&#10;			</radialGradient>&#10;			<path
   fill="url(#SVGID_1_)"
   d="m 35.8,52.3 c -0.3,0.2 -0.7,0.2 -1,0.4 L 31.7,54 c -1.3,0.8 -2.6,1.6 -3.8,2.5 -1.3,0.9 -2.4,1.9 -3.5,3 -1,0.8 -1.8,1.8 -2.6,2.8 -1.2,1.4 -2.4,3 -3.4,4.7 -0.6,1.3 -1.3,2.4 -1.9,3.7 -0.6,1.3 -1.2,2.6 -1.7,4 -0.5,1.5 -1.1,2.9 -1.5,4.4 -0.5,1.6 -0.9,3.1 -1.4,4.7 -0.3,1.6 -0.6,3.3 -0.9,5 -0.2,1.8 -0.4,3.7 -0.4,5.6 -0.1,1.3 0,2.6 0.2,4 0.1,0.8 0.2,1.6 0.4,2.5 0.4,1.7 1.1,3.3 2,4.9 0.7,1.2 1.5,2.2 2.4,2.9 1.2,1.2 2.7,2.1 4.3,2.9 1.3,0.6 2.7,1.1 4.3,1.2 1.6,0.2 3,0 4.4,-0.4 1.7,-0.5 3.3,-1.3 4.6,-2.3 0.9,-0.6 1.8,-1.2 2.7,-1.9 1.2,-1 2.5,-2.2 3.5,-3.5 1.1,-1.5 2.1,-3 3,-4.7 0.6,-1.1 1.1,-2.4 1.5,-3.7 0.6,-1.4 1,-2.9 1.2,-4.4 0.4,-1.8 0.7,-3.6 0.9,-5.3 0.1,-0.9 0.3,-1.9 0.3,-2.9 0.1,-1 0.1,-2 0.2,-3 -3.6,18.2 -8.7,26.9 -15.3,26 -2.1,-0.5 -3.6,-2 -4.6,-4.3 -1.5,-3.9 -1.5,-10.1 0,-18.8 0.3,-1.5 0.6,-3.1 1,-4.8 3.6,-12.9 11.1,-21.6 22.5,-26.3 0.2,0 0.3,0 0.4,-0.1 1,-0.4 2.3,-0.6 4,-0.7 -1.3,-0.7 -2.6,-1.1 -4,-1.2 v 0 l -1.6,-0.3 c -1,-0.1 -2,-0.2 -3.1,-0.2 -2,0 -3.9,0.3 -5.8,0.8 -1.4,0.5 -2.8,1 -4.2,1.5 z"
   id="path11"
   style="fill:url(#SVGID_1_)" />&#10;		</g>&#10;		<g
   id="g17">&#10;			&#10;				<radialGradient
   id="radialGradient26"
   cx="0"
   cy="120.7998"
   r="819.20001"
   gradientTransform="matrix(0.1249,0,0,0.1249,66.9987,2.0904)"
   gradientUnits="userSpaceOnUse">&#10;				<stop
   offset="0"
   style="stop-color:#FFCB05"
   id="stop5" />&#10;				<stop
   offset="0.2745"
   style="stop-color:#EA3F2E"
   id="stop6" />&#10;				<stop
   offset="0.3686"
   style="stop-color:#D2442F"
   id="stop7" />&#10;				<stop
   offset="0.5333"
   style="stop-color:#A85741"
   id="stop24" />&#10;				<stop
   offset="0.7529"
   style="stop-color:#A15742"
   id="stop25" />&#10;				<stop
   offset="0.9569"
   style="stop-color:#D2442F"
   id="stop26" />&#10;			</radialGradient>&#10;			<path
   fill="url(#SVGID_2_)"
   d="M 63.2,3.5 C 59.9,1.1 55.1,0 49,0 c 9.1,6.9 13.1,19.3 12.1,37.3 -1.1,18 -3.4,35.7 -7,52.9 -2.5,12.8 1.2,22.3 11,28.6 -0.8,-5.6 -1.1,-11.4 -1.1,-17.4 0,-6.9 0.4,-13.9 1.2,-21 0.8,-7 1.8,-13.8 2.8,-20.5 1.2,-6.6 2.2,-12.8 3,-18.6 0.8,-5.7 1.2,-10.8 1.2,-15.3 0,-4.7 -0.7,-9 -2.1,-12.9 -1.3,-4 -3.6,-7.2 -6.9,-9.6 z"
   id="path17"
   style="fill:url(#SVGID_2_)" />&#10;		</g>&#10;		<g
   id="g23">&#10;			&#10;				<radialGradient
   id="radialGradient32"
   cx="0"
   cy="120.7998"
   r="819.20001"
   gradientTransform="matrix(0.095,0,0,0.095,11.8302,56.8941)"
   gradientUnits="userSpaceOnUse">&#10;				<stop
   offset="0"
   style="stop-color:#B7CFEB"
   id="stop27" />&#10;				<stop
   offset="0.3294"
   style="stop-color:#007DC5"
   id="stop28" />&#10;				<stop
   offset="0.4745"
   style="stop-color:#5172A0"
   id="stop29" />&#10;				<stop
   offset="0.6275"
   style="stop-color:#556A90"
   id="stop30" />&#10;				<stop
   offset="0.7373"
   style="stop-color:#536993"
   id="stop31" />&#10;				<stop
   offset="0.9569"
   style="stop-color:#138ECD"
   id="stop32" />&#10;			</radialGradient>&#10;			<path
   fill="url(#SVGID_3_)"
   d="M 11.4,60.4 C 7.8,64.5 5,69.3 3,74.8 1,80.1 0,85.9 0,92.2 c 0,6.2 0.9,11.2 2.8,14.9 1.9,3.9 4.3,6.6 7.3,8.2 3.1,1.8 6.3,2.6 9.6,2.6 3.4,0 6.7,-0.6 9.9,-1.9 3.1,-1.2 5.9,-3 8.5,-5.5 2.5,-2.5 4.7,-5.5 6.4,-9.1 l 0.6,0.2 c 0.2,2.7 0.8,5.3 1.9,7.9 1.3,2.7 3.3,4.9 6.1,6.6 2.9,1.8 6.9,2.7 12,2.7 C 55.3,112.5 51.6,103 54.1,90.2 57.7,73 60,55.3 61.1,37.3 62.1,19.3 58.1,6.9 49,0 c 0.9,2.8 1.5,6.1 1.8,9.7 0.2,3.6 0.4,7.6 0.4,11.9 0,3 -0.1,6.7 -0.2,11.3 -0.1,4.6 -0.4,9.4 -0.7,14.7 -0.1,0.4 -0.1,0.9 -0.1,1.4 -0.7,-0.2 -1.5,-0.5 -2.2,-0.6 -2.7,-0.6 -5.2,-0.9 -7.6,-0.9 -5.9,0 -11.3,1.1 -16.3,3.3 -4.8,2.3 -9.1,5.5 -12.7,9.6 z m 23.4,-7.7 c 0.3,-0.2 0.7,-0.2 1,-0.4 1.4,-0.5 2.8,-1 4.2,-1.5 1.9,-0.5 3.8,-0.8 5.8,-0.8 1.1,0 2.1,0.1 3.1,0.2 l 1.9,0.3 h -0.3 c 1.4,0.1 2.7,0.5 4,1.2 -1.7,0.1 -3,0.3 -4,0.7 -0.1,0.1 -0.2,0.1 -0.4,0.1 -1,11.4 -2.2,20.8 -3.6,28.2 -0.1,1 -0.1,2 -0.2,3 0,1 -0.2,2 -0.3,2.9 -0.2,1.7 -0.5,3.5 -0.9,5.3 -0.2,1.5 -0.6,3 -1.2,4.4 -0.4,1.3 -0.9,2.6 -1.5,3.7 -0.9,1.7 -1.9,3.2 -3,4.7 -1,1.3 -2.3,2.5 -3.5,3.5 -0.9,0.7 -1.8,1.3 -2.7,1.9 -1.3,1 -2.9,1.8 -4.6,2.3 -1.4,0.4 -2.8,0.6 -4.4,0.4 -1.6,-0.1 -3,-0.6 -4.3,-1.2 -1.6,-0.8 -3.1,-1.7 -4.3,-2.9 -0.9,-0.7 -1.7,-1.7 -2.4,-2.9 -0.9,-1.6 -1.6,-3.2 -2,-4.9 -0.2,-0.9 -0.3,-1.7 -0.4,-2.5 -0.2,-1.4 -0.3,-2.7 -0.2,-4 0,-1.9 0.2,-3.8 0.4,-5.6 0.3,-1.7 0.6,-3.4 0.9,-5 0.5,-1.6 0.9,-3.1 1.4,-4.7 0.4,-1.5 1,-2.9 1.5,-4.4 0.5,-1.4 1.1,-2.7 1.7,-4 0.6,-1.3 1.3,-2.4 1.9,-3.7 1,-1.7 2.2,-3.3 3.4,-4.7 0.8,-1 1.6,-2 2.6,-2.8 1.1,-1.1 2.2,-2.1 3.5,-3 1.2,-0.9 2.5,-1.7 3.8,-2.5 z"
   id="path23"
   style="fill:url(#SVGID_3_)" />&#10;		</g>&#10;	</g></g></g></svg>
