<?xml version="1.0" encoding="UTF-8" standalone="no"?>
<!-- Generator: Adobe Illustrator 24.2.1, SVG Export Plug-In . SVG Version: 6.00 Build 0)  -->

<svg
   version="1.1"
   id="Layer_1"
   x="0px"
   y="0px"
   viewBox="0 0 70.7 37.5"
   style="enable-background:new 0 0 70.7 37.5;"
   xml:space="preserve"
   sodipodi:docname="logo-header.svg"
   inkscape:version="1.3 (0e150ed6c4, 2023-07-21)"
   xmlns:inkscape="http://www.inkscape.org/namespaces/inkscape"
   xmlns:sodipodi="http://sodipodi.sourceforge.net/DTD/sodipodi-0.dtd"
   xmlns="http://www.w3.org/2000/svg"
   xmlns:svg="http://www.w3.org/2000/svg"><defs
   id="defs6155"><rect
     x="23.110474"
     y="-27.122709"
     width="41.486511"
     height="19.980931"
     id="rect1" /><rect
     x="32.399437"
     y="9.8162917"
     width="34.839324"
     height="12.369662"
     id="rect11373" /><rect
     x="32.342695"
     y="10.780898"
     width="36.201122"
     height="12.596629"
     id="rect11367" /><radialGradient
     id="Gradient_1"
     gradientUnits="userSpaceOnUse"
     cx="0"
     cy="0"
     r="85.45066650559258"
     fx="0"
     fy="0"
     gradientTransform="matrix( 0.003949647367325231, 0.9999922001124177, 0.9999922001124177, -0.003949647367325231, 97.75,223.65) "
     spreadMethod="reflect"><stop
       offset="23.529411764705884%"
       stop-color="#00CF00"
       id="stop594" /><stop
       offset="72.94117647058823%"
       stop-color="#009B00"
       id="stop596" /></radialGradient><radialGradient
     id="Gradient_2"
     gradientUnits="userSpaceOnUse"
     cx="0"
     cy="0"
     r="82.5006903380208"
     fx="0"
     fy="0"
     gradientTransform="matrix( 0.004090874859558134, 0.999991632336433, 0.999991632336433, -0.004090874859558134, 130.3,242.05) "
     spreadMethod="reflect"><stop
       offset="26.274509803921568%"
       stop-color="#008E00"
       id="stop599" /><stop
       offset="77.6470588235294%"
       stop-color="#00CF00"
       id="stop601" /></radialGradient><radialGradient
     id="radialGradient762"
     gradientUnits="userSpaceOnUse"
     cx="0"
     cy="0"
     r="85.45066650559258"
     fx="0"
     fy="0"
     gradientTransform="matrix( 0.003949647367325231, 0.9999922001124177, 0.9999922001124177, -0.003949647367325231, 97.75,223.65) "
     spreadMethod="reflect"><stop
       offset="23.529411764705884%"
       stop-color="#00CF00"
       id="stop758" /><stop
       offset="72.94117647058823%"
       stop-color="#009B00"
       id="stop760" /></radialGradient><radialGradient
     id="radialGradient768"
     gradientUnits="userSpaceOnUse"
     cx="0"
     cy="0"
     r="82.5006903380208"
     fx="0"
     fy="0"
     gradientTransform="matrix( 0.004090874859558134, 0.999991632336433, 0.999991632336433, -0.004090874859558134, 130.3,242.05) "
     spreadMethod="reflect"><stop
       offset="26.274509803921568%"
       stop-color="#008E00"
       id="stop764" /><stop
       offset="77.6470588235294%"
       stop-color="#00CF00"
       id="stop766" /></radialGradient><filter
     style="color-interpolation-filters:sRGB;"
     inkscape:label="Drop Shadow"
     id="filter25"
     x="-0.023268698"
     y="-0.014141414"
     width="1.0562327"
     height="1.0341751"><feColorMatrix
       values="1.5 0 0 0 -0.25 0 1.5 0 0 -0.25 0 0 1.5 0 -0.25 0 0 0 1 0"
       id="feColorMatrix25"
       result="fbSourceGraphic" /><feColorMatrix
       result="fbSourceGraphicAlpha"
       in="fbSourceGraphic"
       values="0 0 0 -1 0 0 0 0 -1 0 0 0 0 -1 0 0 0 0 1 0"
       id="feColorMatrix104" /><feFlood
       id="feFlood104"
       result="flood"
       in="fbSourceGraphic"
       flood-opacity="0.450980"
       flood-color="rgb(0,0,0)" /><feGaussianBlur
       id="feGaussianBlur104"
       result="blur"
       in="fbSourceGraphic"
       stdDeviation="0.700000" /><feOffset
       id="feOffset104"
       result="offset"
       in="blur"
       dx="0.700000"
       dy="0.700000" /><feComposite
       id="feComposite105"
       result="comp1"
       operator="in"
       in="flood"
       in2="offset" /><feComposite
       id="feComposite106"
       result="comp2"
       operator="over"
       in="fbSourceGraphic"
       in2="comp1" /></filter><radialGradient
     id="SVGID_1_"
     cx="0"
     cy="120.7998"
     r="819.20001"
     gradientTransform="matrix(0.0772,0,0,0.0772,22.4311,96.1996)"
     gradientUnits="userSpaceOnUse">&#10;				<stop
   offset="0"
   style="stop-color:#B7CFEB"
   id="stop8" />&#10;				<stop
   offset="0.3177"
   style="stop-color:#007DC5"
   id="stop9" />&#10;				<stop
   offset="0.5686"
   style="stop-color:#5172A0"
   id="stop10" />&#10;				<stop
   offset="0.8157"
   style="stop-color:#536993"
   id="stop11" />&#10;			</radialGradient><radialGradient
     id="SVGID_2_"
     cx="0"
     cy="120.7998"
     r="819.20001"
     gradientTransform="matrix(0.1249,0,0,0.1249,66.9987,2.0904)"
     gradientUnits="userSpaceOnUse">&#10;				<stop
   offset="0"
   style="stop-color:#FFCB05"
   id="stop12" />&#10;				<stop
   offset="0.2745"
   style="stop-color:#EA3F2E"
   id="stop13" />&#10;				<stop
   offset="0.3686"
   style="stop-color:#D2442F"
   id="stop14" />&#10;				<stop
   offset="0.5333"
   style="stop-color:#A85741"
   id="stop15" />&#10;				<stop
   offset="0.7529"
   style="stop-color:#A15742"
   id="stop16" />&#10;				<stop
   offset="0.9569"
   style="stop-color:#D2442F"
   id="stop17" />&#10;			</radialGradient><radialGradient
     id="SVGID_3_"
     cx="0"
     cy="120.7998"
     r="819.20001"
     gradientTransform="matrix(0.095,0,0,0.095,11.8302,56.8941)"
     gradientUnits="userSpaceOnUse">&#10;				<stop
   offset="0"
   style="stop-color:#B7CFEB"
   id="stop18" />&#10;				<stop
   offset="0.3294"
   style="stop-color:#007DC5"
   id="stop19" />&#10;				<stop
   offset="0.4745"
   style="stop-color:#5172A0"
   id="stop20" />&#10;				<stop
   offset="0.6275"
   style="stop-color:#556A90"
   id="stop21" />&#10;				<stop
   offset="0.7373"
   style="stop-color:#536993"
   id="stop22" />&#10;				<stop
   offset="0.9569"
   style="stop-color:#138ECD"
   id="stop23" />&#10;			</radialGradient><filter
     style="color-interpolation-filters:sRGB;"
     inkscape:label="Drop Shadow"
     id="filter92"
     x="-0.078994511"
     y="-0.036022266"
     width="1.1909034"
     height="1.0870538"><feFlood
       result="flood"
       in="SourceGraphic"
       flood-opacity="0.450980"
       flood-color="rgb(0,0,0)"
       id="feFlood91" /><feGaussianBlur
       result="blur"
       in="SourceGraphic"
       stdDeviation="0.700000"
       id="feGaussianBlur91" /><feOffset
       result="offset"
       in="blur"
       dx="0.700000"
       dy="0.700000"
       id="feOffset91" /><feComposite
       result="comp1"
       operator="in"
       in="flood"
       in2="offset"
       id="feComposite91" /><feComposite
       result="comp2"
       operator="over"
       in="SourceGraphic"
       in2="comp1"
       id="feComposite92" /></filter><filter
     style="color-interpolation-filters:sRGB;"
     inkscape:label="Drop Shadow"
     id="filter94"
     x="-0.07002314"
     y="-0.048208909"
     width="1.1692226"
     height="1.1165049"><feFlood
       result="flood"
       in="SourceGraphic"
       flood-opacity="0.450980"
       flood-color="rgb(0,0,0)"
       id="feFlood92" /><feGaussianBlur
       result="blur"
       in="SourceGraphic"
       stdDeviation="0.700000"
       id="feGaussianBlur92" /><feOffset
       result="offset"
       in="blur"
       dx="0.700000"
       dy="0.700000"
       id="feOffset92" /><feComposite
       result="comp1"
       operator="in"
       in="flood"
       in2="offset"
       id="feComposite93" /><feComposite
       result="comp2"
       operator="over"
       in="SourceGraphic"
       in2="comp1"
       id="feComposite94" /></filter><filter
     style="color-interpolation-filters:sRGB;"
     inkscape:label="Drop Shadow"
     id="filter96"
     x="-0.18754835"
     y="-0.19510042"
     width="1.4532418"
     height="1.4714927"><feFlood
       result="flood"
       in="SourceGraphic"
       flood-opacity="0.450980"
       flood-color="rgb(0,0,0)"
       id="feFlood94" /><feGaussianBlur
       result="blur"
       in="SourceGraphic"
       stdDeviation="0.700000"
       id="feGaussianBlur94" /><feOffset
       result="offset"
       in="blur"
       dx="0.700000"
       dy="0.700000"
       id="feOffset94" /><feComposite
       result="comp1"
       operator="in"
       in="flood"
       in2="offset"
       id="feComposite95" /><feComposite
       result="comp2"
       operator="over"
       in="SourceGraphic"
       in2="comp1"
       id="feComposite96" /></filter><filter
     style="color-interpolation-filters:sRGB;"
     inkscape:label="Drop Shadow"
     id="filter98"
     x="-0.17944442"
     y="-0.048611996"
     width="1.4336574"
     height="1.117479"><feFlood
       result="flood"
       in="SourceGraphic"
       flood-opacity="0.450980"
       flood-color="rgb(0,0,0)"
       id="feFlood96" /><feGaussianBlur
       result="blur"
       in="SourceGraphic"
       stdDeviation="0.700000"
       id="feGaussianBlur96" /><feOffset
       result="offset"
       in="blur"
       dx="0.700000"
       dy="0.700000"
       id="feOffset96" /><feComposite
       result="comp1"
       operator="in"
       in="flood"
       in2="offset"
       id="feComposite97" /><feComposite
       result="comp2"
       operator="over"
       in="SourceGraphic"
       in2="comp1"
       id="feComposite98" /></filter><filter
     style="color-interpolation-filters:sRGB;"
     inkscape:label="Drop Shadow"
     id="filter100"
     x="-0.055056767"
     y="-0.048208909"
     width="1.1330539"
     height="1.1165049"><feFlood
       result="flood"
       in="SourceGraphic"
       flood-opacity="0.450980"
       flood-color="rgb(0,0,0)"
       id="feFlood98" /><feGaussianBlur
       result="blur"
       in="SourceGraphic"
       stdDeviation="0.700000"
       id="feGaussianBlur98" /><feOffset
       result="offset"
       in="blur"
       dx="0.700000"
       dy="0.700000"
       id="feOffset98" /><feComposite
       result="comp1"
       operator="in"
       in="flood"
       in2="offset"
       id="feComposite99" /><feComposite
       result="comp2"
       operator="over"
       in="SourceGraphic"
       in2="comp1"
       id="feComposite100" /></filter><filter
     style="color-interpolation-filters:sRGB;"
     inkscape:label="Drop Shadow"
     id="filter102"
     x="-0.061329043"
     y="-0.047422461"
     width="1.1482119"
     height="1.1146043"><feFlood
       result="flood"
       in="SourceGraphic"
       flood-opacity="0.450980"
       flood-color="rgb(0,0,0)"
       id="feFlood100" /><feGaussianBlur
       result="blur"
       in="SourceGraphic"
       stdDeviation="0.700000"
       id="feGaussianBlur100" /><feOffset
       result="offset"
       in="blur"
       dx="0.700000"
       dy="0.700000"
       id="feOffset100" /><feComposite
       result="comp1"
       operator="in"
       in="flood"
       in2="offset"
       id="feComposite101" /><feComposite
       result="comp2"
       operator="over"
       in="SourceGraphic"
       in2="comp1"
       id="feComposite102" /></filter><filter
     style="color-interpolation-filters:sRGB;"
     inkscape:label="Drop Shadow"
     id="filter104"
     x="-0.063333251"
     y="-0.049104672"
     width="1.1530554"
     height="1.1186696"><feFlood
       result="flood"
       in="SourceGraphic"
       flood-opacity="0.450980"
       flood-color="rgb(0,0,0)"
       id="feFlood102" /><feGaussianBlur
       result="blur"
       in="SourceGraphic"
       stdDeviation="0.700000"
       id="feGaussianBlur102" /><feOffset
       result="offset"
       in="blur"
       dx="0.700000"
       dy="0.700000"
       id="feOffset102" /><feComposite
       result="comp1"
       operator="in"
       in="flood"
       in2="offset"
       id="feComposite103" /><feComposite
       result="comp2"
       operator="over"
       in="SourceGraphic"
       in2="comp1"
       id="feComposite104" /></filter></defs><sodipodi:namedview
   id="namedview6153"
   pagecolor="#ffffff"
   bordercolor="#000000"
   borderopacity="0.25"
   inkscape:showpageshadow="2"
   inkscape:pageopacity="0.0"
   inkscape:pagecheckerboard="true"
   inkscape:deskcolor="#d1d1d1"
   showgrid="false"
   inkscape:zoom="12.461882"
   inkscape:cx="33.823141"
   inkscape:cy="14.68478"
   inkscape:window-width="1844"
   inkscape:window-height="980"
   inkscape:window-x="216"
   inkscape:window-y="0"
   inkscape:window-maximized="0"
   inkscape:current-layer="g617"
   showguides="true"><sodipodi:guide
     position="5.9011236,45.670786"
     orientation="1,0"
     id="guide1"
     inkscape:locked="false" /><sodipodi:guide
     position="40.967416,38.861798"
     orientation="1,0"
     id="guide2"
     inkscape:locked="false" /></sodipodi:namedview>&#10;<style
   type="text/css"
   id="style6096">&#10;	.st0{fill:#FFFFFF;}&#10;	.st1{opacity:0.3;fill:#B2B2B2;}&#10;	.st2{opacity:0.6;fill:#FFFFFF;}&#10;	.st3{opacity:0.2;fill:#878787;}&#10;	.st4{opacity:0.17;fill:#FFFFFF;}&#10;	.st5{opacity:0.3;fill:#C6C6C6;}&#10;</style>&#10;&#10;&#10;&#10;&#10;&#10;&#10;&#10;<g
   id="g617"
   transform="matrix(0.34090727,0,0,0.34090727,-20.034128,-59.670759)"><path
     fill="#282828"
     d="m 201.01862,214.65685 c 0,0.57792 0,1.27141 0,1.84933 0.0578,0.6935 0.0578,1.27142 0.0578,1.90712 0,2.71621 -0.17338,5.31683 -0.34675,7.68628 -1.27142,0 -2.42725,0.17338 -3.4675,0.34675 -1.15583,0.23117 -2.13829,0.7513 -2.774,1.44479 -0.6357,0.75129 -0.98245,1.90713 -0.98245,3.40971 0,0.23116 0,0.57791 0,0.86687 0.0578,0.34675 0.0578,0.63571 0.11558,0.98246 1.61817,-0.75129 3.12075,-1.32921 4.50775,-1.61817 0.6357,-0.17337 1.27141,-0.28895 1.90712,-0.40454 -0.28896,1.84933 -0.57792,3.58308 -0.92467,5.31683 -0.46233,2.54283 -0.92466,4.97008 -1.27141,7.33953 -0.40454,2.42725 -0.57792,4.73891 -0.57792,7.16616 0,1.84933 0.17338,3.4675 0.63571,4.7967 0.40454,1.32921 1.15583,2.48504 2.25387,3.35191 1.04025,0.92467 2.54283,1.67596 4.44995,2.19609 -0.28895,-0.57792 -0.52012,-1.44479 -0.6357,-2.71621 -0.17338,-1.21362 -0.23117,-2.60062 -0.23117,-4.21879 0,-2.65841 0.23117,-5.43241 0.63571,-8.32199 0.40454,-2.83178 0.86687,-5.72136 1.387,-8.61094 0.46233,-2.31167 0.86687,-4.50775 1.21362,-6.64604 1.15583,0 2.48504,0 3.87204,0 1.21362,0 2.19608,-0.34675 2.88958,-0.98245 0.69349,-0.57792 1.04024,-1.90713 1.04024,-3.75646 0,-0.28895 0,-0.57791 -0.0578,-0.86687 0,-0.28896 -0.0578,-0.57792 -0.11558,-0.80908 -0.86687,0.80908 -2.02271,1.27141 -3.4097,1.50258 -1.15584,0.23116 -2.36946,0.40454 -3.58308,0.40454 0.17337,-1.387 0.17337,-2.71621 0.17337,-3.98762 0,-2.31166 -0.52012,-4.04541 -1.56037,-5.31683 -1.09804,-1.27141 -2.83179,-2.08049 -5.20125,-2.31166 z"
     id="path1"
     style="fill:#f9f9f9;fill-opacity:1;stroke-width:0.577916;filter:url(#filter92)"
     transform="matrix(0.99096639,0,0,0.99356546,0.53278832,1.696626)" /><path
     fill="#282828"
     d="m 187.66877,227.89112 c -0.63571,-1.04024 -1.56038,-1.90712 -2.94737,-2.60062 -1.32921,-0.63571 -3.23633,-0.98245 -5.548,-0.98245 -2.42724,0 -4.44995,0.40454 -6.24149,1.21362 -1.79154,0.80908 -3.12075,1.90712 -4.1032,3.35191 -0.98246,1.387 -1.50258,2.94737 -1.50258,4.7967 0,1.61817 0.34675,3.00517 0.98245,4.161 0.63571,1.21362 1.50258,2.25387 2.48504,3.23633 1.04025,0.92466 2.0805,1.79154 3.17854,2.54283 1.15583,0.75129 2.25387,1.56037 3.23633,2.31166 1.04025,0.80908 1.84933,1.61817 2.48504,2.48504 0.6357,0.80908 0.92466,1.84933 0.92466,2.88958 0,0.92467 -0.23116,1.73375 -0.6935,2.36946 -0.52012,0.57791 -1.15583,1.09804 -1.90712,1.38699 -0.6935,0.34675 -1.44479,0.52013 -2.31166,0.46234 -1.67596,0.0578 -2.88958,-0.46234 -3.69867,-1.387 -0.75129,-0.98246 -1.15583,-2.0805 -1.15583,-3.35191 0,-0.6935 0.11559,-1.387 0.40454,-2.0805 0.23117,-0.75129 0.63571,-1.387 1.04025,-1.96492 -0.34675,-0.23116 -0.75129,-0.34675 -1.21362,-0.40454 -0.40454,0 -0.80908,0 -1.15583,0 -1.44479,0 -2.71621,0.46234 -3.75646,1.50258 -1.09804,1.09804 -1.67595,2.48504 -1.67595,4.21879 0.0578,1.96491 1.04025,3.64087 2.88958,5.02787 1.90712,1.387 4.62332,2.0805 8.2642,2.0805 2.36945,0 4.44995,-0.34675 6.35707,-1.15584 1.79154,-0.75129 3.23633,-1.84933 4.33437,-3.29412 0.98246,-1.38699 1.50258,-3.00516 1.50258,-4.91228 0,-1.44479 -0.28896,-2.71621 -0.98246,-3.81425 -0.69349,-1.09804 -1.56037,-2.08049 -2.54283,-3.00516 -1.04024,-0.92467 -2.08049,-1.79154 -3.23632,-2.54283 -1.15584,-0.80908 -2.25388,-1.61816 -3.35192,-2.42725 -0.98245,-0.80908 -1.84933,-1.73374 -2.54283,-2.65841 -0.63571,-0.92467 -0.92466,-2.0805 -0.92466,-3.23633 0,-0.92466 0.23116,-1.73375 0.6357,-2.36945 0.46234,-0.57792 1.04025,-1.09805 1.67596,-1.387 0.63571,-0.28896 1.387,-0.46234 2.0805,-0.46234 1.09804,0 1.96491,0.34675 2.83179,0.98246 0.86687,0.57792 1.21362,1.50258 1.15583,2.774 0,0.6935 -0.0578,1.387 -0.34675,2.19608 -0.23117,0.80908 -0.75129,1.50258 -1.44479,2.25387 0.40454,0.17338 0.86687,0.34675 1.387,0.46233 0.46233,0.17338 0.98245,0.23117 1.44479,0.23117 1.50258,-0.0578 2.65841,-0.63571 3.58308,-1.79154 0.86687,-1.09804 1.27141,-2.36946 1.21362,-3.81424 0.0578,-1.15584 -0.17338,-2.25388 -0.80908,-3.29413 z"
     id="path2"
     style="fill:#f9f9f9;fill-opacity:1;stroke-width:0.577916;filter:url(#filter94)"
     transform="matrix(0.99096639,0,0,0.99356546,0.53278832,1.696626)" /><path
     fill="#282828"
     d="m 226.79368,212.34519 c -0.63571,-0.17338 -1.27142,-0.23117 -1.96492,-0.23117 -0.6935,0 -1.3292,0.0578 -2.0227,0.17337 -0.6935,0.0578 -1.27142,0.17338 -1.84934,0.40454 -0.17337,0.80909 -0.40454,1.61817 -0.69349,2.36946 -0.17338,0.6935 -0.28896,1.44479 -0.28896,2.25387 0,0.92467 0.17337,1.61817 0.57791,2.13829 0.40454,0.52013 0.92467,0.80908 1.56038,0.98246 0.6357,0.23116 1.27141,0.28896 1.90712,0.28896 0.6935,0 1.32921,-0.0578 2.02271,-0.17338 0.6357,-0.11558 1.27141,-0.28896 1.84933,-0.40454 0.28895,-0.75129 0.46233,-1.50258 0.6935,-2.31166 0.23116,-0.75129 0.34674,-1.50258 0.34674,-2.31167 0,-0.92466 -0.28895,-1.61816 -0.6357,-2.08049 -0.40454,-0.57792 -0.92467,-0.86688 -1.50258,-1.09804 z"
     id="path3"
     style="fill:#f9f9f9;fill-opacity:1;stroke-width:0.577916;filter:url(#filter96)"
     transform="matrix(0.99096639,0,0,0.99356546,0.53278832,1.696626)" /><path
     fill="#282828"
     d="m 222.5171,224.30805 c -0.34675,0 -0.6935,0 -1.09804,0 -0.46234,0.0578 -0.80908,0.0578 -1.15583,0.11558 0.23116,0.98246 0.28895,1.90712 0.34675,2.88958 0.0578,1.04025 0.0578,1.96491 0.0578,3.00516 0,1.96492 -0.17338,4.04541 -0.46234,6.1837 -0.34675,2.19608 -0.6357,4.27658 -0.98245,6.35708 -0.28896,2.08049 -0.40454,3.92983 -0.40454,5.66357 0,1.84933 0.17337,3.4675 0.57791,4.79671 0.34675,1.38699 1.09804,2.48503 2.13829,3.35191 1.04025,0.92466 2.48504,1.61816 4.44995,2.19608 -0.23116,-0.57792 -0.40454,-1.32921 -0.52012,-2.36946 -0.17338,-0.98245 -0.17338,-2.19608 -0.17338,-3.58308 0,-3.64087 0.28896,-6.99278 0.7513,-10.17132 0.52012,-3.12074 0.98245,-5.95253 1.44479,-8.26419 0.40454,-2.36946 0.69349,-4.10321 0.69349,-5.20125 0,-1.79154 -0.40454,-3.00516 -1.27141,-3.81424 -0.86687,-0.80909 -2.31166,-1.15583 -4.39216,-1.15583 z"
     id="path4"
     style="fill:#f9f9f9;fill-opacity:1;stroke-width:0.577916;filter:url(#filter98)"
     transform="matrix(0.99096639,0,0,0.99356546,0.53278832,1.696626)" /><path
     fill="#282828"
     d="m 253.49339,226.15738 c -0.75129,-0.17338 -1.61816,-0.28896 -2.60062,-0.28896 -2.19608,0 -4.21879,0.57791 -6.24149,1.73375 -2.02271,1.15583 -3.75646,2.77399 -5.25904,4.73891 -1.50258,2.0227 -2.7162,4.33437 -3.58308,6.93499 -0.86687,2.60062 -1.27141,5.31682 -1.27141,8.2064 0,3.4675 0.6935,6.12591 2.19608,8.14862 1.44479,2.02271 3.4675,3.06295 6.01033,3.06295 1.73374,0 3.52528,-0.46233 5.20124,-1.38699 1.73375,-0.92467 3.23633,-2.19609 4.62333,-3.75646 1.3292,-1.61816 2.42724,-3.46749 3.23633,-5.4902 l 0.28895,0.11558 c 0,0.17338 0,0.28896 0,0.34675 0,0.11559 0,0.28896 0,0.57792 0,3.29412 0.57792,5.77916 1.84934,7.45511 1.21362,1.67596 3.29412,2.774 6.1837,3.35192 -0.6935,-1.50258 -1.15584,-2.83179 -1.387,-3.98762 -0.28896,-1.21363 -0.46234,-2.65842 -0.46234,-4.33437 0,-2.0805 0.17338,-4.21879 0.46234,-6.41487 0.28896,-2.13829 0.57791,-4.21879 0.98245,-6.1837 0.40455,-1.96491 0.6935,-3.69866 0.98246,-5.31683 0.23117,-1.56037 0.34675,-2.88958 0.34675,-3.87203 0,-1.61817 -0.46233,-2.83179 -1.32921,-3.58308 -0.86687,-0.75129 -2.31166,-1.15583 -4.21878,-1.15583 -0.63571,0 -1.09804,0 -1.387,0 -0.34675,0 -0.63571,0.0578 -1.04025,0.11558 0.17338,0.6935 0.23117,1.61816 0.28896,2.65841 0.11558,1.04025 0.17337,2.13829 0.17337,3.29412 0,2.83179 -0.28895,5.60579 -0.92466,8.2642 -0.57792,2.65841 -1.387,5.02787 -2.42725,7.10837 -1.04025,2.13829 -2.19608,3.75645 -3.52529,5.02787 -1.27141,1.15583 -2.65841,1.79154 -4.1032,1.79154 -1.27141,0 -2.31166,-0.57792 -3.00516,-1.73375 -0.75129,-1.09804 -1.04025,-2.65842 -1.04025,-4.73891 0,-2.19608 0.28896,-4.33437 0.98246,-6.41487 0.6935,-2.13829 1.61816,-4.04541 2.77399,-5.89474 1.21363,-1.84933 2.60062,-3.35191 4.21879,-4.73891 1.56037,-1.32921 3.29412,-2.25388 5.14345,-2.83179 -0.63571,-0.34675 -1.32921,-0.63571 -2.13829,-0.80908 z"
     id="path5"
     style="fill:#f9f9f9;fill-opacity:1;stroke-width:0.577916;filter:url(#filter100)"
     transform="matrix(0.99096639,0,0,0.99356546,0.53278832,1.696626)" /><path
     fill="#282828"
     d="m 134.15375,225.63725 c 1.04025,1.56038 1.84933,3.64087 2.54283,6.1837 0.63571,2.60062 1.21362,5.43241 1.73375,8.43758 0.52012,3.06295 1.04025,6.06811 1.56037,9.13107 0.52013,3.06295 1.09804,5.89474 1.79154,8.55315 0.0578,0.28896 0.28896,0.52013 0.63571,0.63571 0.34675,0.17338 0.80908,0.23117 1.21362,0.23117 0.80908,0 1.61817,-0.11559 2.36946,-0.28896 0.80908,-0.23117 1.387,-0.40454 1.67595,-0.52013 0.86688,-2.31166 1.96492,-4.56553 3.17854,-6.87719 1.15583,-2.25388 2.36946,-4.50775 3.64087,-6.76162 1.27142,-2.19608 2.42725,-4.27658 3.4675,-6.24149 1.04025,-2.02271 1.90712,-3.81425 2.60062,-5.43241 0.63571,-1.61817 0.98246,-2.94737 0.98246,-4.04542 0,-1.04024 -0.34675,-1.90712 -1.09804,-2.77399 -0.63571,-0.80908 -1.79154,-1.67596 -3.4675,-2.48504 0,1.21362 -0.17337,2.7162 -0.6935,4.50774 -0.52012,1.84934 -1.09804,3.75646 -1.96491,5.83696 -0.80909,2.08049 -1.73375,4.21878 -2.71621,6.41486 -1.04025,2.13829 -2.0227,4.33437 -3.06295,6.41487 -0.6935,1.387 -1.387,2.7162 -2.02271,3.98762 -0.34675,-2.0805 -0.6935,-4.04541 -0.92466,-6.01033 -0.40454,-2.94737 -0.75129,-5.72136 -0.98246,-8.14861 -0.23117,-2.48504 -0.52013,-4.62333 -0.86687,-6.47266 -0.34675,-1.84933 -0.80909,-3.29412 -1.44479,-4.27658 -0.63571,-1.04025 -1.56038,-1.50258 -2.71621,-1.50258 -1.09804,0 -2.02271,0.11558 -2.83179,0.40454 -0.86687,0.23117 -1.67595,0.63571 -2.60062,1.09804 z"
     id="path6"
     style="fill:#f9f9f9;fill-opacity:1;stroke-width:0.577916;filter:url(#filter102)"
     transform="matrix(0.99096639,0,0,0.99356546,0.53278832,1.696626)" /><path
     fill="#282828"
     d="m 128.20122,226.73529 c -1.61817,-1.50258 -3.81425,-2.19608 -6.70383,-2.19608 -2.48504,0 -4.7967,0.52013 -6.93499,1.50258 -2.13829,1.04025 -3.92983,2.42725 -5.54799,4.27658 -1.56038,1.79154 -2.83179,3.92983 -3.69866,6.41487 -0.86688,2.42725 -1.27142,5.02787 -1.27142,7.91745 0,2.83178 0.46233,5.31682 1.387,7.45511 0.86687,2.0805 2.19608,3.75646 3.87204,4.91229 1.67595,1.15583 3.69866,1.73375 5.89474,1.73375 2.83179,0 5.31682,-0.63571 7.62849,-1.96492 2.25387,-1.387 4.16099,-3.29412 5.77916,-5.83695 0,-0.98246 -0.6935,-1.67596 -2.13829,-2.02271 -2.48504,3.75646 -5.4902,5.66358 -8.9577,5.66358 -1.79154,0 -3.23633,-0.86687 -4.16099,-2.48504 -0.92467,-1.67595 -1.44479,-4.04541 -1.44479,-7.28174 0,-0.57791 0.0578,-1.15583 0.0578,-1.79154 0.75129,0.17338 1.61816,0.28896 2.42725,0.40454 1.04024,0.17338 2.08049,0.23117 3.17853,0.23117 2.60062,0 4.8545,-0.46233 6.81941,-1.387 1.90712,-0.86687 3.4675,-2.13829 4.50775,-3.75645 1.15583,-1.61817 1.67595,-3.52529 1.67595,-5.60579 0,-2.65841 -0.80908,-4.73891 -2.36945,-6.1837 z m -9.76678,1.56038 c 2.31166,-0.6935 3.87203,-0.23117 4.68112,1.44479 0.80908,1.61816 0.52012,3.81424 -0.86688,6.53045 -0.86687,1.44479 -2.0227,2.54283 -3.46749,3.23632 -1.50258,0.6935 -3.75646,1.09804 -6.64604,1.27142 1.15584,-6.76162 3.23633,-10.92261 6.29929,-12.48298 z"
     id="path7"
     style="fill:#f9f9f9;fill-opacity:1;stroke-width:0.577916;filter:url(#filter104)"
     transform="matrix(0.99096639,0,0,0.99356546,0.53278832,1.696626)" /><g
     id="g24"
     style="filter:url(#filter25)"
     transform="matrix(0.57269527,0,0,0.57419732,59.940573,191.94694)">&#10;		<path
   fill="#007dc5"
   d="m 50.5,50.5 h 0.3 z"
   id="path8" />&#10;		<g
   id="g11">&#10;			&#10;				<radialGradient
   id="radialGradient4"
   cx="0"
   cy="120.7998"
   r="819.20001"
   gradientTransform="matrix(0.0772,0,0,0.0772,22.4311,96.1996)"
   gradientUnits="userSpaceOnUse">&#10;				<stop
   offset="0"
   style="stop-color:#B7CFEB"
   id="stop1" />&#10;				<stop
   offset="0.3177"
   style="stop-color:#007DC5"
   id="stop2" />&#10;				<stop
   offset="0.5686"
   style="stop-color:#5172A0"
   id="stop3" />&#10;				<stop
   offset="0.8157"
   style="stop-color:#536993"
   id="stop4" />&#10;			</radialGradient>&#10;			<path
   fill="url(#SVGID_1_)"
   d="m 35.8,52.3 c -0.3,0.2 -0.7,0.2 -1,0.4 L 31.7,54 c -1.3,0.8 -2.6,1.6 -3.8,2.5 -1.3,0.9 -2.4,1.9 -3.5,3 -1,0.8 -1.8,1.8 -2.6,2.8 -1.2,1.4 -2.4,3 -3.4,4.7 -0.6,1.3 -1.3,2.4 -1.9,3.7 -0.6,1.3 -1.2,2.6 -1.7,4 -0.5,1.5 -1.1,2.9 -1.5,4.4 -0.5,1.6 -0.9,3.1 -1.4,4.7 -0.3,1.6 -0.6,3.3 -0.9,5 -0.2,1.8 -0.4,3.7 -0.4,5.6 -0.1,1.3 0,2.6 0.2,4 0.1,0.8 0.2,1.6 0.4,2.5 0.4,1.7 1.1,3.3 2,4.9 0.7,1.2 1.5,2.2 2.4,2.9 1.2,1.2 2.7,2.1 4.3,2.9 1.3,0.6 2.7,1.1 4.3,1.2 1.6,0.2 3,0 4.4,-0.4 1.7,-0.5 3.3,-1.3 4.6,-2.3 0.9,-0.6 1.8,-1.2 2.7,-1.9 1.2,-1 2.5,-2.2 3.5,-3.5 1.1,-1.5 2.1,-3 3,-4.7 0.6,-1.1 1.1,-2.4 1.5,-3.7 0.6,-1.4 1,-2.9 1.2,-4.4 0.4,-1.8 0.7,-3.6 0.9,-5.3 0.1,-0.9 0.3,-1.9 0.3,-2.9 0.1,-1 0.1,-2 0.2,-3 -3.6,18.2 -8.7,26.9 -15.3,26 -2.1,-0.5 -3.6,-2 -4.6,-4.3 -1.5,-3.9 -1.5,-10.1 0,-18.8 0.3,-1.5 0.6,-3.1 1,-4.8 3.6,-12.9 11.1,-21.6 22.5,-26.3 0.2,0 0.3,0 0.4,-0.1 1,-0.4 2.3,-0.6 4,-0.7 -1.3,-0.7 -2.6,-1.1 -4,-1.2 v 0 l -1.6,-0.3 c -1,-0.1 -2,-0.2 -3.1,-0.2 -2,0 -3.9,0.3 -5.8,0.8 -1.4,0.5 -2.8,1 -4.2,1.5 z"
   id="path11"
   style="fill:url(#SVGID_1_)" />&#10;		</g>&#10;		<g
   id="g17">&#10;			&#10;				<radialGradient
   id="radialGradient26"
   cx="0"
   cy="120.7998"
   r="819.20001"
   gradientTransform="matrix(0.1249,0,0,0.1249,66.9987,2.0904)"
   gradientUnits="userSpaceOnUse">&#10;				<stop
   offset="0"
   style="stop-color:#FFCB05"
   id="stop5" />&#10;				<stop
   offset="0.2745"
   style="stop-color:#EA3F2E"
   id="stop6" />&#10;				<stop
   offset="0.3686"
   style="stop-color:#D2442F"
   id="stop7" />&#10;				<stop
   offset="0.5333"
   style="stop-color:#A85741"
   id="stop24" />&#10;				<stop
   offset="0.7529"
   style="stop-color:#A15742"
   id="stop25" />&#10;				<stop
   offset="0.9569"
   style="stop-color:#D2442F"
   id="stop26" />&#10;			</radialGradient>&#10;			<path
   fill="url(#SVGID_2_)"
   d="M 63.2,3.5 C 59.9,1.1 55.1,0 49,0 c 9.1,6.9 13.1,19.3 12.1,37.3 -1.1,18 -3.4,35.7 -7,52.9 -2.5,12.8 1.2,22.3 11,28.6 -0.8,-5.6 -1.1,-11.4 -1.1,-17.4 0,-6.9 0.4,-13.9 1.2,-21 0.8,-7 1.8,-13.8 2.8,-20.5 1.2,-6.6 2.2,-12.8 3,-18.6 0.8,-5.7 1.2,-10.8 1.2,-15.3 0,-4.7 -0.7,-9 -2.1,-12.9 -1.3,-4 -3.6,-7.2 -6.9,-9.6 z"
   id="path17"
   style="fill:url(#SVGID_2_)" />&#10;		</g>&#10;		<g
   id="g23">&#10;			&#10;				<radialGradient
   id="radialGradient32"
   cx="0"
   cy="120.7998"
   r="819.20001"
   gradientTransform="matrix(0.095,0,0,0.095,11.8302,56.8941)"
   gradientUnits="userSpaceOnUse">&#10;				<stop
   offset="0"
   style="stop-color:#B7CFEB"
   id="stop27" />&#10;				<stop
   offset="0.3294"
   style="stop-color:#007DC5"
   id="stop28" />&#10;				<stop
   offset="0.4745"
   style="stop-color:#5172A0"
   id="stop29" />&#10;				<stop
   offset="0.6275"
   style="stop-color:#556A90"
   id="stop30" />&#10;				<stop
   offset="0.7373"
   style="stop-color:#536993"
   id="stop31" />&#10;				<stop
   offset="0.9569"
   style="stop-color:#138ECD"
   id="stop32" />&#10;			</radialGradient>&#10;			<path
   fill="url(#SVGID_3_)"
   d="M 11.4,60.4 C 7.8,64.5 5,69.3 3,74.8 1,80.1 0,85.9 0,92.2 c 0,6.2 0.9,11.2 2.8,14.9 1.9,3.9 4.3,6.6 7.3,8.2 3.1,1.8 6.3,2.6 9.6,2.6 3.4,0 6.7,-0.6 9.9,-1.9 3.1,-1.2 5.9,-3 8.5,-5.5 2.5,-2.5 4.7,-5.5 6.4,-9.1 l 0.6,0.2 c 0.2,2.7 0.8,5.3 1.9,7.9 1.3,2.7 3.3,4.9 6.1,6.6 2.9,1.8 6.9,2.7 12,2.7 C 55.3,112.5 51.6,103 54.1,90.2 57.7,73 60,55.3 61.1,37.3 62.1,19.3 58.1,6.9 49,0 c 0.9,2.8 1.5,6.1 1.8,9.7 0.2,3.6 0.4,7.6 0.4,11.9 0,3 -0.1,6.7 -0.2,11.3 -0.1,4.6 -0.4,9.4 -0.7,14.7 -0.1,0.4 -0.1,0.9 -0.1,1.4 -0.7,-0.2 -1.5,-0.5 -2.2,-0.6 -2.7,-0.6 -5.2,-0.9 -7.6,-0.9 -5.9,0 -11.3,1.1 -16.3,3.3 -4.8,2.3 -9.1,5.5 -12.7,9.6 z m 23.4,-7.7 c 0.3,-0.2 0.7,-0.2 1,-0.4 1.4,-0.5 2.8,-1 4.2,-1.5 1.9,-0.5 3.8,-0.8 5.8,-0.8 1.1,0 2.1,0.1 3.1,0.2 l 1.9,0.3 h -0.3 c 1.4,0.1 2.7,0.5 4,1.2 -1.7,0.1 -3,0.3 -4,0.7 -0.1,0.1 -0.2,0.1 -0.4,0.1 -1,11.4 -2.2,20.8 -3.6,28.2 -0.1,1 -0.1,2 -0.2,3 0,1 -0.2,2 -0.3,2.9 -0.2,1.7 -0.5,3.5 -0.9,5.3 -0.2,1.5 -0.6,3 -1.2,4.4 -0.4,1.3 -0.9,2.6 -1.5,3.7 -0.9,1.7 -1.9,3.2 -3,4.7 -1,1.3 -2.3,2.5 -3.5,3.5 -0.9,0.7 -1.8,1.3 -2.7,1.9 -1.3,1 -2.9,1.8 -4.6,2.3 -1.4,0.4 -2.8,0.6 -4.4,0.4 -1.6,-0.1 -3,-0.6 -4.3,-1.2 -1.6,-0.8 -3.1,-1.7 -4.3,-2.9 -0.9,-0.7 -1.7,-1.7 -2.4,-2.9 -0.9,-1.6 -1.6,-3.2 -2,-4.9 -0.2,-0.9 -0.3,-1.7 -0.4,-2.5 -0.2,-1.4 -0.3,-2.7 -0.2,-4 0,-1.9 0.2,-3.8 0.4,-5.6 0.3,-1.7 0.6,-3.4 0.9,-5 0.5,-1.6 0.9,-3.1 1.4,-4.7 0.4,-1.5 1,-2.9 1.5,-4.4 0.5,-1.4 1.1,-2.7 1.7,-4 0.6,-1.3 1.3,-2.4 1.9,-3.7 1,-1.7 2.2,-3.3 3.4,-4.7 0.8,-1 1.6,-2 2.6,-2.8 1.1,-1.1 2.2,-2.1 3.5,-3 1.2,-0.9 2.5,-1.7 3.8,-2.5 z"
   id="path23"
   style="fill:url(#SVGID_3_)" />&#10;		</g>&#10;	</g><text
     xml:space="preserve"
     transform="matrix(2.933349,0,0,2.933349,58.767089,175.03516)"
     id="text1"
     style="font-size:12px;font-family:sans-serif;-inkscape-font-specification:'sans-serif, ';white-space:pre;shape-inside:url(#rect1);fill:#f9f9f9"><tspan
       sodipodi:role="line"
       id="tspan1"
       style="font-style:normal;font-variant:normal;font-weight:normal;font-stretch:normal;font-family:Playball;-inkscape-font-specification:Playball">evstia</tspan></text></g></svg>
