<?xml version="1.0" encoding="UTF-8" standalone="no"?>
<svg
   viewBox="0 0 119.9 144"
   style="enable-background:new 0 0 119.9 144"
   xml:space="preserve"
   version="1.1"
   id="svg768"
   sodipodi:docname="logo.svg"
   inkscape:version="1.2.2 (b0a8486, 2022-12-01)"
   xmlns:inkscape="http://www.inkscape.org/namespaces/inkscape"
   xmlns:sodipodi="http://sodipodi.sourceforge.net/DTD/sodipodi-0.dtd"
   xmlns="http://www.w3.org/2000/svg"
   xmlns:svg="http://www.w3.org/2000/svg"><style
   id="style3693" /><defs
   id="defs772"><linearGradient
     id="linearGradient1550"
     inkscape:swatch="gradient"><stop
       style="stop-color:#009900;stop-opacity:1;"
       offset="0"
       id="stop1546" /><stop
       style="stop-color:#009900;stop-opacity:0;"
       offset="0.56862748"
       id="stop1548" /></linearGradient><linearGradient
     id="linearGradient1534"
     inkscape:swatch="gradient"><stop
       style="stop-color:#009900;stop-opacity:1;"
       offset="0"
       id="stop1530" /><stop
       style="stop-color:#009900;stop-opacity:0;"
       offset="1"
       id="stop1532" /></linearGradient><filter
     style="color-interpolation-filters:sRGB;"
     inkscape:label="Drop Shadow"
     id="filter6035"
     x="-0.032866227"
     y="-0.036008274"
     width="1.074862"
     height="1.0641887"><feFlood
       flood-opacity="0.698039"
       flood-color="rgb(0,0,0)"
       result="flood"
       id="feFlood6025" /><feComposite
       in="flood"
       in2="SourceGraphic"
       operator="in"
       result="composite1"
       id="feComposite6027" /><feGaussianBlur
       in="composite1"
       stdDeviation="12"
       result="blur"
       id="feGaussianBlur6029" /><feOffset
       dx="8"
       dy="-8"
       result="offset"
       id="feOffset6031" /><feComposite
       in="SourceGraphic"
       in2="offset"
       operator="over"
       result="composite2"
       id="feComposite6033" /></filter></defs><sodipodi:namedview
   id="namedview770"
   pagecolor="#ffffff"
   bordercolor="#000000"
   borderopacity="0.25"
   inkscape:showpageshadow="2"
   inkscape:pageopacity="0.0"
   inkscape:pagecheckerboard="0"
   inkscape:deskcolor="#d1d1d1"
   showgrid="false"
   inkscape:zoom="3.9930535"
   inkscape:cx="7.6382648"
   inkscape:cy="74.504386"
   inkscape:window-width="1782"
   inkscape:window-height="947"
   inkscape:window-x="0"
   inkscape:window-y="25"
   inkscape:window-maximized="0"
   inkscape:current-layer="svg768" />
  <linearGradient
   id="a"
   gradientUnits="userSpaceOnUse"
   x1="-52.291"
   y1="-474.658"
   x2="23.383"
   y2="-474.658"
   gradientTransform="rotate(-68.572 440.536 -230.667) scale(.9999)">
    <stop
   offset="0"
   style="stop-color:#2a255c"
   id="stop574" />
    <stop
   offset=".5"
   style="stop-color:#672783"
   id="stop576" />
    <stop
   offset=".647"
   style="stop-color:#652782"
   id="stop578" />
    <stop
   offset=".755"
   style="stop-color:#60277d"
   id="stop580" />
    <stop
   offset=".85"
   style="stop-color:#562674"
   id="stop582" />
    <stop
   offset=".937"
   style="stop-color:#4a2568"
   id="stop584" />
    <stop
   offset="1"
   style="stop-color:#3f245d"
   id="stop586" />
  </linearGradient>
  
  <linearGradient
   id="b"
   gradientUnits="userSpaceOnUse"
   x1="-52.291"
   y1="-474.658"
   x2="23.383"
   y2="-474.658"
   gradientTransform="rotate(-68.572 440.536 -230.667) scale(.9999)">
    <stop
   offset="0"
   style="stop-color:#20254b"
   id="stop591" />
    <stop
   offset=".129"
   style="stop-color:#3c2758;stop-opacity:.8714"
   id="stop593" />
    <stop
   offset=".295"
   style="stop-color:#5a2867;stop-opacity:.7045"
   id="stop595" />
    <stop
   offset=".466"
   style="stop-color:#732673;stop-opacity:.5343"
   id="stop597" />
    <stop
   offset=".638"
   style="stop-color:#86237b;stop-opacity:.3619"
   id="stop599" />
    <stop
   offset=".814"
   style="stop-color:#922180;stop-opacity:.1857"
   id="stop601" />
    <stop
   offset="1"
   style="stop-color:#952081;stop-opacity:0"
   id="stop603" />
  </linearGradient>
  
  <linearGradient
   id="c"
   gradientUnits="userSpaceOnUse"
   x1="-52.291"
   y1="-473.336"
   x2="10.502"
   y2="-473.336"
   gradientTransform="rotate(-68.572 440.536 -230.667) scale(.9999)">
    <stop
   offset="0"
   style="stop-color:#952081;stop-opacity:0"
   id="stop608" />
    <stop
   offset=".013"
   style="stop-color:#962081;stop-opacity:1.289326e-02"
   id="stop610" />
    <stop
   offset=".228"
   style="stop-color:#a02985;stop-opacity:.2279"
   id="stop612" />
    <stop
   offset=".498"
   style="stop-color:#a52e86;stop-opacity:.4982"
   id="stop614" />
    <stop
   offset="1"
   style="stop-color:#a72f87"
   id="stop616" />
  </linearGradient>
  
  <linearGradient
   id="d"
   gradientUnits="userSpaceOnUse"
   x1="-58.722"
   y1="-507.943"
   x2="67.436"
   y2="-507.943"
   gradientTransform="rotate(-68.572 440.536 -230.667) scale(.9999)">
    <stop
   offset="0"
   style="stop-color:#2271b8"
   id="stop621" />
    <stop
   offset=".5"
   style="stop-color:#3aabe2"
   id="stop623" />
    <stop
   offset="1"
   style="stop-color:#71c7d7"
   id="stop625" />
  </linearGradient>
  
  <linearGradient
   id="e"
   gradientUnits="userSpaceOnUse"
   x1="-22.171"
   y1="-396.168"
   x2="-22.171"
   y2="-436.435"
   gradientTransform="rotate(-68.572 440.536 -230.667) scale(.9999)">
    <stop
   offset="0"
   style="stop-color:#d70953"
   id="stop630" />
    <stop
   offset=".5"
   style="stop-color:#a21a5c"
   id="stop632" />
    <stop
   offset="1"
   style="stop-color:#a21a5c"
   id="stop634" />
  </linearGradient>
  
  <linearGradient
   id="f"
   gradientUnits="userSpaceOnUse"
   x1="-21.967"
   y1="-396.168"
   x2="-21.967"
   y2="-436.435"
   gradientTransform="rotate(-68.572 440.536 -230.667) scale(.9999)">
    <stop
   offset="0"
   style="stop-color:#d70953"
   id="stop639" />
    <stop
   offset=".995"
   style="stop-color:#3a1e3e"
   id="stop641" />
  </linearGradient>
  
  <linearGradient
   id="g"
   gradientUnits="userSpaceOnUse"
   x1="-38.382"
   y1="-440.96"
   x2="32.63"
   y2="-440.96"
   gradientTransform="rotate(-68.572 440.536 -230.667) scale(.9999)">
    <stop
   offset="0"
   style="stop-color:#e72273"
   id="stop646" />
    <stop
   offset=".5"
   style="stop-color:#d70953"
   id="stop648" />
    <stop
   offset="1"
   style="stop-color:#a21a5c"
   id="stop650" />
  </linearGradient>
  
  <linearGradient
   id="h"
   gradientUnits="userSpaceOnUse"
   x1="-38.382"
   y1="-440.96"
   x2="32.729"
   y2="-440.96"
   gradientTransform="rotate(-68.572 440.536 -230.667) scale(.9999)">
    <stop
   offset="0"
   style="stop-color:#e72273;stop-opacity:0"
   id="stop655" />
    <stop
   offset=".221"
   style="stop-color:#e72871;stop-opacity:.4418"
   id="stop657" />
    <stop
   offset=".5"
   style="stop-color:#e72a70"
   id="stop659" />
    <stop
   offset=".601"
   style="stop-color:#e42a6f;stop-opacity:.7974"
   id="stop661" />
    <stop
   offset=".707"
   style="stop-color:#db276c;stop-opacity:.5856"
   id="stop663" />
    <stop
   offset=".815"
   style="stop-color:#cb2367;stop-opacity:.3694"
   id="stop665" />
    <stop
   offset=".924"
   style="stop-color:#b51e61;stop-opacity:.1515"
   id="stop667" />
    <stop
   offset="1"
   style="stop-color:#a21a5c;stop-opacity:0"
   id="stop669" />
  </linearGradient>
  
  <linearGradient
   id="i"
   gradientUnits="userSpaceOnUse"
   x1="-58.722"
   y1="-507.943"
   x2="65.881"
   y2="-507.943"
   gradientTransform="rotate(-68.572 440.536 -230.667) scale(.9999)">
    <stop
   offset="0"
   style="stop-color:#046ab3"
   id="stop674" />
    <stop
   offset=".451"
   style="stop-color:#198fcf"
   id="stop676" />
    <stop
   offset="1"
   style="stop-color:#009ac6"
   id="stop678" />
  </linearGradient>
  
  <linearGradient
   id="j"
   gradientUnits="userSpaceOnUse"
   x1="-38.382"
   y1="-440.96"
   x2="29.004"
   y2="-440.96"
   gradientTransform="rotate(-68.572 440.536 -230.667) scale(.9999)">
    <stop
   offset="0"
   style="stop-color:#e72273;stop-opacity:0"
   id="stop683" />
    <stop
   offset=".258"
   style="stop-color:#cf1f6a;stop-opacity:.2583"
   id="stop685" />
    <stop
   offset=".566"
   style="stop-color:#b71c62;stop-opacity:.566"
   id="stop687" />
    <stop
   offset=".824"
   style="stop-color:#a81b5e;stop-opacity:.8243"
   id="stop689" />
    <stop
   offset="1"
   style="stop-color:#a21a5c"
   id="stop691" />
  </linearGradient>
  
  <linearGradient
   id="k"
   gradientUnits="userSpaceOnUse"
   x1="-35.675"
   y1="-440.96"
   x2="32.729"
   y2="-440.96"
   gradientTransform="rotate(-68.572 440.536 -230.667) scale(.9999)">
    <stop
   offset="0"
   style="stop-color:#e72273;stop-opacity:0"
   id="stop696" />
    <stop
   offset=".018"
   style="stop-color:#e93e7d;stop-opacity:3.596431e-02"
   id="stop698" />
    <stop
   offset=".069"
   style="stop-color:#ee779c;stop-opacity:.1371"
   id="stop700" />
    <stop
   offset=".121"
   style="stop-color:#f3a1b8;stop-opacity:.2429"
   id="stop702" />
    <stop
   offset=".176"
   style="stop-color:#f7c1d0;stop-opacity:.3515"
   id="stop704" />
    <stop
   offset=".232"
   style="stop-color:#fad9e2;stop-opacity:.4634"
   id="stop706" />
    <stop
   offset=".29"
   style="stop-color:#fdeaf0;stop-opacity:.5798"
   id="stop708" />
    <stop
   offset=".351"
   style="stop-color:#fef6f9;stop-opacity:.7026"
   id="stop710" />
    <stop
   offset=".418"
   style="stop-color:#fffdfe;stop-opacity:.8361"
   id="stop712" />
    <stop
   offset=".5"
   style="stop-color:#fff"
   id="stop714" />
    <stop
   offset=".56"
   style="stop-color:#fdfcfc;stop-opacity:.8808"
   id="stop716" />
    <stop
   offset=".622"
   style="stop-color:#f8f1f4;stop-opacity:.7561"
   id="stop718" />
    <stop
   offset=".686"
   style="stop-color:#efdfe6;stop-opacity:.6287"
   id="stop720" />
    <stop
   offset=".75"
   style="stop-color:#e4c5d1;stop-opacity:.4995"
   id="stop722" />
    <stop
   offset=".816"
   style="stop-color:#d5a4b6;stop-opacity:.3689"
   id="stop724" />
    <stop
   offset=".881"
   style="stop-color:#c47b96;stop-opacity:.2371"
   id="stop726" />
    <stop
   offset=".947"
   style="stop-color:#b24a74;stop-opacity:.1069"
   id="stop728" />
    <stop
   offset="1"
   style="stop-color:#a21a5c;stop-opacity:0"
   id="stop730" />
  </linearGradient>
  
  <linearGradient
   id="l"
   gradientUnits="userSpaceOnUse"
   x1="-25.224"
   y1="-453.727"
   x2="40.939"
   y2="-568.325"
   gradientTransform="rotate(-68.572 440.536 -230.667) scale(.9999)">
    <stop
   offset="0"
   style="stop-color:#2271b8;stop-opacity:0"
   id="stop735" />
    <stop
   offset=".01"
   style="stop-color:#2d75ba;stop-opacity:1.914263e-02"
   id="stop737" />
    <stop
   offset=".111"
   style="stop-color:#799ace;stop-opacity:.2215"
   id="stop739" />
    <stop
   offset=".207"
   style="stop-color:#adbcdd;stop-opacity:.415"
   id="stop741" />
    <stop
   offset=".297"
   style="stop-color:#d1d8e9;stop-opacity:.5948"
   id="stop743" />
    <stop
   offset=".379"
   style="stop-color:#ebedf0;stop-opacity:.7577"
   id="stop745" />
    <stop
   offset=".449"
   style="stop-color:#fbfaf4;stop-opacity:.8981"
   id="stop747" />
    <stop
   offset=".5"
   style="stop-color:#fffef5"
   id="stop749" />
    <stop
   offset=".613"
   style="stop-color:#fefdf5;stop-opacity:.7737"
   id="stop751" />
    <stop
   offset=".696"
   style="stop-color:#f6faf3;stop-opacity:.6085"
   id="stop753" />
    <stop
   offset=".769"
   style="stop-color:#e9f4f0;stop-opacity:.4627"
   id="stop755" />
    <stop
   offset=".836"
   style="stop-color:#d6eceb;stop-opacity:.328"
   id="stop757" />
    <stop
   offset=".899"
   style="stop-color:#bbe1e5;stop-opacity:.2011"
   id="stop759" />
    <stop
   offset=".959"
   style="stop-color:#96d3de;stop-opacity:8.162302e-02"
   id="stop761" />
    <stop
   offset="1"
   style="stop-color:#71c7d7;stop-opacity:0"
   id="stop763" />
  </linearGradient>
  
<g
   id="g74"
   transform="matrix(0.13333333,0,0,-0.13333333,2.123617,141.47149)"
   style="display:inline;filter:url(#filter6035)"><path
     d="m 321.39653,774.72641 c 8.38349,2.03401 13.86833,2.38401 16.95751,1.0821 0.27635,3.52075 0.0853,6.51466 -0.0739,9.00958 -1.23083,11.43683 -6.82168,20.59939 -16.74393,26.97646 -21.43698,14.15556 -43.30952,27.28531 -65.11818,39.41409 L 208.5117,817.1036 91.136075,576.73086 c 2.15091,-2.36382 4.30605,-4.73138 5.96222,-7.13078 1.65616,-2.3994 2.81308,-4.82665 3.970255,-7.25789 3.53097,-8.28796 3.07405,-16.8304 -1.434185,-24.63334 -7.61955,-14.00566 -19.772167,-19.79132 -35.423969,-17.784 -0.339778,-2.52676 -0.14892,-5.51768 -0.488698,-8.04445 0.159207,-2.49492 0.318414,-4.98985 0.976352,-7.44894 0.658192,-2.46308 1.316385,-4.92617 2.972547,-7.32557 6.217042,-11.12266 16.2986,-19.99464 29.183318,-25.68165 17.031415,-7.92748 32.661395,-17.44744 47.424765,-29.02677 8.95612,-6.93974 15.45315,-14.53741 19.48311,-22.79353 l 63.40265,128.748 c -3.31233,4.7988 -6.18909,10.62342 -8.09574,17.01097 -1.94274,6.89027 -0.45601,14.9974 4.95493,24.35698 4.88011,9.82673 15.10033,14.48303 30.59647,14.97487 l 56.74549,115.30076 c -3.28048,4.29981 -6.12142,6.11025 -8.49926,11.96771 -2.37804,5.86045 -2.96758,15.25516 0.0814,24.48763 2.91602,8.64531 12.47092,16.23755 18.44884,18.27555"
     style="display:inline;mix-blend-mode:normal;fill:#005a00;fill-opacity:1;fill-rule:evenodd;stroke:none;stroke-opacity:1"
     id="path86"
     sodipodi:nodetypes="cccccccsccccccccccccccccc" /><path
     style="display:inline;fill:#005a00;fill-opacity:1;fill-rule:evenodd;stroke:none;stroke-width:0.0125217;stroke-miterlimit:1;stroke-opacity:1"
     d="M 9.9869058,108.52559 C 6.258686,103.54366 4.8786769,101.14706 3.5198404,97.294497 0.69067547,89.273277 0.90761632,74.856052 3.9968888,65.591318 5.0479151,62.439289 7.3392433,57.65911 9.1789048,54.780572 c 1.4765802,-2.31042 5.3425832,-7.349376 8.1163072,-10.57881 2.13015,-2.480124 7.627536,-7.8887 8.018235,-7.8887 0.282766,0 0.01366,0.575834 -6.84668,14.650442 -5.996856,12.303094 -6.115491,12.520299 -6.794017,12.438792 -1.129409,-0.135666 -3.2239914,1.045906 -3.8599408,2.177426 -0.9065964,1.613072 -0.6354208,4.53877 0.5086223,5.487495 0.2999361,0.24873 0.3569594,0.669939 0.2578492,1.90464 -0.235957,2.939525 0.82729,4.693519 4.1794523,6.894666 1.22195,0.802376 3.105387,1.893251 4.185415,2.424165 2.923793,1.437266 4.751646,3.483377 5.18113,5.799792 0.150212,0.810162 0.146187,0.813914 -0.873082,0.813914 -1.263261,0 -2.741371,0.796758 -3.331535,1.795826 -0.242655,0.410783 -0.495382,1.38625 -0.561614,2.167702 -0.09949,1.173828 -0.01197,1.631438 0.503427,2.632376 l 0.623851,1.211557 -3.420551,7.014845 -3.420551,7.01486 z"
     id="path1587"
     transform="matrix(7.5000002,0,0,-7.5000002,-15.927128,1061.0362)" /><path
     style="display:inline;fill:#005a00;fill-opacity:1;fill-rule:evenodd;stroke:none;stroke-width:0.0125217;stroke-miterlimit:1;stroke-opacity:1"
     d="m 47.539749,32.468303 c -0.896686,-1.022584 -1.803061,-1.666007 -3.881741,-2.755592 -2.952378,-1.547554 -5.194347,-2.896338 -5.051605,-3.03908 0.253057,-0.253058 17.81773,-8.399083 17.910433,-8.306379 0.12715,0.127149 -7.492042,15.442976 -7.680118,15.438301 -0.06992,-0.0017 -0.653556,-0.603501 -1.296969,-1.33725 z"
     id="path1591"
     transform="matrix(7.5000002,0,0,-7.5000002,-15.927128,1061.0362)" /><path
     style="display:inline;fill:#005a00;fill-opacity:1;fill-rule:evenodd;stroke:none;stroke-width:0.0125217;stroke-miterlimit:1;stroke-opacity:1"
     d="M 70.622645,24.069065 C 69.865079,23.823424 68.318274,23.15344 67.185299,22.580213 64.24323,21.091675 61.680564,20.285228 59.892476,20.285228 h -1.500982 l 0.793833,-1.746319 0.793834,-1.74632 2.379132,-0.763145 c 3.643846,-1.168823 19.230042,-5.260743 20.038265,-5.260743 0.124925,0 -0.247359,1.008678 -0.827299,2.241506 l -1.054435,2.241506 -1.024959,0.01241 c -1.52684,0.01848 -3.093472,0.95295 -3.782705,2.256311 -0.750046,1.418357 -0.728891,2.611453 0.0749,4.224455 0.733449,1.471841 0.652172,1.727202 -0.763564,2.399013 -1.082654,0.513752 -2.663636,0.486837 -4.395853,-0.07484 z"
     id="path1593"
     transform="matrix(7.5000002,0,0,-7.5000002,-15.927128,1061.0362)" /><path
     style="display:inline;fill:#005a00;fill-opacity:1;fill-rule:evenodd;stroke:none;stroke-width:0.0125217;stroke-miterlimit:1;stroke-opacity:1"
     d="m 21.590115,140.20504 c -1.490034,-0.41849 -1.494305,-0.61666 -0.297993,-13.82362 0.272643,-3.0099 0.495715,-5.72879 0.495715,-6.04197 0,-0.42587 -0.764521,-1.18786 -3.032564,-3.02252 -1.66791,-1.3492 -3.58025,-2.98656 -4.249643,-3.63857 l -1.217078,-1.18547 3.596305,-7.34903 3.596304,-7.349027 1.115902,-0.161586 c 2.448725,-0.354583 3.958829,-1.844415 4.144996,-4.089349 0.09232,-1.113306 -0.0046,-1.546556 -0.583838,-2.610884 L 24.463692,89.656935 25.80045,86.838924 C 26.535667,85.289018 28.73674,80.7397 30.691724,76.72933 l 3.554515,-7.291583 1.390999,-0.115352 c 3.375801,-0.279949 4.940678,-3.739963 3.08335,-6.81743 l -0.583849,-0.967397 3.54984,-7.275129 c 3.80076,-7.789365 3.541991,-7.435486 5.700855,-7.79622 1.138072,-0.190165 2.399642,-1.208368 2.858817,-2.307329 0.505335,-1.209435 0.423674,-3.010325 -0.1944,-4.287095 l -0.536003,-1.10723 0.573929,-1.413578 c 1.022125,-2.517482 6.079253,-12.604603 6.673044,-13.310286 1.543681,-1.834561 3.483897,-1.684848 9.101561,0.702302 6.845498,2.908901 8.48046,2.945575 11.865764,0.266163 0.896502,-0.709567 1.458004,-0.967414 2.106693,-0.967414 0.486427,0 1.346311,-0.270689 1.910849,-0.601531 2.125576,-1.24567 2.75829,-3.87377 1.480055,-6.147694 l -0.66795,-1.188256 1.481863,-2.980829 1.481866,-2.980828 1.252175,-0.3115246 C 93.201436,8.2324509 114.24122,4.7940896 116.0004,5.0551335 c 0.3601,0.053435 -3.04722,2.2269139 -10.59037,6.7554305 -12.244504,7.35097 -14.171763,8.634741 -21.390625,14.248559 -12.709228,9.883456 -23.482545,19.810746 -30.016347,27.659166 -3.478874,4.178837 -9.143867,11.595977 -11.189572,14.650442 -5.593722,8.352052 -9.717638,16.926312 -12.225707,25.419143 -3.579528,12.121006 -5.333134,24.109006 -5.760378,39.379086 -0.156697,5.60048 -0.208306,6.10786 -0.665585,6.54351 -0.641361,0.61103 -1.541037,0.78405 -2.571701,0.49457 z"
     id="path1595"
     transform="matrix(7.5000002,0,0,-7.5000002,-15.927128,1061.0362)" /><path
     style="display:inline;fill:#005a00;fill-opacity:1;fill-rule:evenodd;stroke:none;stroke-width:0.0125217;stroke-miterlimit:1;stroke-opacity:1"
     d="m 78.511345,64.509935 c -0.550957,-0.17556 -2.128697,-0.887369 -3.506089,-1.581797 -3.130254,-1.578154 -5.508829,-2.322889 -7.418965,-2.322889 H 66.105306 L 72.73619,47.394807 c 3.646987,-7.265743 6.847414,-13.557161 7.112061,-13.98093 0.581892,-0.931759 14.06599,-11.359124 17.195277,-13.297251 2.561531,-1.586486 14.183882,-8.374785 14.597212,-8.525835 0.23589,-0.0862 -0.86855,1.186779 -2.4543,2.828851 -7.41728,7.680704 -11.718602,15.585972 -13.88823,25.524726 -0.608555,2.787687 -0.886365,3.462654 -3.837973,9.324716 -3.08206,6.121148 -3.205512,6.319968 -3.933235,6.334474 -0.99348,0.01981 -2.537666,0.5835 -3.172654,1.158156 -1.381156,1.249928 -1.764968,3.988451 -0.790476,5.640095 l 0.538248,0.912261 -0.541474,0.492556 c -0.29781,0.270905 -0.787629,0.619335 -1.088488,0.774287 -0.713733,0.367596 -2.695925,0.332074 -3.960813,-0.07098 z"
     id="path1597"
     transform="matrix(7.5000002,0,0,-7.5000002,-15.927128,1061.0362)" /><path
     style="display:inline;fill:#005a00;fill-opacity:1;fill-rule:evenodd;stroke:none;stroke-width:0.0125217;stroke-miterlimit:1;stroke-opacity:1"
     d="m 33.574563,117.82963 c -0.03592,-5.66422 1.463714,-16.50292 3.378372,-24.417408 2.514807,-10.395285 6.763848,-21.280121 10.558147,-27.04697 1.328811,-2.019625 5.15881,-6.663551 9.810741,-11.895659 4.784926,-5.381691 17.347672,-17.699248 17.69615,-17.350771 0.05447,0.05447 -2.831299,5.896577 -6.412827,12.982452 l -6.511868,12.883409 -1.093136,0.04231 c -3.32959,0.128862 -5.181516,3.625141 -3.539217,6.681741 l 0.652699,1.214783 -3.715379,7.298211 c -3.645338,7.160628 -3.731617,7.30117 -4.576799,7.455122 -1.185721,0.215983 -2.540352,0.839155 -3.051217,1.403653 -0.591094,0.653151 -1.191075,2.453222 -1.191075,3.573478 0,0.568122 0.23049,1.274952 0.587111,1.800462 l 0.587111,0.865157 -6.583848,13.13153 -6.583849,13.13154 z"
     id="path1599"
     transform="matrix(7.5000002,0,0,-7.5000002,-15.927128,1061.0362)" /><path
     style="display:inline;fill:#005a00;fill-opacity:1;fill-rule:evenodd;stroke:none;stroke-width:0.0125217;stroke-miterlimit:1;stroke-opacity:1"
     d="m 49.586112,121.98688 c -0.757565,-0.24688 -2.567904,-1.06618 -4.022974,-1.82069 -2.785529,-1.44439 -4.623763,-1.9697 -7.146458,-2.04222 l -1.527688,-0.0439 5.96107,-11.77044 5.961071,-11.770441 1.373109,-0.126893 c 1.671384,-0.154458 2.581053,-0.767713 3.362589,-2.266899 0.741753,-1.422871 0.660108,-3.377696 -0.189042,-4.526232 l -0.568439,-0.768856 3.718614,-7.612957 3.718613,-7.612957 h 0.948684 c 1.328955,0 2.432983,-0.522639 3.378249,-1.599238 0.727649,-0.828744 0.810002,-1.081168 0.810002,-2.482752 0,-1.074902 -0.153772,-1.847119 -0.494359,-2.48258 l -0.494358,-0.922367 0.637201,-0.501223 c 1.636913,-1.287596 4.099084,-0.865728 9.241955,1.583513 4.038203,1.923154 4.337736,2.019051 6.311373,2.020611 l 1.803545,0.0014 -7.062678,13.960323 -7.062678,13.960322 -1.259059,0.0015 c -1.454122,0.0018 -2.092937,0.371485 -3.141245,1.818635 -0.947535,1.308034 -0.980821,2.720294 -0.104854,4.448921 l 0.628757,1.2408 -2.633376,5.26219 -2.633375,5.26211 h -0.900144 c -3.060704,0 -4.98397,3.32795 -3.656961,6.32787 l 0.505246,1.14219 -0.539889,0.50573 c -1.434217,1.34346 -2.671227,1.54814 -4.922501,0.81451 z"
     id="path1601"
     transform="matrix(7.5000002,0,0,-7.5000002,-15.927128,1061.0362)" /><path
     style="display:inline;fill:#005a00;fill-opacity:1;fill-rule:evenodd;stroke:none;stroke-width:0.0125217;stroke-miterlimit:1;stroke-opacity:1"
     d="M 84.647,96.330265 C 83.613956,96.021601 81.585433,95.19162 80.139172,94.485862 77.3366,93.118244 75.674881,92.660917 73.508145,92.660917 h -1.347241 l 7.105201,-14.086964 7.105201,-14.086963 1.491053,-0.125218 c 1.748708,-0.146855 2.26308,-0.526619 3.16516,-2.336858 0.807926,-1.621297 0.80016,-2.715961 -0.02931,-4.131343 l -0.660968,-1.127856 1.713621,-3.455409 c 0.942492,-1.900475 1.749441,-3.41959 1.793221,-3.37581 0.177459,0.17746 -1.379786,18.813632 -2.325113,27.825544 -0.87412,8.333084 -2.376186,17.255391 -3.151504,18.72001 -0.312006,0.589396 -1.392097,0.545913 -3.720467,-0.149785 z"
     id="path1603"
     transform="matrix(7.5000002,0,0,-7.5000002,-15.927128,1061.0362)" /><path
     style="display:inline;fill:#005a00;fill-opacity:1;fill-rule:evenodd;stroke:none;stroke-width:0.0125217;stroke-miterlimit:1;stroke-opacity:1"
     d="m 41.947848,128.0765 c -2.105279,-0.30064 -3.97888,-0.69538 -6.073047,-1.27952 -2.238785,-0.62447 -2.316523,-0.67046 -2.316523,-1.37041 0,-0.88685 1.23823,-3.39309 2.040986,-4.13107 0.86257,-0.79297 2.405224,-1.13316 3.871684,-0.85381 1.664895,0.31716 1.787829,0.3642 5.385865,2.06112 3.602995,1.69926 5.265956,2.20657 7.247086,2.2108 1.655182,0.004 3.719762,-0.91264 4.488065,-1.99162 0.428333,-0.60154 0.705285,-0.71432 1.980702,-0.80657 1.66231,-0.12024 2.997496,-0.9256 3.660672,-2.20804 0.602261,-1.16464 0.477364,-3.19223 -0.277642,-4.50732 l -0.646998,-1.12696 2.586118,-5.19652 c 2.582893,-5.19004 2.587151,-5.19653 3.412842,-5.19653 2.607684,0 4.79928,-2.3093 4.470188,-4.710278 -0.08403,-0.613104 -0.378332,-1.479669 -0.653996,-1.925701 -0.646089,-1.045396 -0.645846,-1.046673 0.312709,-1.631115 1.676085,-1.021929 4.371459,-0.542345 8.448076,1.503155 2.725826,1.367722 5.388167,2.256114 6.761141,2.256114 h 0.944278 l -0.583136,1.606515 c -1.765245,4.8632 -4.324923,9.20529 -7.46422,12.66188 -4.09414,4.50795 -7.977471,7.54078 -12.972017,10.131 -3.818845,1.98049 -6.723213,2.9135 -11.725435,3.7667 -3.714708,0.63361 -10.792818,1.03872 -12.897398,0.73818 z"
     id="path1605"
     transform="matrix(7.5000002,0,0,-7.5000002,-15.927128,1061.0362)" /></g><g
   id="g5249"
   transform="matrix(0.13333333,0,0,-0.13333333,2.123617,141.47149)"
   style="display:inline"><path
     d="m 478.48625,950.01915 c -10.81448,-3.19518 -21.62995,-6.39043 -32.44442,-9.58561 -3.89661,-1.7477 -8.3198,-3.03199 -12.71514,-4.81551 l -13.74188,-27.9198 c 17.29754,3.60488 40.18941,-1.94457 69.23554,-17.61864 17.62592,-9.3926 32.97333,-14.42144 45.47181,-14.1249 10.50654,0.16943 19.2298,4.73021 25.17556,13.62291 -4.21477,3.23816 -7.02811,8.06881 -8.87108,13.45838 -3.5668,8.78669 -3.10988,17.32913 1.39861,25.12807 3.51426,7.73951 9.67991,13.13912 18.53029,15.70795 5.86045,2.37804 11.84428,2.75988 17.45649,1.11394 l 18.12694,37.71596 c -19.2298,-4.7302 -37.96036,-9.4326 -57.1909,-14.16687 -12.37112,-2.29248 -22.21972,-4.921 -30.5751,-7.45825 -8.35139,-2.53699 -14.2397,-4.41578 -18.16789,-5.66848 l -21.68883,-5.38915"
     style="mix-blend-mode:normal;fill:#008200;fill-opacity:1;fill-rule:evenodd;stroke:none"
     id="path5229" /><path
     d="m 274.20408,862.86096 -3.86452,-2.25068 c 14.63575,-9.57939 29.17649,-17.66982 44.18019,-25.22668 11.32368,-4.78459 20.81063,-12.19147 27.89818,-21.25451 2.71781,-3.33368 5.46747,-7.16636 8.21687,-10.99504 L 412.292,927.76654 274.20408,862.86096"
     style="display:inline;mix-blend-mode:normal;fill:#009600;fill-opacity:1;fill-rule:evenodd;stroke:none"
     id="path5231" /><path
     d="m 690.04101,695.58111 -30.19602,-60.52282 c 1.06165,-0.93429 3.8429,-5.26196 8.30841,-12.49226 3.97026,-7.25789 3.54518,-16.29932 -1.80207,-26.65687 -5.88208,-9.89066 -11.51591,-15.75735 -17.46789,-16.63818 -5.95598,-0.88108 -11.93981,-1.26292 -17.52417,-0.11622 L 523.80107,365.45337 c 2.46308,0.65819 4.48687,0.28632 7.01364,-0.0535 18.4863,0.67864 35.79407,-3.7281 52.39417,-12.68514 17.19137,-10.41835 35.62447,-16.75734 55.33145,-19.50492 2.46308,0.65819 5.45699,0.84924 8.44691,1.04003 0.46714,0.53083 0.93429,1.06165 0.90244,1.56064 8.50149,31.59052 14.44417,64.0228 18.79836,97.85676 2.83182,26.22257 5.66769,52.44439 8.46748,79.16894 5.68906,59.961 10.31778,120.85137 14.88549,182.74489"
     style="display:inline;fill:#005a00;fill-opacity:1;fill-rule:nonzero;stroke:none"
     id="path5233" /><path
     d="M 552.79996,789.99384 537.10538,776.97193 C 476.47402,722.51922 420.08795,664.33429 368.51122,601.44508 c -4.6356,-5.80699 -9.30729,-11.11127 -13.97474,-16.41928 -12.94917,-16.85084 -24.33771,-34.60413 -33.63452,-53.73101 -17.32002,-34.65834 -31.5504,-70.62557 -43.25528,-106.92866 -21.6742,-68.49231 -35.20544,-138.97007 -41.0651,-211.96039 -0.14873,-5.52068 -0.7967,-11.0692 -0.94543,-16.58988 -0.70117,-12.56616 -0.89963,-25.09623 -1.10181,-37.63055 l 101.21297,203.28016 c -8.61634,9.4665 -11.21701,18.81586 -8.32885,28.51547 2.88417,9.69936 5.99522,15.90608 9.32891,18.6239 3.3297,2.71756 6.72707,4.4374 10.15628,5.65826 2.39567,1.65192 5.35773,2.34195 8.3198,3.03199 2.98992,0.19079 5.98383,0.38184 9.00959,0.0739 l 57.37159,113.34065 c -6.96025,7.0681 -10.59605,16.78333 -10.52653,25.66067 0.0707,9.03384 4.20987,17.90758 10.90017,23.4438 4.83582,4.61484 10.59159,6.68808 14.54789,7.43755 3.46105,0.72187 7.94793,1.00819 13.53203,-0.13452 l 102.74177,202.8767"
     style="display:inline;fill:#008200;fill-opacity:1;fill-rule:nonzero;stroke:none"
     id="path5235"
     sodipodi:nodetypes="ccccccccccccccccscccc" /><path
     d="M 180.3567,795.27429 C 155.53465,776.15875 133.36348,754.7113 113.34721,730.90027 101.67641,717.63311 90.532385,703.89955 79.918929,689.70284 71.577364,679.15421 64.202228,669.16827 57.326076,659.21417 52.314862,651.37914 47.307285,643.54835 42.327657,635.21832 34.676525,621.70765 28.054914,607.76467 21.932479,593.85053 11.892069,570.67208 4.9089984,546.6907 1.0435664,520.90019 c -6.1554043,-36.952 -7.7920356,-74.11566 -5.9000327,-111.55517 0.7321622,-11.47366 1.9593467,-22.91474 3.7212558,-34.8227 4.6909659,-34.2548 16.1730585,-65.07414 34.5097265,-93.45302 5.530901,-8.16034 11.588736,-16.78807 17.650463,-25.41555 6.588662,-9.09488 13.64836,-17.65868 20.735907,-26.72172 l 52.703844,108.03262 c -10.20882,11.423 -11.70537,24.32134 -8.31123,36.02785 1.65668,7.5915 7.25841,14.3312 15.51852,18.36141 1.46112,0.59426 4.75223,1.46172 6.21735,2.05623 4.49086,0.28658 8.97774,0.57289 13.50045,0.36048 0.18057,5.02169 -0.60474,9.47673 -1.88928,13.90391 -1.84702,5.39032 -4.12953,9.75382 -7.909,14.02179 -7.64996,10.02518 -16.63818,17.46789 -26.40122,21.35003 -14.44496,6.58948 -28.482861,14.70799 -41.622012,24.38689 -10.952416,6.81636 -18.57089,16.34654 -23.326456,28.05946 -1.189018,2.93023 -1.879052,5.8923 -1.602703,9.41305 0.02136,7.51661 1.07273,14.59494 2.12416,21.67226 -6.769388,4.07718 -11.599517,12.36489 -11.83263,23.86939 -0.2647,11.9995 2.131819,16.07954 8.883387,24.68058 6.566389,5.2746 12.853235,8.17188 16.809382,8.92535 3.461054,0.72187 7.979869,0.50921 12.566005,-0.69718 L 180.3567,795.27429"
     style="display:inline;mix-blend-mode:normal;fill:#009600;fill-opacity:1;fill-rule:evenodd;stroke:none"
     id="path5237"
     sodipodi:nodetypes="ccccccccccccccccccccccccccccc" /><path
     d="m 321.39653,774.72641 c 8.38349,2.03401 13.86833,2.38401 16.95751,1.0821 0.27635,3.52075 0.0853,6.51466 -0.0739,9.00958 -1.23083,11.43683 -6.82168,20.59939 -16.74393,26.97646 -21.43698,14.15556 -43.30952,27.28531 -65.11818,39.41409 L 208.5117,817.1036 91.136075,576.73086 c 2.15091,-2.36382 4.30605,-4.73138 5.96222,-7.13078 1.65616,-2.3994 2.81308,-4.82665 3.970255,-7.25789 3.53097,-8.28796 3.07405,-16.8304 -1.434185,-24.63334 -7.61955,-14.00566 -19.772167,-19.79132 -35.423969,-17.784 -0.339778,-2.52676 -0.14892,-5.51768 -0.488698,-8.04445 0.159207,-2.49492 0.318414,-4.98985 0.976352,-7.44894 0.658192,-2.46308 1.316385,-4.92617 2.972547,-7.32557 6.217042,-11.12266 16.2986,-19.99464 29.183318,-25.68165 17.031415,-7.92748 32.661395,-17.44744 47.424765,-29.02677 8.95612,-6.93974 15.45315,-14.53741 19.48311,-22.79353 l 63.40265,128.748 c -3.31233,4.7988 -6.18909,10.62342 -8.09574,17.01097 -1.94274,6.89027 -0.45601,14.9974 4.95493,24.35698 4.88011,9.82673 15.10033,14.48303 30.59647,14.97487 l 56.74549,115.30076 c -3.28048,4.29981 -6.12142,6.11025 -8.49926,11.96771 -2.37804,5.86045 -2.96758,15.25516 0.0814,24.48763 2.91602,8.64531 12.47092,16.23755 18.44884,18.27555"
     style="display:inline;mix-blend-mode:normal;fill:#009600;fill-opacity:1;fill-rule:evenodd;stroke:none"
     id="path5239"
     sodipodi:nodetypes="cccccccsccccccccccccccccc" /><path
     d="m 234.60733,125.63589 0.70003,-10.97019 c 26.66735,-9.81777 54.57718,-15.55203 83.6663,-16.19696 4.5227,-0.21242 9.04541,-0.42483 13.0333,-0.17035 2.52677,-0.33978 5.02169,-0.18057 7.01364,-0.0535 10.44285,1.1674 20.91755,1.83582 30.86142,2.97137 10.44285,1.16741 20.35488,2.80195 30.26715,4.4326 6.45197,0.91273 12.8751,2.32464 19.79321,3.76814 5.95199,0.88083 11.84429,2.75988 18.23158,4.67052 5.8923,1.87905 11.7806,3.75785 18.1363,6.16358 5.89229,1.87905 11.74876,4.25684 17.07439,7.10176 11.15448,5.71846 22.77587,11.97124 33.8667,18.68716 10.59283,6.68415 21.15257,13.87122 31.1499,22.02042 8.99936,8.08552 17.99872,16.17103 26.99782,24.26054 8.43669,9.05165 16.40624,17.57247 24.37578,26.09329 11.61117,14.26438 21.6629,29.42829 30.12095,45.99655 3.94582,8.76507 8.39462,17.56224 12.34045,26.32731 3.45083,8.73349 6.86583,17.96571 9.81767,26.66735 -14.99341,-0.45575 -33.8658,4.85318 -56.13862,16.45133 -20.24821,11.22932 -36.62543,16.69347 -49.12391,16.39693 -11.56819,0.76485 -19.85615,-2.76612 -25.86534,-10.66483 4.24636,-3.73316 7.02786,-8.06482 8.87089,-13.45539 3.03597,-8.31955 3.04645,-16.33515 -0.9949,-23.60327 -4.04534,-7.26837 -9.24361,-12.10924 -16.07045,-15.04595 -7.32257,-2.97236 -14.27253,-3.91687 -20.85087,-2.8336 l -39.9274,-80.67544 c 4.24661,-3.73715 7.55469,-8.53222 9.4019,-13.92553 3.03598,-8.31955 3.07804,-16.83014 -0.86778,-25.59522 -4.0135,-7.76735 -10.67689,-13.20273 -19.49542,-16.27055 -6.39154,-1.9069 -12.40695,-1.79375 -18.051,0.35118 -8.15437,-13.53878 -19.70908,-20.78934 -35.14179,-22.27515 -15.46055,-0.98658 -34.3608,4.82159 -56.66838,16.91753 -37.87514,20.62186 -63.00721,22.02022 -75.85686,3.67267 l -10.66666,-21.21434"
     style="display:inline;fill:#005a00;fill-opacity:1;fill-rule:nonzero;stroke:none"
     id="path5241" /><path
     d="m 603.60773,558.85425 c -12.80642,-3.32229 -24.87459,-2.58934 -36.69726,2.16341 -9.7633,3.88613 -19.55818,8.26726 -28.38719,13.21504 -10.3894,5.84624 -21.68124,10.13185 -34.43844,13.82693 -8.70165,2.95185 -17.21199,2.90579 -25.56463,0.37273 -5.88831,-1.8788 -10.71895,-4.69214 -13.92553,-9.4019 6.90075,-6.07287 9.96457,-14.89166 9.67085,-25.92877 -0.18083,-5.0177 -1.42305,-9.1051 -3.22794,-12.22638 -3.14283,-5.70873 -7.40682,-9.48795 -12.7367,-12.32914 -4.35951,-2.28225 -8.78669,-3.5668 -12.24375,-4.28842 -4.49087,-0.28657 -7.98376,-0.50946 -11.00552,-0.20127 L 378.2387,409.74945 c 9.64715,-9.90174 12.84233,-20.71622 9.61713,-32.93841 -2.08098,-6.64602 -5.25572,-11.85477 -9.98685,-16.16481 -5.20252,-4.83713 -11.52612,-7.74574 -19.03875,-7.72412 -3.02575,0.30794 -6.0515,0.61587 -9.07326,0.92407 L 259.04745,174.27504 c 24.90943,2.09054 48.32939,-3.93023 69.70269,-17.08782 10.45308,-6.84421 22.276,-11.60095 35.99509,-14.72963 9.14094,-1.92178 16.55804,-0.44644 22.75453,4.45412 4.33166,2.7815 8.16034,5.5309 11.92959,9.27453 -11.8013,12.26937 -10.56941,30.51676 -5.70847,38.32713 1.80489,3.12128 5.80583,7.2556 8.13881,9.90555 7.7266,6.15882 16.97887,8.59872 26.15165,6.17795 l 40.39055,81.20602 c -11.52495,15.79011 -13.81769,28.16522 -6.9417,38.12031 6.38106,9.92251 12.54571,15.32205 17.99871,16.17103 5.457,0.84925 11.44083,1.23109 17.49233,0.61522 l 106.6565,212.1448"
     style="display:inline;fill:#006e00;fill-opacity:1;fill-rule:nonzero;stroke:none"
     id="path5243"
     sodipodi:nodetypes="ccccccccccccccccccccccccccccc" /><path
     d="m 817.9778,966.67276 23.19693,21.01294 -131.77565,-77.52225 c -1.90041,-1.62433 -3.82893,-2.74541 -5.29405,-3.33992 l -9.56177,-7.12338 c -2.3994,-1.65617 -4.79905,-3.30834 -7.19446,-4.96425 l -18.62581,-14.21099 c -6.69922,-4.93664 -13.3947,-9.86904 -19.59094,-14.77359 -8.59584,-6.55772 -17.19173,-13.11444 -25.29238,-19.64357 l -34.38334,-26.23087 c -1.43327,-1.09349 -2.36756,-2.15515 -3.80083,-3.24864 -1.39744,-1.59223 -2.79887,-3.18471 -4.13687,-5.77116 l -42.29197,-82.83041 -0.46714,-0.53083 -60.82243,-122.07413 c 17.29829,3.60893 39.69143,-1.97635 68.20573,-17.18334 18.1886,-10.35873 33.03701,-15.41941 45.0415,-15.15439 10.96969,0.7 19.6927,5.26477 26.13744,14.18931 -4.7135,3.20233 -7.52684,8.03297 -8.87082,13.45439 -2.00616,7.88424 -1.51766,15.93169 1.96103,24.16594 3.98165,8.26634 10.14631,13.66588 18.4977,16.20287 5.39331,1.84721 11.37714,2.22905 17.45649,1.11394 l 48.91728,96.77663 c 4.60487,29.84283 12.76638,58.90958 24.42079,88.19922 7.80011,19.02735 17.16087,37.15226 27.58321,54.34389 8.18196,13.04352 16.92659,25.12092 26.20204,36.73117 4.60501,6.30206 9.24461,12.10931 14.41129,17.44517 9.83812,10.64412 19.70809,20.78926 30.07703,30.96625"
     style="display:inline;fill:#006e00;fill-opacity:1;fill-rule:nonzero;stroke:none"
     id="path5245" /><path
     d="m 870.67986,1027.6297 c -10.94283,-1.1993 -21.85283,-2.8975 -32.79492,-4.0928 -3.98789,-0.2544 -7.97977,-0.5092 -11.93582,-1.2626 -22.35082,-2.9294 -44.70164,-5.8587 -67.02162,-9.287 -14.36706,-2.4199 -28.73811,-4.84 -44.1034,-7.3195 -12.34327,-2.7917 -24.2154,-5.0524 -35.62438,-6.7824 -12.37511,-2.2928 -24.71938,-5.0846 -36.03309,-8.3076 l -17.32913,-3.1099 c -0.46715,-0.5308 -1.46512,-0.5945 -2.42725,-1.1569 l -22.9792,-48.0419 c 3.68394,-2.77102 6.93259,-6.57186 9.21085,-10.93162 1.70465,-2.9453 2.57972,-6.0924 3.30134,-10.28955 0.85684,-5.49801 -0.46755,-10.56432 -3.54277,-17.26977 -4.51223,-7.80319 -10.64504,-13.70171 -18.96459,-16.73769 -6.39128,-1.91089 -12.37511,-2.29274 -18.52214,-0.17991 -8.11853,-14.0375 -19.67325,-21.28806 -35.10595,-22.77387 -15.42871,-1.48556 -34.32896,4.3226 -56.63654,16.41854 -28.48372,14.71194 -49.81495,19.35894 -63.93127,12.94696 -4.42345,-1.2803 -8.19244,-5.02793 -12.26563,-11.79706 L 351.3023,769.11951 c 4.17868,-2.73544 7.42732,-6.53627 9.24244,-11.4266 1.71984,-3.39737 2.40988,-6.35944 2.60067,-9.34936 0.88108,-5.95598 -0.23396,-12.03633 -3.3766,-17.74806 -3.94583,-8.76507 -10.11448,-14.16487 -18.93301,-17.23269 -5.42116,-1.34797 -11.44082,-1.23108 -17.02119,-0.0841 l -56.24925,-115.27309 0.53082,-0.46715 c 4.21452,-3.23417 7.55869,-8.53196 9.46933,-14.91925 2.9683,-7.32183 2.47954,-15.36528 -1.46603,-24.13435 -4.0135,-7.76736 -10.17916,-13.16696 -18.4987,-16.20294 -5.8923,-1.87905 -11.90797,-1.76191 -17.48834,-0.61495 l -20.86611,-41.89886 c 0.0318,-0.49899 0.0318,-0.49899 -0.4353,-1.02982 l -54.01006,-111.1221 c 4.74534,-3.70132 8.08951,-8.9991 9.99616,-15.38665 3.03597,-8.31955 2.54746,-16.36699 -1.96103,-24.16593 -3.48267,-8.2345 -9.64733,-13.63405 -18.46586,-16.70186 -5.89229,-1.87906 -11.40898,-1.73007 -16.99334,-0.58337 L 81.566348,216.53531 c 10.177077,-10.36894 20.821362,-20.20806 31.901192,-29.01634 11.07943,-8.80831 21.62803,-17.14948 32.17663,-25.49064 l 1.06165,-0.93429 c -3.97235,-39.81779 -7.87698,-80.634 -11.25106,-121.91306 -0.36139,-10.039492 -0.81805,-18.585921 -0.83966,-26.098657 13.17089,-10.1779984 25.17039,-9.9132984 36.00648,0.79461 -0.16944,10.506646 0.16011,21.045123 -0.009,31.551759 l -0.0739,9.009681 c 0.21241,4.522708 0.39323,9.540508 1.10463,14.095057 l 1.24962,19.61149 c 0.14898,5.51678 0.26586,11.53645 0.91383,17.08507 l 1.08415,30.11868 c 0.882,17.58386 2.72614,35.73013 5.04141,54.40749 2.50607,15.68743 4.54119,30.84079 6.58011,45.9974 l -0.0318,0.49899 c 2.90978,17.21224 6.81454,34.48797 11.25286,51.30074 2.53417,15.18421 6.10182,29.93836 10.16479,44.7191 4.50226,15.81081 9.03212,31.12637 12.56825,46.37451 l 2.9476,8.70539 c 2.11308,6.14303 4.75699,11.81893 6.89767,17.46671 6.56182,14.94121 13.08761,30.38413 19.64551,45.32409 4.4488,8.79716 8.92519,17.09909 13.43768,24.89829 2.63992,5.67563 5.78256,11.38736 8.92545,17.09509 5.87908,9.89048 11.72532,20.27987 17.60739,30.17053 3.60579,6.2423 7.24761,11.98288 10.8855,17.7222 2.33572,2.65413 4.63959,5.80725 6.94347,8.96036 l 3.66973,5.24034 c 3.20632,4.71376 5.91391,9.39168 9.11624,14.10518 l 0.46715,0.53083 c 10.58161,14.69569 21.6938,28.92824 33.33307,42.68939 7.81434,11.016 16.1236,22.06459 24.4976,32.11427 8.87199,10.08146 17.71214,20.6619 26.58414,30.74336 4.6356,5.80699 8.84015,10.58044 13.10413,14.35965 4.67169,5.30428 9.83812,10.64413 15.0088,15.98024 5.16643,5.33986 10.80425,11.2068 15.93884,17.04563 12.23752,12.30029 24.50389,24.1014 37.30427,35.43257 12.26936,11.8013 25.06556,23.13521 38.39658,34.00222 12.79619,11.33391 26.09537,22.69991 40.38952,34.1294 14.73245,12.4595 30.49072,24.48343 46.25297,36.50763 8.564,7.0567 17.19174,13.11444 25.32023,19.14432 9.09489,6.58856 17.69053,13.14928 26.25458,20.20498 3.33369,2.71782 6.69648,4.93247 10.03017,7.65028 4.32767,2.78124 9.12647,6.09357 13.42255,9.36981 l 183.83287,109.39004"
     style="display:inline;mix-blend-mode:normal;fill:#008200;fill-opacity:1;fill-rule:evenodd;stroke:none"
     id="path5247"
     sodipodi:nodetypes="ccccccccccccccccccccccccccccccccccccccccccccccccccccccccccccccccccccccccccccccccccc" /></g></svg>
