<?xml version="1.0" encoding="UTF-8" standalone="no"?>
<!-- Generator: Adobe Illustrator 24.2.1, SVG Export Plug-In . SVG Version: 6.00 Build 0)  -->

<svg
   version="1.1"
   id="Layer_1"
   x="0px"
   y="0px"
   viewBox="0 0 70.7 37.5"
   style="enable-background:new 0 0 70.7 37.5;"
   xml:space="preserve"
   sodipodi:docname="logo-header.svg"
   inkscape:version="1.2.2 (b0a8486, 2022-12-01)"
   xmlns:inkscape="http://www.inkscape.org/namespaces/inkscape"
   xmlns:sodipodi="http://sodipodi.sourceforge.net/DTD/sodipodi-0.dtd"
   xmlns="http://www.w3.org/2000/svg"
   xmlns:svg="http://www.w3.org/2000/svg"><defs
   id="defs6155"><rect
     x="32.399437"
     y="9.8162917"
     width="34.839324"
     height="12.369662"
     id="rect11373" /><rect
     x="32.342695"
     y="10.780898"
     width="36.201122"
     height="12.596629"
     id="rect11367" /></defs><sodipodi:namedview
   id="namedview6153"
   pagecolor="#ffffff"
   bordercolor="#000000"
   borderopacity="0.25"
   inkscape:showpageshadow="2"
   inkscape:pageopacity="0.0"
   inkscape:pagecheckerboard="true"
   inkscape:deskcolor="#d1d1d1"
   showgrid="false"
   inkscape:zoom="17.623763"
   inkscape:cx="45.960672"
   inkscape:cy="15.745786"
   inkscape:window-width="1920"
   inkscape:window-height="1027"
   inkscape:window-x="0"
   inkscape:window-y="25"
   inkscape:window-maximized="1"
   inkscape:current-layer="Layer_1" />
<style
   type="text/css"
   id="style6096">
	.st0{fill:#FFFFFF;}
	.st1{opacity:0.3;fill:#B2B2B2;}
	.st2{opacity:0.6;fill:#FFFFFF;}
	.st3{opacity:0.2;fill:#878787;}
	.st4{opacity:0.17;fill:#FFFFFF;}
	.st5{opacity:0.3;fill:#C6C6C6;}
</style>







<path
   d="m 25.440023,2.8255468 c -0.396171,0.1170508 -0.79238,0.2341037 -1.188549,0.3511533 -0.142747,0.064027 -0.304785,0.1110728 -0.465801,0.1764082 l -0.503411,1.0227989 c 0.633667,-0.1320607 1.472276,0.071239 2.536334,0.6454306 0.645698,0.3440829 1.207926,0.528306 1.665789,0.5174425 0.38489,-0.00619 0.704452,-0.1732838 0.922265,-0.4990539 -0.1544,-0.1186239 -0.257463,-0.2955877 -0.324977,-0.4930257 -0.130666,-0.3218874 -0.113921,-0.6348251 0.05123,-0.9205275 0.128739,-0.2835244 0.354607,-0.4813303 0.678827,-0.5754358 0.214688,-0.087113 0.433897,-0.1011057 0.639491,-0.040802 L 30.11528,1.6282712 C 29.410827,1.801555 28.724662,1.97382 28.020182,2.1472521 c -0.453195,0.083985 -0.813984,0.1802724 -1.120071,0.2732214 -0.30594,0.092936 -0.521648,0.1617647 -0.665551,0.2076561 l -0.794536,0.197423"
   style="mix-blend-mode:normal;fill:#d7d7d7;fill-opacity:1;fill-rule:evenodd;stroke:none;stroke-width:0.0507172;stroke-dasharray:none;stroke-opacity:1"
   id="path76" /><path
   d="m 17.956469,6.0184488 -0.141571,0.082455 c 0.536157,0.3509259 1.068834,0.6473059 1.618472,0.9241399 0.414823,0.175277 0.762364,0.446615 1.022006,0.778625 0.09957,0.122125 0.200292,0.262528 0.301011,0.402786 l 2.258715,-4.5657142 -5.058633,2.3777136"
   style="mix-blend-mode:normal;fill:#d7d7d7;fill-opacity:1;fill-rule:evenodd;stroke:none;stroke-width:0.0507172;stroke-dasharray:none;stroke-opacity:1"
   id="path78" /><path
   d="m 33.189998,12.14648 -1.106186,2.217158 c 0.03889,0.03423 0.140781,0.192764 0.304369,0.457635 0.145441,0.26588 0.12987,0.597098 -0.06601,0.97653 -0.215484,0.36233 -0.421869,0.577247 -0.639911,0.609516 -0.218188,0.03227 -0.437394,0.04626 -0.641967,0.0043 l -3.940225,7.828612 c 0.09023,-0.02412 0.164369,-0.01046 0.256933,0.002 0.677216,-0.02486 1.311259,0.136572 1.919378,0.464701 0.629779,0.381659 1.305045,0.613877 2.026978,0.714531 0.09023,-0.02412 0.19991,-0.03111 0.30944,-0.0381 0.01712,-0.01945 0.03423,-0.03889 0.03307,-0.05716 0.31144,-1.15727 0.529138,-2.345375 0.688651,-3.584829 0.103731,-0.960623 0.207624,-1.921216 0.310191,-2.900229 0.20841,-2.196576 0.377976,-4.427197 0.545308,-6.69457"
   style="fill:#d7d7d7;fill-opacity:1;fill-rule:nonzero;stroke:none;stroke-width:0.0507172;stroke-dasharray:none;stroke-opacity:1"
   id="path80" /><path
   d="m 28.162387,8.6878197 -0.574946,0.477037 c -2.221133,1.9947883 -4.286748,4.1262993 -6.17618,6.4301483 -0.169817,0.212731 -0.340957,0.407044 -0.511943,0.601494 -0.474372,0.617303 -0.891572,1.267668 -1.232146,1.968351 -0.634493,1.269654 -1.155799,2.587256 -1.58459,3.917162 -0.794,2.509107 -1.289696,5.090947 -1.504355,7.764833 -0.0054,0.20224 -0.02919,0.405503 -0.03463,0.607745 -0.02568,0.460339 -0.03296,0.919358 -0.04037,1.378531 l 3.70778,-7.446843 c -0.315647,-0.346791 -0.410918,-0.689288 -0.305116,-1.044619 0.105656,-0.355321 0.219626,-0.582694 0.341749,-0.682257 0.12198,-0.09956 0.246437,-0.162558 0.37206,-0.207281 0.08776,-0.06052 0.196272,-0.08579 0.304782,-0.11107 0.109538,-0.007 0.219208,-0.01399 0.330052,-0.0028 l 2.101718,-4.152044 c -0.254978,-0.258928 -0.388169,-0.614831 -0.385622,-0.940039 0.0026,-0.330938 0.15422,-0.656013 0.399309,-0.858824 0.177153,-0.169056 0.388006,-0.245009 0.53294,-0.272463 0.12679,-0.02644 0.29116,-0.03692 0.495724,0.0051 l 3.763782,-7.4321043"
   style="fill:#d7d7d7;fill-opacity:1;fill-rule:nonzero;stroke:none;stroke-width:0.0507172;stroke-dasharray:none;stroke-opacity:1"
   id="path82"
   sodipodi:nodetypes="ccccccccccccccccscccc" /><path
   d="m 14.518517,8.4943797 c -0.909317,0.700266 -1.721522,1.485959 -2.454787,2.3582383 -0.427541,0.486022 -0.835785,0.98913 -1.224591,1.509203 -0.305581,0.386434 -0.575757,0.752251 -0.827655,1.116904 -0.1835778,0.287024 -0.3670218,0.573894 -0.5494432,0.879051 -0.2802854,0.494942 -0.5228586,1.00572 -0.7471441,1.515444 -0.3678142,0.849106 -0.6236286,1.727624 -0.7652318,2.672418 -0.2254937,1.35368 -0.2854485,2.715111 -0.2161384,4.08665 0.026819,0.420318 0.071775,0.839444 0.1363217,1.275674 0.1718469,1.254868 0.5924749,2.383885 1.2642087,3.423499 0.2026172,0.298944 0.4245363,0.615009 0.6465972,0.931062 0.2413659,0.333178 0.4999849,0.646897 0.7596269,0.97891 l 1.930723,-3.957605 c -0.373985,-0.418464 -0.428809,-0.890975 -0.30447,-1.319824 0.06069,-0.278102 0.2659,-0.525001 0.568496,-0.672643 0.05353,-0.02177 0.174091,-0.05354 0.227764,-0.07532 0.164515,-0.01046 0.328884,-0.02101 0.494567,-0.0132 0.0067,-0.183962 -0.02215,-0.347167 -0.06921,-0.509348 -0.06767,-0.197467 -0.151281,-0.357319 -0.289734,-0.513668 -0.280244,-0.367258 -0.609513,-0.639908 -0.967168,-0.782125 -0.529167,-0.241396 -1.043424,-0.538803 -1.524756,-0.893374 -0.401225,-0.249708 -0.6803151,-0.59883 -0.8545276,-1.027916 -0.043556,-0.107343 -0.068833,-0.215855 -0.05872,-0.344831 7.648e-4,-0.27536 0.039296,-0.534662 0.07781,-0.793929 -0.2479845,-0.149362 -0.4249286,-0.452968 -0.4334684,-0.874417 -0.00974,-0.439584 0.078094,-0.589049 0.3254276,-0.904135 0.2405495,-0.193226 0.4708594,-0.299364 0.6157864,-0.326965 0.12679,-0.02644 0.292329,-0.01866 0.460336,0.02553 L 14.51851,8.4943807"
   style="mix-blend-mode:normal;fill:#d7d7d7;fill-opacity:1;fill-rule:evenodd;stroke:none;stroke-width:0.0507172;stroke-dasharray:none;stroke-opacity:1"
   id="path84"
   sodipodi:nodetypes="ccccccccccccccccccccccccccccc" /><path
   d="m 19.685288,9.2471167 c 0.307116,-0.07451 0.508046,-0.08733 0.621214,-0.03964 0.01014,-0.128976 0.0031,-0.238654 -0.0028,-0.330051 -0.0451,-0.418975 -0.249903,-0.754629 -0.613389,-0.988244 -0.785311,-0.518568 -1.586577,-0.999556 -2.385503,-1.443873 l -1.75496,1.249384 -4.299871,8.8056733 c 0.07879,0.08659 0.157746,0.173326 0.218418,0.261224 0.06068,0.0879 0.103054,0.176817 0.145444,0.265881 0.12935,0.303616 0.112613,0.616555 -0.05253,0.902404 -0.279131,0.513075 -0.724324,0.725025 -1.297702,0.65149 -0.01246,0.09256 -0.0054,0.202131 -0.0179,0.294694 0.0059,0.0914 0.01167,0.182796 0.03578,0.272882 0.02411,0.09022 0.04822,0.180461 0.10889,0.26836 0.227752,0.407462 0.597074,0.732471 1.069083,0.940806 0.62392,0.290412 1.1965,0.639159 1.737333,1.06335 0.328092,0.254227 0.566102,0.532555 0.713733,0.835004 l 2.322654,-4.716479 c -0.121342,-0.175797 -0.226729,-0.389171 -0.296574,-0.62317 -0.07117,-0.252413 -0.01671,-0.549405 0.181514,-0.892279 0.178776,-0.359987 0.553178,-0.530563 1.120855,-0.548579 l 2.078781,-4.223862 c -0.120173,-0.157516 -0.224249,-0.22384 -0.311356,-0.438418 -0.08711,-0.214688 -0.108717,-0.558848 0.003,-0.8970653 0.106825,-0.316706 0.456853,-0.594836 0.675844,-0.669496"
   style="mix-blend-mode:normal;fill:#d7d7d7;fill-opacity:1;fill-rule:evenodd;stroke:none;stroke-width:0.0507172;stroke-dasharray:none;stroke-opacity:1"
   id="path86"
   sodipodi:nodetypes="cccccccsccccccccccccccccc" /><path
   d="m 16.505903,33.02552 0.02564,0.401878 c 0.976917,0.359657 1.999351,0.569724 3.064984,0.593351 0.165681,0.0078 0.331364,0.01556 0.477455,0.0063 0.09256,0.01246 0.183959,0.0067 0.256932,0.0017 0.382557,-0.04277 0.76628,-0.06724 1.130559,-0.108851 0.382558,-0.04275 0.745669,-0.102654 1.108789,-0.162381 0.236359,-0.03345 0.47166,-0.08515 0.725093,-0.138037 0.218044,-0.03226 0.433896,-0.10111 0.667885,-0.171101 0.215855,-0.06884 0.431564,-0.137664 0.664395,-0.225789 0.215855,-0.06884 0.430398,-0.155948 0.625494,-0.260167 0.408625,-0.209484 0.834357,-0.438546 1.240653,-0.684574 0.388051,-0.244864 0.774889,-0.508147 1.141126,-0.806682 0.329677,-0.2962 0.659357,-0.592398 0.989024,-0.888748 0.309064,-0.331586 0.601016,-0.643735 0.892967,-0.955882 0.425359,-0.522557 0.793586,-1.07806 1.103433,-1.685012 0.14455,-0.321095 0.307525,-0.643365 0.452076,-0.96446 0.126414,-0.31994 0.251516,-0.658145 0.359654,-0.976916 -0.549261,0.0167 -1.240621,-0.177786 -2.056552,-0.602667 -0.741761,-0.411369 -1.341713,-0.611541 -1.799576,-0.600675 -0.423782,-0.02803 -0.7274,0.101322 -0.947537,0.390687 0.15556,0.136759 0.257456,0.295443 0.324973,0.492916 0.111225,0.304775 0.111597,0.598415 -0.03645,0.864671 -0.148194,0.266266 -0.338625,0.443601 -0.588716,0.551184 -0.268251,0.108897 -0.522851,0.143488 -0.763839,0.103805 l -1.462678,2.955416 c 0.15557,0.136905 0.276756,0.312565 0.344425,0.510137 0.111226,0.304775 0.112753,0.616548 -0.03179,0.937637 -0.147029,0.284549 -0.39113,0.483663 -0.714185,0.596049 -0.234143,0.06985 -0.454508,0.06571 -0.661268,-0.01287 -0.298723,0.495971 -0.722011,0.761589 -1.287365,0.816014 -0.566373,0.03613 -1.258753,-0.176631 -2.075956,-0.619746 -1.387496,-0.755439 -2.308169,-0.806666 -2.778898,-0.134532 l -0.390754,0.777155"
   style="fill:#d7d7d7;fill-opacity:1;fill-rule:nonzero;stroke:none;stroke-width:0.0507172;stroke-dasharray:none;stroke-opacity:1"
   id="path88" /><path
   d="m 30.023652,17.155252 c -0.469143,0.121707 -0.911244,0.09486 -1.344349,-0.07925 -0.357662,-0.142363 -0.716482,-0.30286 -1.03992,-0.484113 -0.380598,-0.214167 -0.794257,-0.371164 -1.261597,-0.506528 -0.318772,-0.108131 -0.630534,-0.106454 -0.93652,-0.01365 -0.215708,0.06882 -0.392672,0.17189 -0.510139,0.344424 0.252797,0.22247 0.365035,0.545532 0.354276,0.949859 -0.0067,0.183816 -0.05214,0.333552 -0.11825,0.447895 -0.115135,0.20913 -0.271338,0.347577 -0.46659,0.451659 -0.159703,0.08361 -0.321885,0.130662 -0.448531,0.157098 -0.164515,0.01046 -0.292472,0.01866 -0.403168,0.0073 l -2.081251,4.187455 c 0.353409,0.362737 0.470458,0.758908 0.352307,1.206649 -0.07625,0.243465 -0.192534,0.434279 -0.365852,0.592172 -0.190585,0.177202 -0.422243,0.283752 -0.697455,0.28296 -0.110842,-0.01126 -0.221687,-0.02257 -0.332383,-0.03385 l -3.323002,6.578288 c 0.912517,-0.07659 1.770472,0.143979 2.553449,0.625984 0.382932,0.250729 0.816047,0.424985 1.318623,0.539598 0.334864,0.07041 0.606578,0.01637 0.833577,-0.163172 0.158684,-0.101893 0.298941,-0.202612 0.43702,-0.339752 -0.432321,-0.449469 -0.387193,-1.117933 -0.20912,-1.404057 0.06612,-0.114352 0.212688,-0.265795 0.298151,-0.362872 0.283053,-0.225621 0.621996,-0.315 0.958026,-0.226317 l 1.479644,-2.974852 c -0.422198,-0.578446 -0.50619,-1.031791 -0.254299,-1.396477 0.233761,-0.363497 0.459594,-0.561301 0.659355,-0.592401 0.199908,-0.03111 0.419116,-0.0451 0.640804,-0.02253 l 3.907194,-7.7716"
   style="fill:#d7d7d7;fill-opacity:1;fill-rule:nonzero;stroke:none;stroke-width:0.0507172;stroke-dasharray:none;stroke-opacity:1"
   id="path90"
   sodipodi:nodetypes="ccccccccccccccccccccccccccccc" /><path
   d="M 37.876757,2.215468 38.726541,1.4456924 33.899148,4.2855972 C 33.829538,4.3451062 33.758882,4.3861663 33.705211,4.40795 L 33.35493,4.6689029 c -0.0879,0.060678 -0.175807,0.1211962 -0.26356,0.1818586 l -0.682326,0.5205962 c -0.245416,0.1808466 -0.490693,0.361537 -0.717682,0.5412072 -0.314896,0.2402322 -0.629792,0.4804268 -0.926547,0.7196108 l -1.259577,0.960927 c -0.0525,0.04007 -0.08674,0.07895 -0.139241,0.119009 -0.05119,0.05834 -0.102527,0.116663 -0.151545,0.211418 l -1.549301,3.0343593 -0.0171,0.01944 -2.228135,4.471991 c 0.633696,-0.132205 1.454035,0.07238 2.498609,0.629486 0.66631,0.379475 1.210258,0.564864 1.650023,0.555155 0.401857,-0.02565 0.721412,-0.192865 0.957505,-0.5198 -0.172672,-0.117314 -0.275734,-0.294277 -0.32497,-0.492882 -0.0735,-0.288827 -0.0556,-0.583633 0.07185,-0.885281 0.145861,-0.302825 0.371696,-0.500629 0.677636,-0.593567 0.197573,-0.06767 0.416779,-0.08166 0.63949,-0.04081 l 1.79201,-3.545256 C 33.550751,9.4631207 33.849735,8.3983067 34.276674,7.3253267 34.562421,6.6282907 34.905337,5.964313 35.287141,5.3345254 35.586875,4.8566963 35.907221,4.4142595 36.247014,3.988937 36.415711,3.7580709 36.585674,3.545332 36.774947,3.3498615 37.135351,2.9599303 37.496924,2.588278 37.87677,2.215461"
   style="fill:#d7d7d7;fill-opacity:1;fill-rule:nonzero;stroke:none;stroke-width:0.0507172;stroke-dasharray:none;stroke-opacity:1"
   id="path92" /><path
   d="m 39.807414,-0.01759312 c -0.400874,0.043929 -0.800545,0.1061473 -1.201388,0.1499326 -0.14609,0.00933 -0.29233,0.018663 -0.437248,0.046253 -0.818791,0.1073144 -1.637576,0.2146237 -2.455235,0.3402153 -0.526315,0.088653 -1.052774,0.1773044 -1.615656,0.2681374 -0.452178,0.1022733 -0.887094,0.1850867 -1.305046,0.24846262 -0.453342,0.083995 -0.905557,0.1862666 -1.320014,0.3043363 l -0.634823,0.1139204 c -0.01712,0.019444 -0.05368,0.021778 -0.08893,0.042377 L 29.90727,3.2559799 c 0.134955,0.1015141 0.253966,0.2407494 0.337426,0.4004623 0.06245,0.1078982 0.09451,0.2231866 0.12094,0.3769426 0.03141,0.2014098 -0.01712,0.3870067 -0.129786,0.6326505 -0.165298,0.2858565 -0.38996,0.5019403 -0.694736,0.6131578 -0.234134,0.070002 -0.453342,0.083997 -0.678529,0.00653 C 28.565178,5.7999699 28.141891,6.0655832 27.576537,6.120013 27.011331,6.1744347 26.31895,5.961661 25.501748,5.5185451 24.458292,4.9795973 23.676854,4.8093607 23.159727,5.0442545 22.997679,5.0911598 22.85961,5.2284438 22.710395,5.4764198 l -1.929557,3.9760289 c 0.153079,0.100204 0.272088,0.239447 0.338581,0.418597 0.06299,0.124455 0.08828,0.2329673 0.09527,0.3424973 0.03227,0.218189 -0.0085,0.440933 -0.123696,0.650175 -0.144549,0.321092 -0.370528,0.518905 -0.69358,0.631291 -0.198596,0.04938 -0.419117,0.04509 -0.623546,0.0031 l -2.0606,4.222848 0.01945,0.0171 c 0.154392,0.118479 0.276899,0.312555 0.346893,0.546544 0.10874,0.268223 0.09083,0.562883 -0.0537,0.884123 -0.147028,0.284546 -0.372897,0.48235 -0.677671,0.59357 -0.215854,0.06883 -0.436231,0.06453 -0.640658,0.02253 l -0.764396,1.53491 c 0.0011,0.01828 0.0011,0.01828 -0.01595,0.03773 l -1.978573,4.070781 c 0.173838,0.135592 0.296346,0.329668 0.366194,0.563665 0.111213,0.304775 0.09332,0.599579 -0.07184,0.885282 -0.127583,0.301659 -0.353415,0.499462 -0.676469,0.611845 -0.215854,0.06883 -0.417949,0.0634 -0.622524,0.02138 l -2.044529,4.185113 c 0.372821,0.379852 0.762758,0.740294 1.16865,1.062971 0.405877,0.322673 0.792308,0.628238 1.178739,0.933806 l 0.03889,0.03422 c -0.145521,1.458659 -0.28856,2.9539 -0.412163,4.466093 -0.01324,0.367783 -0.02997,0.680865 -0.03077,0.956083 0.482493,0.372857 0.922077,0.363158 1.319039,-0.02912 -0.0062,-0.384894 0.0059,-0.770951 -3.18e-4,-1.155848 l -0.0028,-0.330054 c 0.0078,-0.165682 0.0144,-0.349507 0.04046,-0.516351 l 0.04579,-0.718436 c 0.0054,-0.202098 0.0097,-0.422623 0.03347,-0.625885 l 0.03972,-1.10335 c 0.03231,-0.644158 0.09987,-1.308918 0.184683,-1.993135 0.09181,-0.574681 0.16636,-1.129801 0.241053,-1.68504 l -0.0011,-0.01828 c 0.106586,-0.630545 0.249635,-1.263413 0.412225,-1.87932 0.09283,-0.556251 0.223531,-1.096745 0.372371,-1.638214 0.164933,-0.579204 0.330878,-1.140267 0.460419,-1.698857 l 0.107981,-0.318909 c 0.07741,-0.225041 0.174265,-0.432967 0.252685,-0.639866 0.240382,-0.547347 0.479443,-1.113073 0.719683,-1.660376 0.162974,-0.322269 0.326959,-0.626396 0.492269,-0.912109 0.09671,-0.207918 0.211835,-0.417157 0.326969,-0.62625 0.215371,-0.362323 0.429539,-0.742922 0.64502,-1.105251 0.132092,-0.228676 0.265504,-0.438974 0.398772,-0.649225 0.08557,-0.09722 0.169965,-0.212739 0.254363,-0.328248 l 0.134436,-0.191971 c 0.11746,-0.172682 0.216648,-0.34405 0.333959,-0.516721 l 0.01711,-0.01945 c 0.387641,-0.538354 0.794718,-1.05974 1.221105,-1.56386 0.286266,-0.403551 0.590662,-0.8083 0.89743,-1.176455 0.325012,-0.369317 0.648855,-0.756915 0.973867,-1.126234 0.16982,-0.212729 0.323847,-0.387597 0.480051,-0.526042 0.17114,-0.194315 0.360404,-0.389932 0.549822,-0.585411 0.189266,-0.195618 0.395797,-0.410545 0.583896,-0.624441 0.448301,-0.4506 0.89766,-0.882914 1.366583,-1.2980143 0.449423,-0.432265 0.918192,-0.847464 1.406554,-1.245559 0.468768,-0.415199 0.955963,-0.831574 1.479607,-1.250276 0.539699,-0.456434 1.116979,-0.896912 1.694403,-1.3373989 C 30.638145,5.7962346 30.95421,5.5743187 31.251982,5.3534242 31.58516,5.1120623 31.90005,4.8717204 32.21378,4.6132465 32.335904,4.5136805 32.459096,4.4325527 32.581216,4.3329898 32.739754,4.2311019 32.915549,4.1097622 33.072931,3.9897425 l 6.734424,-4.00734002"
   style="mix-blend-mode:normal;fill:#d7d7d7;fill-opacity:1;fill-rule:evenodd;stroke:none;stroke-width:0.0507172;stroke-dasharray:none;stroke-opacity:1"
   id="path94"
   sodipodi:nodetypes="ccccccccccccccccccccccccccccccccccccccccccccccccccccccccccccccccccccccccccccccccccc" /><text
   xml:space="preserve"
   style="font-style:normal;font-variant:normal;font-weight:normal;font-stretch:normal;font-size:24px;font-family:Vidaloka;-inkscape-font-specification:Vidaloka;fill:#d7d7d7;fill-opacity:1;fill-rule:evenodd;stroke:none;stroke-width:0.05;stroke-miterlimit:1;stroke-dasharray:none;stroke-opacity:1"
   x="37.506176"
   y="20.597189"
   id="text25651"><tspan
     sodipodi:role="line"
     id="tspan25649"
     x="37.506176"
     y="20.597189"
     style="font-size:24px">CG</tspan></text><text
   xml:space="preserve"
   style="font-style:normal;font-variant:normal;font-weight:normal;font-stretch:normal;font-size:14.2667px;font-family:Vidaloka;-inkscape-font-specification:Vidaloka;fill:#d7d7d7;fill-opacity:1;fill-rule:evenodd;stroke:none;stroke-width:0.05;stroke-miterlimit:1;stroke-dasharray:none;stroke-opacity:1"
   x="38.924721"
   y="33.591007"
   id="text25655"><tspan
     sodipodi:role="line"
     id="tspan25653"
     x="38.924721"
     y="33.591007"
     style="font-size:14.2667px">PWS</tspan></text></svg>
