<?xml version="1.0" encoding="UTF-8" standalone="no"?>
<!-- Generator: Adobe Illustrator 24.2.1, SVG Export Plug-In . SVG Version: 6.00 Build 0)  -->

<svg
   version="1.1"
   id="Layer_1"
   x="0px"
   y="0px"
   viewBox="0 0 70.7 37.5"
   style="enable-background:new 0 0 70.7 37.5;"
   xml:space="preserve"
   sodipodi:docname="logo-header.svg"
   inkscape:version="1.2.2 (b0a8486, 2022-12-01)"
   xmlns:inkscape="http://www.inkscape.org/namespaces/inkscape"
   xmlns:sodipodi="http://sodipodi.sourceforge.net/DTD/sodipodi-0.dtd"
   xmlns:xlink="http://www.w3.org/1999/xlink"
   xmlns="http://www.w3.org/2000/svg"
   xmlns:svg="http://www.w3.org/2000/svg"><defs
   id="defs6155"><rect
     x="32.399437"
     y="9.8162917"
     width="34.839324"
     height="12.369662"
     id="rect11373" /><rect
     x="32.342695"
     y="10.780898"
     width="36.201122"
     height="12.596629"
     id="rect11367" /><radialGradient
     id="Gradient_1"
     gradientUnits="userSpaceOnUse"
     cx="0"
     cy="0"
     r="85.45066650559258"
     fx="0"
     fy="0"
     gradientTransform="matrix( 0.003949647367325231, 0.9999922001124177, 0.9999922001124177, -0.003949647367325231, 97.75,223.65) "
     spreadMethod="reflect"><stop
       offset="23.529411764705884%"
       stop-color="#00CF00"
       id="stop594" /><stop
       offset="72.94117647058823%"
       stop-color="#009B00"
       id="stop596" /></radialGradient><radialGradient
     id="Gradient_2"
     gradientUnits="userSpaceOnUse"
     cx="0"
     cy="0"
     r="82.5006903380208"
     fx="0"
     fy="0"
     gradientTransform="matrix( 0.004090874859558134, 0.999991632336433, 0.999991632336433, -0.004090874859558134, 130.3,242.05) "
     spreadMethod="reflect"><stop
       offset="26.274509803921568%"
       stop-color="#008E00"
       id="stop599" /><stop
       offset="77.6470588235294%"
       stop-color="#00CF00"
       id="stop601" /></radialGradient><radialGradient
     id="radialGradient762"
     gradientUnits="userSpaceOnUse"
     cx="0"
     cy="0"
     r="85.45066650559258"
     fx="0"
     fy="0"
     gradientTransform="matrix( 0.003949647367325231, 0.9999922001124177, 0.9999922001124177, -0.003949647367325231, 97.75,223.65) "
     spreadMethod="reflect"><stop
       offset="23.529411764705884%"
       stop-color="#00CF00"
       id="stop758" /><stop
       offset="72.94117647058823%"
       stop-color="#009B00"
       id="stop760" /></radialGradient><radialGradient
     id="radialGradient768"
     gradientUnits="userSpaceOnUse"
     cx="0"
     cy="0"
     r="82.5006903380208"
     fx="0"
     fy="0"
     gradientTransform="matrix( 0.004090874859558134, 0.999991632336433, 0.999991632336433, -0.004090874859558134, 130.3,242.05) "
     spreadMethod="reflect"><stop
       offset="26.274509803921568%"
       stop-color="#008E00"
       id="stop764" /><stop
       offset="77.6470588235294%"
       stop-color="#00CF00"
       id="stop766" /></radialGradient><radialGradient
     inkscape:collect="always"
     xlink:href="#Gradient_1"
     id="radialGradient840"
     gradientUnits="userSpaceOnUse"
     gradientTransform="matrix(0.00394965,0.9999922,0.9999922,-0.00394965,97.75,223.65)"
     cx="0"
     cy="0"
     fx="0"
     fy="0"
     r="85.45066650559258"
     spreadMethod="reflect" /><radialGradient
     inkscape:collect="always"
     xlink:href="#Gradient_2"
     id="radialGradient842"
     gradientUnits="userSpaceOnUse"
     gradientTransform="matrix(0.00409087,0.99999163,0.99999163,-0.00409087,130.3,242.05)"
     cx="0"
     cy="0"
     fx="0"
     fy="0"
     r="82.5006903380208"
     spreadMethod="reflect" /></defs><sodipodi:namedview
   id="namedview6153"
   pagecolor="#ffffff"
   bordercolor="#000000"
   borderopacity="0.25"
   inkscape:showpageshadow="2"
   inkscape:pageopacity="0.0"
   inkscape:pagecheckerboard="true"
   inkscape:deskcolor="#d1d1d1"
   showgrid="false"
   inkscape:zoom="17.623763"
   inkscape:cx="36.626684"
   inkscape:cy="15.802528"
   inkscape:window-width="1920"
   inkscape:window-height="1027"
   inkscape:window-x="196"
   inkscape:window-y="65"
   inkscape:window-maximized="0"
   inkscape:current-layer="g617" />
<style
   type="text/css"
   id="style6096">
	.st0{fill:#FFFFFF;}
	.st1{opacity:0.3;fill:#B2B2B2;}
	.st2{opacity:0.6;fill:#FFFFFF;}
	.st3{opacity:0.2;fill:#878787;}
	.st4{opacity:0.17;fill:#FFFFFF;}
	.st5{opacity:0.3;fill:#C6C6C6;}
</style>







<g
   id="g617"
   transform="matrix(0.34090727,0,0,0.34090727,-20.034128,-59.670759)"><path
     fill="url(#Gradient_1)"
     stroke="none"
     d="m 111,270.35 q -6.1,-3.9 -8.5,-0.9 l -1.3,2.25 v 1.2 q 4.35,1.95 9.2,2.4 l 5.7,0.2 q 4.1,0.05 7.7,-1.1 11.45,-2.9 17.7,-10.55 0.85,-0.9 1.65,-1.9 1.05,-1.4 2.1,-2.9 1.9,-2.75 2.75,-5.85 -2.5,-0.05 -6.1,-2.25 -3.25,-2.05 -5.4,-2.15 -1.9,-0.25 -2.95,1 0.65,0.65 0.9,1.55 0.45,1.45 -0.4,2.8 -0.75,1.35 -2.15,1.6 -1,0.25 -2,0 l -5,8.7 q 0.7,0.65 0.95,1.65 0.4,1.4 -0.3,2.8 -0.75,1.2 -2.3,1.65 -0.95,0.2 -2,-0.15 -1.5,2.2 -4.1,2.25 -2.55,0 -6.15,-2.3 m 19.2,-47.8 h -0.05 l -0.1,0.2 q 0.1,0.1 0.15,0.15 0.55,0.6 0.75,1.45 0.4,1.35 -0.4,2.7 -0.85,1.35 -2.15,1.65 -1.05,0.25 -2.05,0 l -7.1,12.3 v 0.05 q 0.65,0.7 0.9,1.6 0.45,1.5 -0.35,2.8 -0.8,1.25 -2.2,1.6 -1,0.3 -1.9,0 l -11.4,19.35 q 2.9,-0.4 7.65,2.45 2.85,1.9 4.95,2 1.8,0.05 2.9,-1.35 -0.7,-0.6 -0.85,-1.6 -0.4,-1.15 0.1,-2.25 0.1,-0.2 0.2,-0.4 0.1,-0.15 0.2,-0.3 0.75,-1.1 2,-1.35 0.85,-0.2 1.95,-0.05 l 5.05,-8.7 q -0.75,-0.65 -1.05,-1.65 -0.25,-1.4 0.5,-2.75 0.75,-1.25 2.15,-1.55 1,-0.3 2,0 l 13.4,-22.9 q -2.75,0.55 -7.15,-2.15 -5.65,-3.6 -8.1,-1.3 m 11.2,-22.7 -1.8,1.4 q -2.25,1.65 -4.4,3.45 l -12.6,11.7 -7.85,8.95 -5.3,10.1 -3.35,8.65 q -1.1,3.55 -2,7.2 -0.9,3.5 -1.45,7.15 l -1.2,9.6 12.7,-21.95 q -0.7,-0.5 -0.85,-0.95 -0.15,-0.45 -0.2,-0.65 0,-0.2 -0.05,-0.4 -0.1,-1.25 0.55,-2.3 0.75,-1.35 2.15,-1.65 0.95,-0.15 1.95,-0.05 l 0.05,-0.05 7.2,-12.2 q -0.7,-0.75 -1,-1.7 -0.4,-1.5 0.35,-2.75 0.85,-1.4 2.25,-1.65 1,-0.2 1.95,0 l 3.7,-6.25 0.05,-0.2 9.1,-15.4 0.05,-0.05 m 14.65,11.55 -3.8,6.5 q 0.75,0.6 1,1.65 0.35,1.45 -0.35,2.8 -0.75,1.25 -2.25,1.65 -0.95,0.2 -1.95,-0.05 L 135.15,247 q 2.95,-0.45 7.7,2.45 3.1,1.95 5.4,1.95 0.3,-0.05 0.55,-0.05 0.05,-0.2 0.15,-0.4 1.15,-3.4 1.85,-6.9 0.7,-3.65 1.55,-7.35 l 3.7,-25.3 m 16.3,-29.45 q 1.3,-1.05 2.65,-2.05 l -19.25,10.15 -10.7,7.25 -0.05,0.05 -5.5,9.35 -0.05,0.05 -7.7,13.15 q 2.9,-0.45 7.5,2.4 2.9,1.9 4.9,2.05 1.85,0 3,-1.45 -0.7,-0.6 -0.85,-1.5 -0.3,-1.4 0.35,-2.75 0.75,-1.3 2.15,-1.65 0.95,-0.25 2,0 l 6.1,-10.45 q 1.1,-4.95 3.35,-9.65 1.55,-3.05 3.5,-5.85 l 3.2,-3.9 z"
     id="path834"
     style="enable-background:new 0 0 70.7 37.5;fill:url(#radialGradient840)" /><path
     fill="url(#Gradient_2)"
     stroke="none"
     d="m 85.9,210.15 -2.55,3.3 q -2.05,2.75 -3.4,6 -0.5,1.25 -0.9,2.55 -0.65,2 -1,4 l -1.4,7.75 -0.2,4.6 0.55,6.45 0.4,1.75 q 0.55,2.5 1.65,4.8 0.35,0.8 0.8,1.55 1.65,3.05 3.8,5.95 l 0.15,0.2 6.65,-11.7 q -0.7,-0.75 -0.95,-1.75 -0.45,-1.45 0.25,-2.7 l 0.05,-0.05 q 0.8,-1.3 2.15,-1.7 1,-0.25 1.9,0.05 1.1,-3.35 -5.15,-6.65 -7.5,-4.05 -5.15,-8.9 -0.85,-0.7 -1.1,-1.7 -0.45,-1.5 0.3,-2.7 0.75,-1.4 2.25,-1.75 0.95,-0.35 1.9,0 l 13,-22.85 -6.1,4.9 -5.9,6.1 -1.9,2.35 -0.1,0.15 m 40.15,-21.8 -0.4,0.5 -6.7,11.9 q 0.7,0.6 1,1.6 0.4,1.5 -0.4,2.75 -0.65,1.4 -2.2,1.8 -0.95,0.2 -1.9,-0.1 l -7.05,12.45 0.05,0.05 q 0.6,0.6 0.9,1.75 0.4,1.25 -0.35,2.65 -0.7,1.25 -2.15,1.65 -1,0.3 -1.95,-0.05 L 95.4,242 q 0.7,0.65 1,1.75 0.35,1.5 -0.35,2.75 -0.75,1.3 -1.8,1.65 -1.1,0.4 -2.35,0 l -6.95,12.3 6.85,6.65 q -1.15,6.65 -2.15,13.5 l -0.3,2.9 q 2.1,1.9 4.05,0.15 l 1.35,-13.1 v -0.1 l 0.1,-1.2 q 0.3,-2.5 0.8,-5.1 l 1.1,-5.05 v -0.05 q 0.65,-2.9 1.6,-5.7 l 3.3,-10.25 3.7,-7.5 8.7,-12.7 0.05,-0.05 7,-7.95 12.8,-11.85 q 2.25,-1.85 4.55,-3.55 l 4.75,-3.5 q 2.65,-1.9 5.45,-3.75 l 9.3,-6.05 3.4,-1.8 q 8.7,-4.35 17.3,-8.8 l -27.55,2.75 -0.3,0.1 -2.9,5.2 q 0.75,0.6 1.05,1.65 0.4,1.4 -0.35,2.7 -0.8,1.3 -2.2,1.75 -1.05,0.25 -2.1,-0.1 -1.45,2.2 -4.05,2.25 -2.6,0.05 -6.2,-2.2 -5.55,-3.4 -8,-1.35 m 1.35,-2.55 q 2.9,-0.45 7.6,2.45 2.85,1.8 4.95,1.9 1.8,0.05 2.95,-1.35 -0.7,-0.65 -0.9,-1.55 -0.5,-1.5 0.35,-2.8 0.6,-1.3 2.15,-1.65 1,-0.3 1.95,0 l 2.3,-4.05 -18.15,3.55 -1.45,0.45 -1.75,3.05 m -17,4.2 2.6,1.65 q 4.85,2.6 6,5.35 l 7.7,-13.5 -9.8,3.55 q -2.25,0.8 -4.45,1.95 l -2.05,1 m 1.85,3.2 q -2.05,-1.1 -3.3,-2.25 h -0.15 l -0.4,0.15 -5.2,3.3 -14.75,25.95 q 0.7,0.7 0.95,1.65 0.45,1.45 -0.4,2.8 -0.7,1.15 -1.85,1.55 -1.1,0.35 -2.15,0.15 -1.2,3.4 4.5,6.5 4.9,2.55 5.9,5.4 l 8,-13.9 q -0.75,-0.65 -1,-1.65 -0.35,-1.4 0.3,-2.75 0.8,-1.35 2.3,-1.75 0.9,-0.25 1.85,0.05 L 114,205.95 q -0.75,-0.65 -1,-1.55 -0.4,-1.5 0.3,-2.8 v -0.05 q 0.8,-1.3 2.25,-1.7 0.85,-0.2 1.8,0 l 0.05,-0.15 q 0.85,-3.25 -5.15,-6.5 z"
     id="path836"
     style="enable-background:new 0 0 70.7 37.5;fill:url(#radialGradient842)"
     inkscape:label="path836" /></g></svg>
