<?xml version="1.0" encoding="UTF-8" standalone="no"?>
<svg
   version="1.1"
   x="0"
   y="0"
   viewBox="0 0 70.7 37.5"
   style="enable-background:new 0 0 70.7 37.5"
   xml:space="preserve"
   id="svg13"
   sodipodi:docname="logo-header.svg"
   inkscape:version="1.3 (0e150ed6c4, 2023-07-21)"
   xmlns:inkscape="http://www.inkscape.org/namespaces/inkscape"
   xmlns:sodipodi="http://sodipodi.sourceforge.net/DTD/sodipodi-0.dtd"
   xmlns="http://www.w3.org/2000/svg"
   xmlns:svg="http://www.w3.org/2000/svg"><defs
   id="defs13"><radialGradient
     id="SVGID_1_-7"
     cx="0"
     cy="71.799797"
     r="819.20001"
     gradientTransform="matrix(0.02591985,0,0,0.02591985,3.4007839,18.878618)"
     gradientUnits="userSpaceOnUse">&#10;			<stop
   offset="0"
   style="stop-color:#FFFFFF"
   id="stop3-3" />&#10;			<stop
   offset="0.3294"
   style="stop-color:#FFFFFF"
   id="stop4-0" />&#10;			<stop
   offset="0.4745"
   style="stop-color:#C2C4C6"
   id="stop5-8" />&#10;			<stop
   offset="0.6275"
   style="stop-color:#ABADB0"
   id="stop6-2" />&#10;			<stop
   offset="0.7373"
   style="stop-color:#B3B5B8"
   id="stop7-6" />&#10;			<stop
   offset="0.9569"
   style="stop-color:#FAFBFB"
   id="stop8-8" />&#10;		</radialGradient><radialGradient
     id="SVGID_2_-7"
     cx="0"
     cy="71.799797"
     r="819.20007"
     gradientTransform="matrix(0.02103443,0,0,0.02103443,6.1822146,29.211546)"
     gradientUnits="userSpaceOnUse">&#10;			<stop
   offset="0"
   style="stop-color:#FFFFFF"
   id="stop9-4" />&#10;			<stop
   offset="0.3177"
   style="stop-color:#FFFFFF"
   id="stop10-0" />&#10;			<stop
   offset="0.5686"
   style="stop-color:#C2C4C6"
   id="stop11-9" />&#10;			<stop
   offset="0.8157"
   style="stop-color:#B3B5B8"
   id="stop12-9" />&#10;		</radialGradient><radialGradient
     id="SVGID_3_-0"
     cx="0"
     cy="71.799797"
     r="819.20007"
     gradientTransform="matrix(0.03406221,0,0,0.03406221,18.419822,4.2881845)"
     gradientUnits="userSpaceOnUse">&#10;			<stop
   offset="0"
   style="stop-color:#FFFFFF"
   id="stop13-5" />&#10;			<stop
   offset="0.2745"
   style="stop-color:#F8F8F9"
   id="stop14-2" />&#10;			<stop
   offset="0.3686"
   style="stop-color:#DEDFE0"
   id="stop15-5" />&#10;			<stop
   offset="0.5333"
   style="stop-color:#AFB1B4"
   id="stop16-8" />&#10;			<stop
   offset="0.7529"
   style="stop-color:#A7A9AC"
   id="stop17-5" />&#10;			<stop
   offset="0.9569"
   style="stop-color:#DEDFE0"
   id="stop18-4" />&#10;		</radialGradient></defs><sodipodi:namedview
   id="namedview13"
   pagecolor="#ffffff"
   bordercolor="#000000"
   borderopacity="0.25"
   inkscape:showpageshadow="2"
   inkscape:pageopacity="0.0"
   inkscape:pagecheckerboard="0"
   inkscape:deskcolor="#d1d1d1"
   inkscape:zoom="16.647808"
   inkscape:cx="35.319964"
   inkscape:cy="19.942565"
   inkscape:window-width="1920"
   inkscape:window-height="1018"
   inkscape:window-x="-6"
   inkscape:window-y="-6"
   inkscape:window-maximized="1"
   inkscape:current-layer="svg13" />&#10;  <style
   id="style1">&#10;    .st0{fill:#fff}&#10;  </style>&#10;  &#10;  &#10;  &#10;  &#10;  &#10;  &#10;  &#10;  &#10;  &#10;  &#10;  &#10;  &#10;  &#10;<path
   fill="#f0f0f0"
   d="m 54.538252,16.791957 c -0.361882,0.316647 -0.497588,0.723765 -0.497588,1.221354 0,0.452353 0.135706,0.859472 0.497588,1.176119 0.316648,0.361883 0.769001,0.542824 1.26659,0.542824 0.452353,0 0.904707,-0.180941 1.221354,-0.542824 0.361883,-0.316647 0.542824,-0.723766 0.542824,-1.176119 0,-0.497589 -0.180941,-0.904707 -0.542824,-1.221354 -0.316647,-0.361883 -0.769001,-0.497589 -1.221354,-0.497589 -0.497589,0 -0.949942,0.135706 -1.26659,0.497589 z"
   id="path1"
   style="stroke-width:0.452353" /><path
   fill="#f0f0f0"
   d="m 44.315065,23.17014 c -0.09047,-0.859471 -0.09047,-1.854649 -0.180941,-2.985533 l -3.256945,0.452354 c -0.407118,1.35706 -0.859471,2.578414 -1.311825,3.528357 -0.407118,1.040412 -0.904707,1.990355 -1.402295,2.849826 -0.361883,0.180941 -0.633295,0.407118 -0.859472,0.769001 -0.180941,0.407118 -0.316647,0.769001 -0.316647,1.221354 0,0.769001 0.316647,1.492766 0.859471,1.990355 0.58806,0.542824 1.402296,0.769001 2.397473,0.769001 0.67853,0 1.311825,-0.135706 1.94512,-0.361883 0.588059,-0.180941 1.130884,-0.497588 1.492766,-0.904707 0.723766,-0.452353 1.357061,-0.859471 1.899885,-1.266589 0.135706,-0.135706 0.271412,-0.271412 0.407118,-0.361883 -0.04524,0.09047 -0.04524,0.226177 -0.04524,0.316648 0,0.814236 0.226177,1.44753 0.678531,1.899884 0.407118,0.452353 0.995177,0.67853 1.718943,0.67853 1.040412,0 1.990355,-0.361883 2.759355,-1.040413 0.271412,-0.226177 0.58806,-0.542824 0.859472,-0.904707 0.09047,0.542824 0.271412,0.949943 0.542824,1.26659 0.452353,0.452353 1.040413,0.67853 1.764178,0.67853 1.040413,0 1.990355,-0.361883 2.759356,-1.040413 0.316648,-0.226177 0.633295,-0.588059 0.904707,-0.949942 0.09047,0.452353 0.271412,0.769001 0.588059,1.085648 0.497589,0.58806 1.221355,0.904707 2.126062,0.904707 0.633294,0 1.221354,-0.135706 1.809413,-0.497589 0.542824,-0.316647 1.040413,-0.814236 1.538002,-1.492766 0.04523,0.67853 0.226177,1.130884 0.633295,1.447531 0.361882,0.361883 0.859471,0.542824 1.492766,0.542824 0.995177,0 1.899884,-0.361883 2.62365,-0.995177 0.723765,-0.678531 1.35706,-1.673708 1.854649,-2.985533 h -0.949942 c -0.180942,0.633295 -0.407118,1.130883 -0.723766,1.492766 -0.361883,0.361883 -0.67853,0.542824 -1.085648,0.542824 -0.271412,0 -0.497589,-0.09047 -0.67853,-0.271412 -0.135706,-0.135706 -0.180942,-0.361882 -0.180942,-0.67853 0,-0.09047 0,-0.226177 0,-0.316647 0,-0.135706 0,-0.226177 0.04524,-0.361883 l 1.583237,-7.328125 H 65.43997 l -0.271412,1.130883 v -0.135706 c 0,-0.316647 -0.135706,-0.633295 -0.452354,-0.814236 -0.271412,-0.180941 -0.723765,-0.271412 -1.311825,-0.271412 -0.859471,0 -1.628472,0.226177 -2.352237,0.67853 -0.723766,0.452353 -1.357061,1.085648 -1.94512,1.94512 -0.452354,0.723765 -0.769001,1.492766 -1.040413,2.352238 -0.226177,0.904706 -0.361883,1.764178 -0.361883,2.533179 0,0.04523 0,0.135706 0,0.180941 -0.135706,0.271412 -0.316647,0.497589 -0.542824,0.67853 -0.361883,0.361883 -0.723765,0.542824 -1.130883,0.542824 -0.361883,0 -0.58806,-0.09047 -0.723766,-0.180941 -0.135706,-0.135706 -0.180941,-0.316647 -0.180941,-0.633295 0,-0.09047 0,-0.226177 0,-0.316647 0,-0.135706 0.04523,-0.226177 0.04523,-0.361883 l 1.628472,-7.328125 H 53.58831 l -1.538001,6.921007 c -0.135706,0.542824 -0.452354,0.995177 -0.769001,1.35706 -0.361883,0.361883 -0.769001,0.542824 -1.176119,0.542824 -0.361883,0 -0.58806,-0.09047 -0.723766,-0.180941 -0.135706,-0.135706 -0.180941,-0.316647 -0.180941,-0.633295 0,-0.09047 0,-0.226177 0,-0.316647 0.04523,-0.135706 0.04523,-0.226177 0.09047,-0.361883 l 1.402295,-6.468654 h 1.357061 l 0.135706,-0.859471 H 50.87419 l 0.723765,-3.392651 -3.256944,0.452353 -0.678531,2.940298 h -0.723765 l -0.180941,0.859471 h 0.723765 l -1.311825,6.061536 c -0.226177,0.180941 -0.452353,0.316647 -0.723765,0.542824 -0.316648,0.180941 -0.58806,0.361883 -0.859472,0.542824 0,-0.135706 0,-0.226177 0.04523,-0.407118 0.04524,-0.09047 0.04524,-0.271412 0.04524,-0.452353 0,-0.226177 0,-0.452354 -0.04524,-0.67853 -0.04523,-0.271413 -0.04523,-0.678531 -0.09047,-1.26659 -0.09047,-1.040413 -0.180942,-2.03559 -0.226177,-2.895062 z m -3.392651,6.378183 c -0.316647,0.316648 -0.814236,0.497589 -1.447531,0.497589 -0.452353,0 -0.769,-0.09047 -0.995177,-0.316647 -0.226177,-0.271412 -0.316647,-0.633295 -0.316647,-1.176119 0.04524,0.09047 0.09047,0.135706 0.180941,0.180941 0.135706,0.09047 0.226177,0.135706 0.407118,0.135706 0.271412,0 0.497589,-0.135706 0.723765,-0.361883 0.135706,-0.226176 0.226177,-0.452353 0.226177,-0.723765 0,-0.180941 0,-0.361883 -0.09047,-0.452353 -0.135706,-0.135707 -0.226176,-0.226177 -0.361882,-0.271413 0.452353,-0.859471 0.814236,-1.583237 1.040413,-2.261767 0.316647,-0.633294 0.542824,-1.221354 0.723765,-1.809413 0.04524,0.588059 0.09047,1.130883 0.135706,1.628472 0.04523,0.542824 0.135706,1.085648 0.180941,1.764178 0.04524,0.497589 0.09047,0.859472 0.09047,1.040413 0,0.226177 0,0.452354 0,0.633295 0,0.633295 -0.135706,1.130884 -0.497589,1.492766 z m 23.79379,-7.237654 c 0.180942,0.226176 0.271412,0.407118 0.271412,0.588059 l -1.040413,4.885417 c -0.135706,0.542824 -0.361882,0.995177 -0.769,1.35706 -0.316648,0.361883 -0.723766,0.542824 -1.085649,0.542824 -0.407118,0 -0.723765,-0.135706 -0.859471,-0.407118 -0.180941,-0.316647 -0.226177,-0.723765 -0.226177,-1.266589 0,-1.26659 0.316648,-2.62365 0.949942,-3.935475 0.58806,-1.311825 1.311825,-1.990355 2.126062,-1.990355 0.316647,0 0.497588,0.09047 0.633294,0.226177 z"
   id="path2"
   style="stroke-width:0.452353" /><path
   fill="#f0f0f0"
   d="m 37.348822,22.310669 c 0,-0.58806 -0.09047,-1.040413 -0.361882,-1.357061 -0.226177,-0.316647 -0.542824,-0.497588 -1.040413,-0.497588 -0.407118,0 -0.769001,0.09047 -0.995178,0.316647 -0.226176,0.180941 -0.361882,0.452353 -0.361882,0.859471 0,0.271412 0.04523,0.497589 0.226176,0.723766 0.135706,0.226177 0.316648,0.316647 0.58806,0.316647 0.135706,0 0.226176,0 0.407118,0 0.180941,-0.09047 0.271412,-0.135706 0.271412,-0.180941 0,0.542824 -0.09047,1.221354 -0.226177,1.990355 -0.226177,0.769001 -0.452353,1.492766 -0.769001,2.171296 -0.361882,0.949943 -0.814236,1.718943 -1.311825,2.216532 -0.497588,0.542824 -0.995177,0.814236 -1.538001,0.814236 -0.226177,0 -0.452354,-0.09047 -0.542824,-0.180941 -0.135706,-0.135706 -0.226177,-0.316647 -0.226177,-0.542824 0,-0.09047 0.04524,-0.180942 0.09047,-0.316648 0,-0.135706 0.04523,-0.316647 0.09047,-0.452353 l 1.583237,-7.328125 h -3.211709 l -1.492766,6.921007 v 0 c -0.58806,0.633295 -1.130884,1.085648 -1.583237,1.447531 -0.180942,0.09047 -0.316648,0.180941 -0.452354,0.271412 -0.588059,0.271412 -1.221354,0.452353 -1.899884,0.452353 -0.04523,0 -0.04523,0 -0.04523,0 -0.58806,0 -0.995178,-0.135706 -1.221355,-0.407118 -0.226176,-0.271412 -0.361882,-0.769001 -0.361882,-1.402295 0,-0.09047 0,-0.180942 0.04524,-0.316648 0,-0.09047 0,-0.316647 0,-0.542824 0.542824,0 1.085648,-0.09047 1.538002,-0.226177 0.769,-0.271412 1.492766,-0.67853 2.080825,-1.221354 0.135706,-0.09047 0.180942,-0.135706 0.316648,-0.226176 0.769001,-0.859472 1.176119,-1.809414 1.176119,-2.849827 0,-0.723765 -0.180942,-1.221354 -0.633295,-1.583237 -0.135706,-0.135706 -0.316648,-0.226177 -0.542824,-0.316647 -0.361883,-0.135706 -0.769001,-0.180942 -1.26659,-0.180942 -0.407118,0 -0.769001,0.04524 -1.130883,0.09047 -0.497589,0.135706 -0.995178,0.316647 -1.402296,0.542824 -0.769001,0.452353 -1.402296,1.130884 -1.990355,1.94512 -0.452353,0.769001 -0.769001,1.538001 -1.085648,2.487944 -0.226177,0.904706 -0.361883,1.764178 -0.361883,2.578414 0,1.130884 0.316647,1.990355 0.904707,2.578415 0.542824,0.542824 1.402295,0.859471 2.578414,0.859471 0.452354,0 0.904707,-0.04524 1.357061,-0.135706 0.67853,-0.180941 1.311825,-0.452353 1.945119,-0.859471 0.135706,-0.09047 0.271412,-0.180942 0.452354,-0.271413 0.452353,-0.407118 0.949942,-0.859471 1.402295,-1.402295 0,0.04523 0,0.09047 0,0.135706 0,0.814236 0.226177,1.447531 0.67853,1.854649 0.497589,0.452353 1.176119,0.67853 1.990356,0.67853 1.040412,0 1.945119,-0.316647 2.804591,-0.904707 0.814236,-0.588059 1.492766,-1.447531 2.126061,-2.578414 0.407118,-0.859472 0.769001,-1.854649 1.040413,-2.895062 0.226176,-1.040413 0.361882,-2.126061 0.361882,-3.076003 z M 26.311399,22.039257 c 0.04523,0.135706 0.09047,0.361882 0.09047,0.633294 0,0.904707 -0.271412,1.718943 -0.949943,2.397473 -0.271412,0.316648 -0.588059,0.58806 -0.904706,0.769001 -0.407118,0.226177 -0.859472,0.361883 -1.357061,0.407118 0.271412,-1.221354 0.67853,-2.216531 1.130884,-3.121238 0.09047,-0.135706 0.180941,-0.226177 0.226177,-0.316648 0.452353,-0.67853 0.904706,-0.949942 1.311825,-0.949942 0.226176,0 0.316647,0.04523 0.452353,0.180942 z"
   id="path3"
   style="stroke-width:0.452353" /><path
   fill="url(#SVGID_1_)"
   d="m 13.509797,2 c 0.226177,0.8142362 0.361883,1.718943 0.452354,2.6688852 0.09047,1.0404128 0.135706,2.0808257 0.135706,3.2569446 0,0.8142362 0,1.854649 -0.04524,3.0760032 -0.04523,1.26659 -0.09047,2.578415 -0.226176,4.025945 0,0.09047 0,0.226177 0,0.361883 -0.180942,-0.09047 -0.407119,-0.135706 -0.633295,-0.135706 -0.67853,-0.180941 -1.402296,-0.271412 -2.035591,-0.271412 -1.6284719,0 -3.0760029,0.271412 -4.4330631,0.904707 -1.311825,0.588059 -2.4879438,1.492766 -3.4831214,2.62365 -0.9499422,1.085648 -1.7641783,2.442708 -2.26176707,3.890239 -0.58805944,1.492767 -0.8594715,3.076003 -0.8594715,4.794946 0,1.673708 0.27141206,3.030768 0.76900082,4.025946 0.54282415,1.085648 1.17611885,1.809414 1.99035505,2.261767 0.8594715,0.497589 1.6737076,0.67853 2.6236498,0.67853 0.9047069,0 1.8094137,-0.180941 2.7141206,-0.497589 0.8142361,-0.316647 1.5832369,-0.859471 2.3070028,-1.538001 0.723765,-0.633295 1.266589,-1.447531 1.718943,-2.442709 l 0.180941,0.04524 c 0.04523,0.769 0.226177,1.447531 0.542824,2.171296 0.316647,0.723766 0.904707,1.311825 1.628472,1.809414 0.497589,0.271412 1.402296,0.497589 2.714121,0.67853 1.583237,0.180941 3.121238,0.135706 4.568769,-0.180941 -2.940297,-0.361883 -4.975887,-1.26659 -6.152006,-2.759356 -0.949942,-1.221355 -1.221354,-2.849827 -0.859472,-4.840182 0.995178,-4.704476 1.628473,-9.499422 1.94512,-14.384839 C 17.083389,7.3377704 15.952506,3.8998844 13.509797,2 Z M 12.60509,15.661073 c 0.316648,0.04524 0.58806,0.04524 0.859472,0.04524 l 0.407118,0.09047 c 0.407118,0.04524 0.769001,0.135706 1.130883,0.361883 -0.452353,0 -0.814236,0.04524 -1.130883,0.180941 0,0 -0.04523,0 -0.09047,0.04524 -0.271412,3.076003 -0.588059,5.609182 -0.995177,7.644773 0,0.271412 0,0.542824 -0.04524,0.814236 0,0.271412 -0.04523,0.542824 -0.04523,0.769001 -0.09047,0.497588 -0.180941,0.995177 -0.226177,1.44753 -0.09047,0.452354 -0.226176,0.814237 -0.361882,1.221355 -0.09047,0.361882 -0.271412,0.67853 -0.407119,1.040413 -0.226176,0.452353 -0.542824,0.859471 -0.814236,1.221354 -0.316649,0.40711 -0.633296,0.723757 -0.9951792,0.995169 C 9.6647931,31.71962 9.4386164,31.900561 9.2124397,32.081502 8.8053216,32.307679 8.3982035,32.533856 7.9458501,32.669562 7.538732,32.805268 7.1768493,32.850503 6.7244959,32.805268 6.3173778,32.760033 5.9102597,32.669562 5.548377,32.443385 5.0960236,32.217208 4.7341408,31.991032 4.3722581,31.674384 4.100846,31.448208 3.9199047,31.176796 3.7389633,30.860148 3.4675512,30.45303 3.2866099,30.000677 3.1961392,29.548323 3.1509038,29.322147 3.0604332,29.09597 3.0604332,28.869793 3.0151978,28.462675 2.9699625,28.100792 3.0151978,27.73891 c 0,-0.497589 0.045235,-0.995178 0.135706,-1.538002 0.045235,-0.452353 0.1357061,-0.904707 0.2261768,-1.311825 0.135706,-0.407118 0.271412,-0.859471 0.3618827,-1.311825 0.135706,-0.361883 0.271412,-0.814236 0.4071181,-1.176119 0.1809413,-0.407118 0.3166474,-0.769001 0.4523534,-1.085648 0.1809414,-0.361883 0.3618827,-0.67853 0.5428241,-0.995177 0.271412,-0.497589 0.5880594,-0.949943 0.9499422,-1.311825 0.2261767,-0.271412 0.4523534,-0.542825 0.6785301,-0.769001 0.3166474,-0.271412 0.6332948,-0.542824 0.9951775,-0.814236 0.3166474,-0.271412 0.6785302,-0.452354 0.9951776,-0.633295 l 0.8142361,-0.407118 c 0.135706,0 0.2261767,-0.04524 0.3166474,-0.09047 0.3618832,-0.135706 0.7690012,-0.316647 1.1308832,-0.407118 0.542824,-0.180941 1.040413,-0.226177 1.583237,-0.226177 z"
   id="path8"
   style="fill:url(#SVGID_1_-7);stroke-width:0.452353" /><path
   fill="url(#SVGID_2_)"
   d="m 13.464562,15.706309 c -0.271412,0 -0.542824,0 -0.859472,-0.04524 -0.542824,0 -1.040413,0.04524 -1.583237,0.226177 -0.361882,0.09047 -0.769,0.271412 -1.1308832,0.407118 -0.090471,0.04524 -0.1809414,0.09047 -0.3166474,0.09047 l -0.8142361,0.407118 c -0.3166474,0.180941 -0.6785302,0.361883 -0.9951776,0.633295 -0.3618827,0.271412 -0.6785301,0.542824 -0.9951775,0.814236 -0.2261767,0.226176 -0.4523534,0.497589 -0.6785301,0.769001 -0.3618828,0.361882 -0.6785302,0.814236 -0.9499422,1.311825 -0.1809414,0.316647 -0.3618827,0.633294 -0.5428241,0.995177 -0.135706,0.316647 -0.2714121,0.67853 -0.4523534,1.085648 -0.1357061,0.361883 -0.2714121,0.814236 -0.4071181,1.176119 -0.090471,0.452354 -0.2261767,0.904707 -0.3618827,1.311825 -0.090471,0.407118 -0.1809414,0.859472 -0.2261768,1.311825 -0.090471,0.542824 -0.135706,1.040413 -0.135706,1.538002 -0.045235,0.361882 0,0.723765 0.045235,1.130883 0,0.226177 0.090471,0.452354 0.135706,0.67853 0.090471,0.452354 0.271412,0.904707 0.5428241,1.311825 0.1809414,0.316648 0.3618827,0.58806 0.6332948,0.814236 0.3618827,0.316648 0.7237655,0.542824 1.1761189,0.769001 0.3618827,0.226177 0.7690008,0.316648 1.1761189,0.361883 0.4523534,0.04524 0.8142361,0 1.2213542,-0.135706 0.4523534,-0.135706 0.8594715,-0.361883 1.2665896,-0.58806 0.2261767,-0.180941 0.4523534,-0.361882 0.6785301,-0.542824 0.3618836,-0.271412 0.6785306,-0.588059 0.9951776,-0.995177 0.271412,-0.361883 0.58806,-0.769001 0.814236,-1.221354 0.135707,-0.361883 0.316648,-0.678531 0.407119,-1.040413 0.135706,-0.407118 0.271412,-0.769001 0.361882,-1.221355 0.04524,-0.452353 0.135706,-0.949942 0.226177,-1.44753 0,-0.226177 0.04523,-0.497589 0.04523,-0.769001 0.04524,-0.271412 0.04524,-0.542824 0.04524,-0.814236 -0.949942,4.975887 -2.352238,7.37336 -4.1164168,7.101948 -0.5880595,-0.180941 -1.0404129,-0.542824 -1.2665896,-1.176119 -0.4071181,-1.085648 -0.4071181,-2.759356 0,-5.156829 0.090471,-0.407118 0.135706,-0.814236 0.2261767,-1.311825 0.9951775,-3.483121 3.0760037,-5.880594 6.1520067,-7.101948 0.04524,-0.04524 0.09047,-0.04524 0.09047,-0.04524 0.316647,-0.135706 0.67853,-0.180941 1.130883,-0.180941 -0.361882,-0.226177 -0.723765,-0.316647 -1.130883,-0.361883 z"
   id="path12-2"
   style="fill:url(#SVGID_2_-7);stroke-width:0.452353" /><path
   fill="url(#SVGID_3_)"
   d="M 17.354801,2.9951775 C 16.450094,2.3618827 15.183505,2 13.509797,2 c 2.442709,1.8998844 3.573592,5.3377704 3.30218,10.223187 -0.316647,4.885417 -0.949942,9.680363 -1.94512,14.384839 -0.361882,1.990355 -0.09047,3.618827 0.859472,4.840182 1.176119,1.492766 3.211709,2.397473 6.152006,2.759356 -1.854649,-0.633295 -3.030767,-1.357061 -3.664062,-2.216532 -0.452354,-0.58806 -0.67853,-1.357061 -0.67853,-2.397473 0,-1.718943 0.135706,-3.573592 0.361882,-5.654418 0.226177,-1.899884 0.497589,-3.754534 0.769001,-5.563947 0.316648,-1.764179 0.58806,-3.483122 0.814236,-5.066359 0.226177,-1.583236 0.316648,-2.985532 0.316648,-4.2068863 0,-1.2665896 -0.180942,-2.4427085 -0.542824,-3.5283567 C 18.892803,4.4879438 18.259508,3.6284723 17.354801,2.9951775 Z"
   id="path18-1"
   style="fill:url(#SVGID_3_-0);stroke-width:0.452353" /></svg>
